<?xml version="1.0" encoding="UTF-8"?>
<!DOCTYPE svg PUBLIC "-//W3C//DTD SVG 1.1//EN" "http://www.w3.org/Graphics/SVG/1.1/DTD/svg11.dtd">
<svg xmlns="http://www.w3.org/2000/svg" version="1.1" width="316px" height="316px" style="shape-rendering:geometricPrecision; text-rendering:geometricPrecision; image-rendering:optimizeQuality; fill-rule:evenodd; clip-rule:evenodd" xmlns:xlink="http://www.w3.org/1999/xlink">
<g><path style="opacity:0.01" fill="#000000" d="M 125.5,-0.5 C 127.167,-0.5 128.833,-0.5 130.5,-0.5C 128.833,0.833333 127.167,0.833333 125.5,-0.5 Z"/></g>
<g><path style="opacity:0.882" fill="#150401" d="M 138.5,-0.5 C 151.167,-0.5 163.833,-0.5 176.5,-0.5C 216.027,5.66076 248.194,21.9941 273,48.5C 274.566,47.9394 275.899,48.6061 277,50.5C 276.377,52.9849 277.377,54.9849 280,56.5C 280.667,55.1667 281.333,55.1667 282,56.5C 282.617,57.4491 282.451,58.2825 281.5,59C 282.743,61.0338 284.243,61.8671 286,61.5C 290.083,67.3305 293.916,73.3305 297.5,79.5C 296.089,81.0175 296.256,82.3508 298,83.5C 298.333,83.1667 298.667,82.8333 299,82.5C 299.407,87.3747 301.074,92.0414 304,96.5C 304.667,93.8333 305.333,93.8333 306,96.5C 307.398,98.8139 307.565,101.147 306.5,103.5C 307.765,106.796 308.932,110.129 310,113.5C 310.333,112.5 310.667,111.5 311,110.5C 311.2,118 312.367,125.333 314.5,132.5C 314.198,135.059 314.532,137.393 315.5,139.5C 315.5,151.5 315.5,163.5 315.5,175.5C 314.532,177.607 314.198,179.941 314.5,182.5C 313.539,184.265 313.205,186.265 313.5,188.5C 312.566,189.568 312.232,190.901 312.5,192.5C 311.167,193.833 311.167,195.167 312.5,196.5C 312.768,198.099 312.434,199.432 311.5,200.5C 311.167,196.5 310.833,196.5 310.5,200.5C 309.167,201.5 309.167,202.5 310.5,203.5C 309.833,204.833 309.167,206.167 308.5,207.5C 307.167,208.167 307.167,208.833 308.5,209.5C 308.737,210.791 308.404,211.791 307.5,212.5C 307.167,209.833 306.833,209.833 306.5,212.5C 305.596,213.209 305.263,214.209 305.5,215.5C 304.167,216.167 304.167,216.833 305.5,217.5C 301.21,230.091 294.876,241.424 286.5,251.5C 286.167,250.167 285.833,250.167 285.5,251.5C 284.167,251.833 284.167,252.167 285.5,252.5C 285.573,254.027 284.906,255.027 283.5,255.5C 283.167,254.167 282.833,254.167 282.5,255.5C 281.833,255.5 281.5,255.833 281.5,256.5C 280.167,256.833 280.167,257.167 281.5,257.5C 281.573,259.027 280.906,260.027 279.5,260.5C 279.167,259.167 278.833,259.167 278.5,260.5C 277.833,260.5 277.5,260.833 277.5,261.5C 276.833,261.5 276.5,261.833 276.5,262.5C 275.833,262.5 275.5,262.833 275.5,263.5C 274.833,263.5 274.5,263.833 274.5,264.5C 273.833,264.5 273.5,264.833 273.5,265.5C 272.833,265.5 272.5,265.833 272.5,266.5C 271.833,266.5 271.5,266.833 271.5,267.5C 270.833,267.5 270.5,267.833 270.5,268.5C 269.833,268.5 269.5,268.833 269.5,269.5C 268.833,269.5 268.5,269.833 268.5,270.5C 267.833,270.5 267.5,270.833 267.5,271.5C 266.833,271.5 266.5,271.833 266.5,272.5C 265.833,272.5 265.5,272.833 265.5,273.5C 264.833,273.5 264.5,273.833 264.5,274.5C 263.833,274.5 263.5,274.833 263.5,275.5C 262.833,275.5 262.5,275.833 262.5,276.5C 261.833,276.5 261.5,276.833 261.5,277.5C 260.833,277.5 260.5,277.833 260.5,278.5C 259.167,278.833 259.167,279.167 260.5,279.5C 260.027,280.906 259.027,281.573 257.5,281.5C 257.167,280.167 256.833,280.167 256.5,281.5C 255.833,281.5 255.5,281.833 255.5,282.5C 254.167,282.833 254.167,283.167 255.5,283.5C 255.027,284.906 254.027,285.573 252.5,285.5C 252.167,284.167 251.833,284.167 251.5,285.5C 250.167,285.833 250.167,286.167 251.5,286.5C 251.027,287.906 250.027,288.573 248.5,288.5C 248.167,287.167 247.833,287.167 247.5,288.5C 246.508,288.328 245.842,288.662 245.5,289.5C 244.833,289.5 244.5,289.833 244.5,290.5C 243.508,290.328 242.842,290.662 242.5,291.5C 241.833,291.5 241.5,291.833 241.5,292.5C 240.508,292.328 239.842,292.662 239.5,293.5C 238.508,293.328 237.842,293.662 237.5,294.5C 236.833,294.5 236.5,294.833 236.5,295.5C 235.508,295.328 234.842,295.662 234.5,296.5C 233.508,296.328 232.842,296.662 232.5,297.5C 231.508,297.328 230.842,297.662 230.5,298.5C 229.508,298.328 228.842,298.662 228.5,299.5C 227.508,299.328 226.842,299.662 226.5,300.5C 225.508,300.328 224.842,300.662 224.5,301.5C 223.508,301.328 222.842,301.662 222.5,302.5C 221.508,302.328 220.842,302.662 220.5,303.5C 219.209,303.263 218.209,303.596 217.5,304.5C 216.508,304.328 215.842,304.662 215.5,305.5C 214.209,305.263 213.209,305.596 212.5,306.5C 211.209,306.263 210.209,306.596 209.5,307.5C 208.209,307.263 207.209,307.596 206.5,308.5C 205.209,308.263 204.209,308.596 203.5,309.5C 202.209,309.263 201.209,309.596 200.5,310.5C 198.901,310.232 197.568,310.566 196.5,311.5C 194.901,311.232 193.568,311.566 192.5,312.5C 190.585,312.216 188.919,312.549 187.5,313.5C 182.951,313.624 178.618,314.291 174.5,315.5C 163.167,315.5 151.833,315.5 140.5,315.5C 138.052,314.527 135.385,314.194 132.5,314.5C 129.411,313.215 126.078,312.549 122.5,312.5C 99.0903,306.462 77.757,296.129 58.5,281.5C 58.5,280.833 58.1667,280.5 57.5,280.5C 55.563,279.069 53.7297,277.402 52,275.5C 49.7088,276.311 47.8754,275.477 46.5,273C 46.8333,272.667 47.1667,272.333 47.5,272C 44.5065,270.378 41.6731,268.211 39,265.5C 39.2527,262.643 37.9193,260.309 35,258.5C 34.3333,259.833 33.6667,259.833 33,258.5C 32.3828,257.551 32.5494,256.718 33.5,256C 28.9693,253.112 25.1359,248.946 22,243.5C 20.7003,240.705 19.2003,238.039 17.5,235.5C 18.3256,234.549 18.4922,233.549 18,232.5C 17.3333,231.167 16.6667,231.167 16,232.5C 13.3382,229.887 12.5049,226.887 13.5,223.5C 11.3742,219.289 9.54091,214.956 8,210.5C 7.33333,209.167 6.66667,209.167 6,210.5C 5.50645,203.491 4.17312,196.491 2,189.5C 1.66667,190.833 1.33333,192.167 1,193.5C 0.78997,191.942 0.28997,190.609 -0.5,189.5C -0.5,187.5 -0.5,185.5 -0.5,183.5C 0.833333,181.167 0.833333,178.833 -0.5,176.5C -0.5,163.5 -0.5,150.5 -0.5,137.5C 1.52126,131.028 2.35459,124.361 2,117.5C 2.33333,118.5 2.66667,119.5 3,120.5C 5.10664,115.237 6.10664,109.904 6,104.5C 6.66667,107.167 7.33333,107.167 8,104.5C 8,102.5 8,100.5 8,98.5C 8.66667,95.8333 9.33333,95.8333 10,98.5C 11.6352,96.7566 11.8019,94.9233 10.5,93C 15.6099,81.2712 22.1099,70.4379 30,60.5C 30.9138,61.6537 31.7471,61.487 32.5,60C 31.5494,59.2825 31.3828,58.4491 32,57.5C 33.7566,57.8671 35.2566,57.0338 36.5,55C 35.6894,52.7088 36.5228,50.8754 39,49.5C 39.3333,49.8333 39.6667,50.1667 40,50.5C 44.0621,46.2688 48.2288,42.2688 52.5,38.5C 53.1667,38.5 53.5,38.1667 53.5,37.5C 78.1655,16.7189 106.499,4.05228 138.5,-0.5 Z"/></g>
<g><path style="opacity:1" fill="#150302" d="M 6.5,148.5 C 6.5,146.833 6.5,145.167 6.5,143.5C 14.2181,84.9348 44.8847,43.1015 98.5,18C 152.774,-2.34086 203.441,4.32581 250.5,38C 296.229,75.9819 314.729,124.482 306,183.5C 295.005,238.16 263.838,276.327 212.5,298C 147.011,320.179 90.5111,306.346 43,256.5C 17.2021,225.275 5.03544,189.275 6.5,148.5 Z"/></g>
<g><path style="opacity:0.006" fill="#000000" d="M 53.5,37.5 C 52.8333,37.5 52.5,37.8333 52.5,38.5C 50.0248,38.2533 50.0248,37.5866 52.5,36.5C 53.1067,36.6236 53.44,36.9569 53.5,37.5 Z"/></g>
<g><path style="opacity:1" fill="#f7f2e8" d="M 143.5,51.5 C 196.009,48.4866 233.509,70.4866 256,117.5C 269.266,154.087 264.933,188.421 243,220.5C 213.262,256.525 175.428,269.692 129.5,260C 84.873,245.376 59.0397,214.876 52,168.5C 49.4031,116.172 71.9031,79.3389 119.5,58C 127.463,55.1785 135.463,53.0118 143.5,51.5 Z"/></g>
<g><path style="opacity:1" fill="#c20907" d="M 143.5,56.5 C 194.671,53.5681 230.838,75.2347 252,121.5C 265.64,164.905 256.14,202.405 223.5,234C 190.11,260.049 153.777,265.049 114.5,249C 72.4948,226.503 53.3282,191.336 57,143.5C 67.0134,95.6535 95.8468,66.6535 143.5,56.5 Z"/></g>
<g><path style="opacity:1" fill="#fdf8ec" d="M 125.5,199.5 C 123.522,188.549 122.856,177.216 123.5,165.5C 127.167,151.337 136.333,144.003 151,143.5C 151.743,140.217 151.076,137.217 149,134.5C 135.811,117.411 119.311,113.244 99.5,122C 92.302,126.708 86.9686,133.042 83.5,141C 83.7591,142.261 84.4258,143.261 85.5,144C 97.4418,144.29 105.942,149.79 111,160.5C 112.444,173.76 112.944,187.093 112.5,200.5C 109.687,200.452 107.021,199.785 104.5,198.5C 103.668,187.849 103.168,177.182 103,166.5C 99.3988,156.281 92.2321,152.114 81.5,154C 80.848,164.36 84.348,173.194 92,180.5C 92.8265,184.541 92.6599,188.541 91.5,192.5C 75.544,180.489 69.044,164.489 72,144.5C 78.6077,121.887 93.6077,109.554 117,107.5C 136.101,107.96 150.268,116.46 159.5,133C 178.552,133.051 197.552,133.717 216.5,135C 222.768,138.704 225.435,144.204 224.5,151.5C 236.128,154.798 242.794,162.464 244.5,174.5C 242.108,192.729 231.775,201.229 213.5,200C 204.234,197.066 197.9,191.066 194.5,182C 181.154,181.167 167.821,181.334 154.5,182.5C 151.457,186.544 147.791,189.877 143.5,192.5C 142.341,188.878 142.175,185.211 143,181.5C 150.837,174.164 154.504,165.164 154,154.5C 144.008,152.33 137.008,155.997 133,165.5C 132.832,176.515 132.332,187.515 131.5,198.5C 129.591,199.348 127.591,199.682 125.5,199.5 Z"/></g>
<g><path style="opacity:0.011" fill="#000000" d="M -0.5,125.5 C 0.833333,127.167 0.833333,128.833 -0.5,130.5C -0.5,128.833 -0.5,127.167 -0.5,125.5 Z"/></g>
<g><path style="opacity:0.009" fill="#000000" d="M 315.5,126.5 C 315.5,128.5 315.5,130.5 315.5,132.5C 315.167,132.5 314.833,132.5 314.5,132.5C 314.205,130.265 314.539,128.265 315.5,126.5 Z"/></g>
<g><path style="opacity:1" fill="#979089" d="M 25.5,141.5 C 27.6074,140.532 29.9407,140.198 32.5,140.5C 32.5,142.833 32.5,145.167 32.5,147.5C 31.5386,145.735 31.2053,143.735 31.5,141.5C 29.5,141.5 27.5,141.5 25.5,141.5 Z"/></g>
<g><path style="opacity:1" fill="#f9f9ed" d="M 25.5,141.5 C 27.5,141.5 29.5,141.5 31.5,141.5C 31.2053,143.735 31.5386,145.735 32.5,147.5C 34.5,147.5 36.5,147.5 38.5,147.5C 38.5,149.5 38.5,151.5 38.5,153.5C 40.2646,154.461 42.2646,154.795 44.5,154.5C 44.5,156.5 44.5,158.5 44.5,160.5C 42.5,160.5 40.5,160.5 38.5,160.5C 38.5,162.833 38.5,165.167 38.5,167.5C 36.5,167.5 34.5,167.5 32.5,167.5C 32.5,169.5 32.5,171.5 32.5,173.5C 30.1667,173.5 27.8333,173.5 25.5,173.5C 25.5,171.5 25.5,169.5 25.5,167.5C 23.7354,166.539 21.7354,166.205 19.5,166.5C 19.7947,164.265 19.4614,162.265 18.5,160.5C 16.5,160.5 14.5,160.5 12.5,160.5C 12.5,158.5 12.5,156.5 12.5,154.5C 14.8333,154.5 17.1667,154.5 19.5,154.5C 19.5,152.167 19.5,149.833 19.5,147.5C 21.5,147.5 23.5,147.5 25.5,147.5C 25.5,145.5 25.5,143.5 25.5,141.5 Z"/></g>
<g><path style="opacity:1" fill="#f7f6eb" d="M 295.5,147.5 C 295.5,149.833 295.5,152.167 295.5,154.5C 297.833,154.5 300.167,154.5 302.5,154.5C 302.5,156.5 302.5,158.5 302.5,160.5C 300.167,160.5 297.833,160.5 295.5,160.5C 295.5,162.833 295.5,165.167 295.5,167.5C 293.5,167.5 291.5,167.5 289.5,167.5C 289.5,169.5 289.5,171.5 289.5,173.5C 287.167,173.5 284.833,173.5 282.5,173.5C 282.5,171.5 282.5,169.5 282.5,167.5C 280.735,166.539 278.735,166.205 276.5,166.5C 276.795,164.265 276.461,162.265 275.5,160.5C 273.5,160.5 271.5,160.5 269.5,160.5C 269.5,158.5 269.5,156.5 269.5,154.5C 271.833,154.5 274.167,154.5 276.5,154.5C 276.5,152.167 276.5,149.833 276.5,147.5C 278.5,147.5 280.5,147.5 282.5,147.5C 282.5,145.167 282.5,142.833 282.5,140.5C 284.833,140.5 287.167,140.5 289.5,140.5C 289.5,142.833 289.5,145.167 289.5,147.5C 291.5,147.5 293.5,147.5 295.5,147.5 Z"/></g>
<g><path style="opacity:1" fill="#c20806" d="M 163.5,145.5 C 179.661,144.338 195.995,144.172 212.5,145C 213.423,147.041 213.756,149.208 213.5,151.5C 203.064,154.27 196.73,160.936 194.5,171.5C 183.5,171.5 172.5,171.5 161.5,171.5C 164.261,162.843 164.927,154.177 163.5,145.5 Z"/></g>
<g><path style="opacity:1" fill="#d5ae2a" d="M 6.5,143.5 C 6.5,145.167 6.5,146.833 6.5,148.5C 5.83333,154.5 5.16667,160.5 4.5,166.5C 3.16667,158.833 3.16667,151.167 4.5,143.5C 5.30912,141.708 5.80912,139.708 6,137.5C 6.49546,139.473 6.66212,141.473 6.5,143.5 Z"/></g>
<g><path style="opacity:1" fill="#7b716c" d="M 19.5,147.5 C 19.5,149.833 19.5,152.167 19.5,154.5C 17.1667,154.5 14.8333,154.5 12.5,154.5C 14.2646,153.539 16.2646,153.205 18.5,153.5C 18.2053,151.265 18.5386,149.265 19.5,147.5 Z"/></g>
<g><path style="opacity:1" fill="#766c67" d="M 276.5,147.5 C 276.5,149.833 276.5,152.167 276.5,154.5C 274.167,154.5 271.833,154.5 269.5,154.5C 271.265,153.539 273.265,153.205 275.5,153.5C 275.205,151.265 275.539,149.265 276.5,147.5 Z"/></g>
<g><path style="opacity:1" fill="#665a56" d="M 295.5,147.5 C 296.461,149.265 296.795,151.265 296.5,153.5C 298.735,153.205 300.735,153.539 302.5,154.5C 300.167,154.5 297.833,154.5 295.5,154.5C 295.5,152.167 295.5,149.833 295.5,147.5 Z"/></g>
<g><path style="opacity:0.009" fill="#000000" d="M 314.5,182.5 C 314.833,182.5 315.167,182.5 315.5,182.5C 315.5,184.5 315.5,186.5 315.5,188.5C 315.167,188.5 314.833,188.5 314.5,188.5C 314.5,186.5 314.5,184.5 314.5,182.5 Z"/></g>
<g><path style="opacity:0.011" fill="#000000" d="M 313.5,188.5 C 313.833,188.5 314.167,188.5 314.5,188.5C 314.768,190.099 314.434,191.432 313.5,192.5C 313.5,191.167 313.5,189.833 313.5,188.5 Z"/></g>
<g><path style="opacity:0.01" fill="#000000" d="M 312.5,192.5 C 312.833,192.5 313.167,192.5 313.5,192.5C 313.768,194.099 313.434,195.432 312.5,196.5C 312.5,195.167 312.5,193.833 312.5,192.5 Z"/></g>
<g><path style="opacity:0.01" fill="#000000" d="M 310.5,200.5 C 310.833,200.5 311.167,200.5 311.5,200.5C 311.737,201.791 311.404,202.791 310.5,203.5C 310.5,202.5 310.5,201.5 310.5,200.5 Z"/></g>
<g><path style="opacity:0.012" fill="#000000" d="M 308.5,207.5 C 309.833,208.167 309.833,208.833 308.5,209.5C 308.5,208.833 308.5,208.167 308.5,207.5 Z"/></g>
<g><path style="opacity:0.009" fill="#000000" d="M 306.5,212.5 C 306.833,212.5 307.167,212.5 307.5,212.5C 307.737,213.791 307.404,214.791 306.5,215.5C 306.5,214.5 306.5,213.5 306.5,212.5 Z"/></g>
<g><path style="opacity:0.01" fill="#000000" d="M 305.5,215.5 C 305.833,215.5 306.167,215.5 306.5,215.5C 306.672,216.492 306.338,217.158 305.5,217.5C 305.5,216.833 305.5,216.167 305.5,215.5 Z"/></g>
<g><path style="opacity:0.012" fill="#000000" d="M 285.5,251.5 C 285.833,251.5 286.167,251.5 286.5,251.5C 286.315,252.17 285.981,252.17 285.5,251.5 Z"/></g>
<g><path style="opacity:0.012" fill="#000000" d="M 282.5,255.5 C 282.833,255.5 283.167,255.5 283.5,255.5C 283.315,256.17 282.981,256.17 282.5,255.5 Z"/></g>
<g><path style="opacity:0.016" fill="#000000" d="M 281.5,256.5 C 281.833,256.5 282.167,256.5 282.5,256.5C 282.315,257.17 281.981,257.17 281.5,256.5 Z"/></g>
<g><path style="opacity:0.008" fill="#000000" d="M 278.5,260.5 C 278.833,260.5 279.167,260.5 279.5,260.5C 279.315,261.17 278.981,261.17 278.5,260.5 Z"/></g>
<g><path style="opacity:0.012" fill="#000000" d="M 277.5,261.5 C 277.833,261.5 278.167,261.5 278.5,261.5C 278.315,262.17 277.981,262.17 277.5,261.5 Z"/></g>
<g><path style="opacity:0.016" fill="#000000" d="M 276.5,262.5 C 276.833,262.5 277.167,262.5 277.5,262.5C 277.315,263.17 276.981,263.17 276.5,262.5 Z"/></g>
<g><path style="opacity:0.016" fill="#000000" d="M 275.5,263.5 C 275.833,263.5 276.167,263.5 276.5,263.5C 276.315,264.17 275.981,264.17 275.5,263.5 Z"/></g>
<g><path style="opacity:0.016" fill="#000000" d="M 274.5,264.5 C 274.833,264.5 275.167,264.5 275.5,264.5C 275.315,265.17 274.981,265.17 274.5,264.5 Z"/></g>
<g><path style="opacity:0.008" fill="#000000" d="M 273.5,265.5 C 273.833,265.5 274.167,265.5 274.5,265.5C 272.833,269.167 270.167,271.833 266.5,273.5C 266.5,273.167 266.5,272.833 266.5,272.5C 267.167,272.5 267.5,272.167 267.5,271.5C 268.167,271.5 268.5,271.167 268.5,270.5C 269.167,270.5 269.5,270.167 269.5,269.5C 270.167,269.5 270.5,269.167 270.5,268.5C 271.167,268.5 271.5,268.167 271.5,267.5C 272.167,267.5 272.5,267.167 272.5,266.5C 273.167,266.5 273.5,266.167 273.5,265.5 Z"/></g>
<g><path style="opacity:1" fill="#dab02b" d="M 4.5,166.5 C 5.16667,160.5 5.83333,154.5 6.5,148.5C 5.03544,189.275 17.2021,225.275 43,256.5C 90.5111,306.346 147.011,320.179 212.5,298C 263.838,276.327 295.005,238.16 306,183.5C 314.729,124.482 296.229,75.9819 250.5,38C 203.441,4.32581 152.774,-2.34086 98.5,18C 44.8847,43.1015 14.2181,84.9348 6.5,143.5C 6.66212,141.473 6.49546,139.473 6,137.5C 5.80912,139.708 5.30912,141.708 4.5,143.5C 12.2912,81.8845 44.6246,38.7179 101.5,14C 160.593,-5.93162 213.926,4.06838 261.5,44C 306.797,89.1173 320.964,142.617 304,204.5C 281.939,264.803 239.106,299.969 175.5,310C 120.677,314.735 75.1774,296.568 39,255.5C 18.1659,229.505 6.66586,199.838 4.5,166.5 Z"/></g>
<g><path style="opacity:1" fill="#ddb22b" d="M 283.5,180.5 C 284.649,180.791 285.316,181.624 285.5,183C 276.457,223.273 253.957,253.44 218,273.5C 216.511,272.576 216.344,271.576 217.5,270.5C 253.112,250.658 275.112,220.658 283.5,180.5 Z"/></g>
<g><path style="opacity:1" fill="#dfb42c" d="M 29.5,180.5 C 30.7498,180.577 31.5831,181.244 32,182.5C 41.0785,223.065 63.9119,253.065 100.5,272.5C 100.192,273.308 99.6924,273.975 99,274.5C 60.9713,254.092 37.8047,222.758 29.5,180.5 Z"/></g>
<g><path style="opacity:1" fill="#df7e77" d="M 123.5,165.5 C 122.856,177.216 123.522,188.549 125.5,199.5C 124.791,200.404 123.791,200.737 122.5,200.5C 122.172,188.655 122.505,176.988 123.5,165.5 Z"/></g>
<g><path style="opacity:1" fill="#99918a" d="M 275.5,160.5 C 276.461,162.265 276.795,164.265 276.5,166.5C 278.735,166.205 280.735,166.539 282.5,167.5C 280.167,167.5 277.833,167.5 275.5,167.5C 275.5,165.167 275.5,162.833 275.5,160.5 Z"/></g>
<g><path style="opacity:1" fill="#a09992" d="M 18.5,160.5 C 19.4614,162.265 19.7947,164.265 19.5,166.5C 21.7354,166.205 23.7354,166.539 25.5,167.5C 23.1667,167.5 20.8333,167.5 18.5,167.5C 18.5,165.167 18.5,162.833 18.5,160.5 Z"/></g>
<g><path style="opacity:1" fill="#c20f09" d="M 213.5,161.5 C 229.434,160.073 235.601,167.073 232,182.5C 222.841,193.477 214.175,193.144 206,181.5C 203.164,172.838 205.664,166.172 213.5,161.5 Z"/></g>
<g><path style="opacity:1" fill="#776e68" d="M 282.5,154.5 C 284.607,153.532 286.941,153.198 289.5,153.5C 289.802,156.059 289.468,158.393 288.5,160.5C 288.5,158.5 288.5,156.5 288.5,154.5C 286.5,154.5 284.5,154.5 282.5,154.5 Z"/></g>
<g><path style="opacity:1" fill="#160c0c" d="M 282.5,154.5 C 284.5,154.5 286.5,154.5 288.5,154.5C 288.5,156.5 288.5,158.5 288.5,160.5C 286.5,160.5 284.5,160.5 282.5,160.5C 282.5,158.5 282.5,156.5 282.5,154.5 Z"/></g>
<g><path style="opacity:1" fill="#847c75" d="M 25.5,154.5 C 27.6074,153.532 29.9407,153.198 32.5,153.5C 32.8016,156.059 32.4682,158.393 31.5,160.5C 31.5,158.5 31.5,156.5 31.5,154.5C 29.5,154.5 27.5,154.5 25.5,154.5 Z"/></g>
<g><path style="opacity:1" fill="#150908" d="M 25.5,154.5 C 27.5,154.5 29.5,154.5 31.5,154.5C 31.5,156.5 31.5,158.5 31.5,160.5C 29.5,160.5 27.5,160.5 25.5,160.5C 25.5,158.5 25.5,156.5 25.5,154.5 Z"/></g>
<g><path style="opacity:1" fill="#9b948e" d="M 38.5,153.5 C 40.8333,153.5 43.1667,153.5 45.5,153.5C 45.8016,156.059 45.4682,158.393 44.5,160.5C 44.5,158.5 44.5,156.5 44.5,154.5C 42.2646,154.795 40.2646,154.461 38.5,153.5 Z"/></g>
<g><path style="opacity:1" fill="#dab02a" d="M 252.5,68.5 C 269.239,85.9712 280.239,106.638 285.5,130.5C 285.167,131.5 284.833,132.5 284.5,133.5C 278.884,109.432 267.884,88.2658 251.5,70C 252.056,69.6174 252.389,69.1174 252.5,68.5 Z"/></g>
<g><path style="opacity:1" fill="#dcb22b" d="M 61.5,68.5 C 63.0281,68.5173 63.5281,69.184 63,70.5C 46.904,88.6897 36.0707,109.69 30.5,133.5C 29.6514,130.19 29.818,126.856 31,123.5C 37.0305,102.763 47.1971,84.4301 61.5,68.5 Z"/></g>
<g><path style="opacity:1" fill="#f2f1e6" d="M 238.5,44.5 C 241.771,46.5912 244.937,48.9245 248,51.5C 251.158,59.1895 248.658,63.5228 240.5,64.5C 240.112,67.8788 239.445,71.2121 238.5,74.5C 237.186,73.6872 236.019,72.6872 235,71.5C 235.033,67.9069 234.867,64.4069 234.5,61C 231.907,61.5465 229.74,63.0465 228,65.5C 226.513,64.8448 225.347,63.8448 224.5,62.5C 229.573,56.7674 234.239,50.7674 238.5,44.5 Z"/></g>
<g><path style="opacity:1" fill="#1a1010" d="M 239.5,51.5 C 240.885,52.6138 242.385,53.6138 244,54.5C 243.358,60.6183 240.858,61.1183 236.5,56C 237.883,54.7292 238.883,53.2292 239.5,51.5 Z"/></g>
<g><path style="opacity:1" fill="#f0efe5" d="M 73.5,45.5 C 74.9616,46.4577 76.2949,47.6244 77.5,49C 75.981,50.3513 74.6477,51.8513 73.5,53.5C 77.1667,58.1667 80.8333,62.8333 84.5,67.5C 83.6533,68.8448 82.4866,69.8448 81,70.5C 77.0481,66.093 73.2148,61.593 69.5,57C 67.5177,57.5937 65.6844,58.7604 64,60.5C 62.7638,59.6008 61.9304,58.4341 61.5,57C 65.3741,52.9576 69.3741,49.1243 73.5,45.5 Z"/></g>
<g><path style="opacity:1" fill="#f0eee4" d="M 207.5,30.5 C 218.622,29.459 224.122,34.459 224,45.5C 220.135,53.6825 213.969,56.1825 205.5,53C 197.01,44.6121 197.677,37.1121 207.5,30.5 Z"/></g>
<g><path style="opacity:1" fill="#f2f1e7" d="M 94.5,32.5 C 102.883,32.7269 106.383,37.0603 105,45.5C 107.333,47.0062 109.5,48.6729 111.5,50.5C 107.789,53.2467 104.456,52.7467 101.5,49C 99.3927,48.1458 98.0593,48.8125 97.5,51C 98.1117,53.0577 99.1117,54.891 100.5,56.5C 98.8778,58.4386 97.0445,58.772 95,57.5C 91.4427,51.5525 88.276,45.3858 85.5,39C 88.5367,36.8216 91.5367,34.6549 94.5,32.5 Z"/></g>
<g><path style="opacity:1" fill="#1f1616" d="M 95.5,37.5 C 98.1268,37.2933 99.7935,38.46 100.5,41C 99.2247,43.0709 97.3914,44.5709 95,45.5C 91.5789,42.4831 91.7456,39.8164 95.5,37.5 Z"/></g>
<g><path style="opacity:1" fill="#180b0a" d="M 208.5,35.5 C 218.311,35.1392 220.977,39.3059 216.5,48C 207.682,50.8521 204.182,47.6854 206,38.5C 207.045,37.6266 207.878,36.6266 208.5,35.5 Z"/></g>
<g><path style="opacity:1" fill="#f1f0e7" d="M 151.5,18.5 C 158.015,17.1674 163.348,19.0008 167.5,24C 165.051,27.0888 162.718,27.0888 160.5,24C 153.001,22.1782 149.501,25.0115 150,32.5C 154.041,38.6732 158.541,39.0065 163.5,33.5C 165.002,34.0831 166.335,34.9164 167.5,36C 162.739,42.6843 156.739,44.0177 149.5,40C 142.422,32.0604 143.088,24.8938 151.5,18.5 Z"/></g>
<g><path style="opacity:1" fill="#f2f1e6" d="M 120.5,22.5 C 123.365,22.0548 125.865,22.7215 128,24.5C 131.833,30.3333 135.667,36.1667 139.5,42C 138.391,42.6377 137.225,43.1377 136,43.5C 134.217,42.0471 132.217,41.0471 130,40.5C 127.863,41.0767 125.696,41.41 123.5,41.5C 124.575,45.938 122.908,47.938 118.5,47.5C 118.567,39.0966 119.234,30.7633 120.5,22.5 Z"/></g>
<g><path style="opacity:1" fill="#1e1514" d="M 124.5,30.5 C 126.384,31.3816 127.717,32.8816 128.5,35C 127.437,36.1882 126.103,36.6882 124.5,36.5C 124.5,34.5 124.5,32.5 124.5,30.5 Z"/></g>
<g><path style="opacity:1" fill="#eeede3" d="M 178.5,19.5 C 183.797,20.764 189.13,21.9307 194.5,23C 195.38,24.3561 195.714,25.8561 195.5,27.5C 193.076,27.1924 190.743,27.5258 188.5,28.5C 187.079,33.7607 186.079,39.094 185.5,44.5C 183.833,44.5 182.167,44.5 180.5,44.5C 180.855,38.0605 181.855,31.7272 183.5,25.5C 178.365,26.0486 176.698,24.0486 178.5,19.5 Z"/></g>
<g><path style="opacity:0.016" fill="#000000" d="M 265.5,273.5 C 265.833,273.5 266.167,273.5 266.5,273.5C 266.315,274.17 265.981,274.17 265.5,273.5 Z"/></g>
<g><path style="opacity:1" fill="#978f89" d="M 166.5,274.5 C 165.791,275.404 164.791,275.737 163.5,275.5C 163.5,276.833 163.5,278.167 163.5,279.5C 162.549,278.081 162.216,276.415 162.5,274.5C 163.833,274.5 165.167,274.5 166.5,274.5 Z"/></g>
<g><path style="opacity:0.016" fill="#000000" d="M 264.5,274.5 C 264.833,274.5 265.167,274.5 265.5,274.5C 265.315,275.17 264.981,275.17 264.5,274.5 Z"/></g>
<g><path style="opacity:0.016" fill="#000000" d="M 263.5,275.5 C 263.833,275.5 264.167,275.5 264.5,275.5C 264.315,276.17 263.981,276.17 263.5,275.5 Z"/></g>
<g><path style="opacity:0.016" fill="#000000" d="M 262.5,276.5 C 262.833,276.5 263.167,276.5 263.5,276.5C 263.315,277.17 262.981,277.17 262.5,276.5 Z"/></g>
<g><path style="opacity:0.012" fill="#000000" d="M 261.5,277.5 C 261.833,277.5 262.167,277.5 262.5,277.5C 262.315,278.17 261.981,278.17 261.5,277.5 Z"/></g>
<g><path style="opacity:0.008" fill="#000000" d="M 260.5,278.5 C 260.833,278.5 261.167,278.5 261.5,278.5C 261.315,279.17 260.981,279.17 260.5,278.5 Z"/></g>
<g><path style="opacity:0.007" fill="#000000" d="M 57.5,280.5 C 58.1667,280.5 58.5,280.833 58.5,281.5C 57.5029,282.713 56.5029,282.546 55.5,281C 56.0944,280.536 56.7611,280.369 57.5,280.5 Z"/></g>
<g><path style="opacity:0.016" fill="#000000" d="M 256.5,281.5 C 256.833,281.5 257.167,281.5 257.5,281.5C 257.315,282.17 256.981,282.17 256.5,281.5 Z"/></g>
<g><path style="opacity:1" fill="#f2f1e7" d="M 108.5,267.5 C 111.777,267.216 114.943,267.549 118,268.5C 117.24,273.96 115.74,279.293 113.5,284.5C 113.608,285.442 113.941,286.275 114.5,287C 118.431,287.403 119.431,289.236 117.5,292.5C 111.78,291.038 106.114,289.371 100.5,287.5C 100.763,281.921 103.096,280.921 107.5,284.5C 109.071,280.618 110.738,276.785 112.5,273C 108.498,272.786 107.164,270.953 108.5,267.5 Z"/></g>
<g><path style="opacity:0.012" fill="#000000" d="M 255.5,282.5 C 255.833,282.5 256.167,282.5 256.5,282.5C 256.315,283.17 255.981,283.17 255.5,282.5 Z"/></g>
<g><path style="opacity:1" fill="#f3f2e8" d="M 138.5,273.5 C 148.933,273.08 152.767,277.747 150,287.5C 147.259,291.744 143.759,295.078 139.5,297.5C 138.5,297.167 137.5,296.833 136.5,296.5C 137.711,294.578 139.044,292.745 140.5,291C 132.008,286.057 131.341,280.224 138.5,273.5 Z"/></g>
<g><path style="opacity:1" fill="#1c1111" d="M 140.5,278.5 C 146.016,278.473 147.349,280.64 144.5,285C 138.738,285.418 137.404,283.251 140.5,278.5 Z"/></g>
<g><path style="opacity:1" fill="#efeee4" d="M 198.5,266.5 C 205.597,266.301 210.097,269.634 212,276.5C 213.226,287.949 208.393,292.116 197.5,289C 189.294,280.83 189.628,273.33 198.5,266.5 Z"/></g>
<g><path style="opacity:1" fill="#180c0b" d="M 199.5,271.5 C 205.762,273.006 208.262,277.006 207,283.5C 202.641,286.758 199.641,285.758 198,280.5C 197.068,277.177 197.568,274.177 199.5,271.5 Z"/></g>
<g><path style="opacity:0.012" fill="#000000" d="M 251.5,285.5 C 251.833,285.5 252.167,285.5 252.5,285.5C 252.315,286.17 251.981,286.17 251.5,285.5 Z"/></g>
<g><path style="opacity:1" fill="#edece3" d="M 163.5,279.5 C 163.5,278.167 163.5,276.833 163.5,275.5C 164.791,275.737 165.791,275.404 166.5,274.5C 171.167,274.167 175.833,273.833 180.5,273.5C 178.858,281.599 176.692,289.599 174,297.5C 172.301,298.406 170.467,298.739 168.5,298.5C 170.323,292.21 171.989,285.877 173.5,279.5C 170.167,279.5 166.833,279.5 163.5,279.5 Z"/></g>
<g><path style="opacity:0.012" fill="#000000" d="M 247.5,288.5 C 247.833,288.5 248.167,288.5 248.5,288.5C 248.315,289.17 247.981,289.17 247.5,288.5 Z"/></g>
<g><path style="opacity:0.008" fill="#000000" d="M 245.5,290.5 C 245.5,290.167 245.5,289.833 245.5,289.5C 246.167,289.5 246.833,289.5 247.5,289.5C 247.158,290.338 246.492,290.672 245.5,290.5 Z"/></g>
<g><path style="opacity:0.012" fill="#000000" d="M 244.5,290.5 C 244.833,290.5 245.167,290.5 245.5,290.5C 245.315,291.17 244.981,291.17 244.5,290.5 Z"/></g>
<g><path style="opacity:0.008" fill="#000000" d="M 242.5,292.5 C 242.5,292.167 242.5,291.833 242.5,291.5C 243.167,291.5 243.833,291.5 244.5,291.5C 244.158,292.338 243.492,292.672 242.5,292.5 Z"/></g>
<g><path style="opacity:0.012" fill="#000000" d="M 241.5,292.5 C 241.833,292.5 242.167,292.5 242.5,292.5C 242.315,293.17 241.981,293.17 241.5,292.5 Z"/></g>
<g><path style="opacity:0.008" fill="#000000" d="M 239.5,294.5 C 239.5,294.167 239.5,293.833 239.5,293.5C 240.167,293.5 240.833,293.5 241.5,293.5C 241.158,294.338 240.492,294.672 239.5,294.5 Z"/></g>
<g><path style="opacity:0.01" fill="#000000" d="M 237.5,295.5 C 237.5,295.167 237.5,294.833 237.5,294.5C 238.167,294.5 238.833,294.5 239.5,294.5C 239.158,295.338 238.492,295.672 237.5,295.5 Z"/></g>
<g><path style="opacity:0.012" fill="#000000" d="M 236.5,295.5 C 236.833,295.5 237.167,295.5 237.5,295.5C 237.315,296.17 236.981,296.17 236.5,295.5 Z"/></g>
<g><path style="opacity:0.008" fill="#000000" d="M 234.5,297.5 C 234.5,297.167 234.5,296.833 234.5,296.5C 235.167,296.5 235.833,296.5 236.5,296.5C 236.158,297.338 235.492,297.672 234.5,297.5 Z"/></g>
<g><path style="opacity:0.008" fill="#000000" d="M 232.5,298.5 C 232.5,298.167 232.5,297.833 232.5,297.5C 233.167,297.5 233.833,297.5 234.5,297.5C 234.158,298.338 233.492,298.672 232.5,298.5 Z"/></g>
<g><path style="opacity:0.01" fill="#000000" d="M 230.5,299.5 C 230.5,299.167 230.5,298.833 230.5,298.5C 231.167,298.5 231.833,298.5 232.5,298.5C 232.158,299.338 231.492,299.672 230.5,299.5 Z"/></g>
<g><path style="opacity:0.01" fill="#000000" d="M 228.5,300.5 C 228.5,300.167 228.5,299.833 228.5,299.5C 229.167,299.5 229.833,299.5 230.5,299.5C 230.158,300.338 229.492,300.672 228.5,300.5 Z"/></g>
<g><path style="opacity:0.01" fill="#000000" d="M 226.5,301.5 C 226.5,301.167 226.5,300.833 226.5,300.5C 227.167,300.5 227.833,300.5 228.5,300.5C 228.158,301.338 227.492,301.672 226.5,301.5 Z"/></g>
<g><path style="opacity:0.01" fill="#000000" d="M 224.5,302.5 C 224.5,302.167 224.5,301.833 224.5,301.5C 225.167,301.5 225.833,301.5 226.5,301.5C 226.158,302.338 225.492,302.672 224.5,302.5 Z"/></g>
<g><path style="opacity:0.008" fill="#000000" d="M 222.5,303.5 C 222.5,303.167 222.5,302.833 222.5,302.5C 223.167,302.5 223.833,302.5 224.5,302.5C 224.158,303.338 223.492,303.672 222.5,303.5 Z"/></g>
<g><path style="opacity:0.008" fill="#000000" d="M 220.5,304.5 C 220.5,304.167 220.5,303.833 220.5,303.5C 221.167,303.5 221.833,303.5 222.5,303.5C 222.158,304.338 221.492,304.672 220.5,304.5 Z"/></g>
<g><path style="opacity:0.008" fill="#000000" d="M 217.5,305.5 C 217.5,305.167 217.5,304.833 217.5,304.5C 218.5,304.5 219.5,304.5 220.5,304.5C 219.791,305.404 218.791,305.737 217.5,305.5 Z"/></g>
<g><path style="opacity:0.01" fill="#000000" d="M 215.5,306.5 C 215.5,306.167 215.5,305.833 215.5,305.5C 216.167,305.5 216.833,305.5 217.5,305.5C 217.158,306.338 216.492,306.672 215.5,306.5 Z"/></g>
<g><path style="opacity:0.009" fill="#000000" d="M 212.5,307.5 C 212.5,307.167 212.5,306.833 212.5,306.5C 213.5,306.5 214.5,306.5 215.5,306.5C 214.791,307.404 213.791,307.737 212.5,307.5 Z"/></g>
<g><path style="opacity:0.007" fill="#000000" d="M 209.5,308.5 C 209.5,308.167 209.5,307.833 209.5,307.5C 210.5,307.5 211.5,307.5 212.5,307.5C 211.791,308.404 210.791,308.737 209.5,308.5 Z"/></g>
<g><path style="opacity:0.009" fill="#000000" d="M 206.5,309.5 C 206.5,309.167 206.5,308.833 206.5,308.5C 207.5,308.5 208.5,308.5 209.5,308.5C 208.791,309.404 207.791,309.737 206.5,309.5 Z"/></g>
<g><path style="opacity:0.009" fill="#000000" d="M 107.5,310.5 C 108.251,309.427 109.251,309.26 110.5,310C 109.552,310.483 108.552,310.649 107.5,310.5 Z"/></g>
<g><path style="opacity:0.009" fill="#000000" d="M 203.5,310.5 C 203.5,310.167 203.5,309.833 203.5,309.5C 204.5,309.5 205.5,309.5 206.5,309.5C 205.791,310.404 204.791,310.737 203.5,310.5 Z"/></g>
<g><path style="opacity:0.01" fill="#000000" d="M 200.5,311.5 C 200.5,311.167 200.5,310.833 200.5,310.5C 201.5,310.5 202.5,310.5 203.5,310.5C 202.791,311.404 201.791,311.737 200.5,311.5 Z"/></g>
<g><path style="opacity:0.01" fill="#000000" d="M 196.5,312.5 C 196.5,312.167 196.5,311.833 196.5,311.5C 197.833,311.5 199.167,311.5 200.5,311.5C 199.432,312.434 198.099,312.768 196.5,312.5 Z"/></g>
<g><path style="opacity:0.01" fill="#000000" d="M 122.5,312.5 C 122.5,312.833 122.5,313.167 122.5,313.5C 117.167,313.167 117.167,312.833 122.5,312.5 Z"/></g>
<g><path style="opacity:0.01" fill="#000000" d="M 192.5,313.5 C 192.5,313.167 192.5,312.833 192.5,312.5C 193.833,312.5 195.167,312.5 196.5,312.5C 195.432,313.434 194.099,313.768 192.5,313.5 Z"/></g>
<g><path style="opacity:0.01" fill="#000000" d="M 122.5,313.5 C 123.873,313.343 125.207,313.51 126.5,314C 124.934,314.765 123.601,314.598 122.5,313.5 Z"/></g>
<g><path style="opacity:0.008" fill="#000000" d="M 187.5,314.5 C 187.5,314.167 187.5,313.833 187.5,313.5C 189.167,313.5 190.833,313.5 192.5,313.5C 191.081,314.451 189.415,314.784 187.5,314.5 Z"/></g>
<g><path style="opacity:0.011" fill="#000000" d="M 127.5,315.5 C 128.919,314.549 130.585,314.216 132.5,314.5C 132.5,314.833 132.5,315.167 132.5,315.5C 130.833,315.5 129.167,315.5 127.5,315.5 Z"/></g>
<g><path style="opacity:0.011" fill="#000000" d="M 182.5,315.5 C 183.919,314.549 185.585,314.216 187.5,314.5C 187.5,314.833 187.5,315.167 187.5,315.5C 185.833,315.5 184.167,315.5 182.5,315.5 Z"/></g>
</svg>
