<svg width="717" height="168" viewBox="0 0 717 168" fill="none" xmlns="http://www.w3.org/2000/svg">
<path d="M35.2343 48.3708L54.2277 14.4243H54.417V66.3524H62.4888V0H54.0367L32.7631 38.1772L11.4894 0H3.0373V66.3524H11.1091V14.4243H11.2984L30.2918 48.3708H35.2308H35.2343ZM106.747 47.8889C106.747 54.4285 99.9078 61.1598 90.6012 61.1598C85.2819 61.1598 81.7688 58.6593 81.7688 53.3717V53.1801C81.7688 45.9688 87.5621 44.7186 96.2991 43.9484L106.747 42.9865V47.8907V47.8889ZM84.3338 32.406C84.6186 26.6366 88.7031 24.1361 96.2053 24.1361C104.088 24.1361 106.557 27.3101 106.557 32.6944V36.7335L95.1599 37.6953C84.7123 38.4655 74.0755 40.966 74.0755 53.1783V53.3699C74.0755 62.9868 80.6278 67.5059 89.9361 67.5059C98.1989 67.5059 103.897 63.6603 106.556 58.9477H106.745L106.934 66.3524H114.343V32.6944C114.343 24.0394 110.069 17.0198 96.2035 17.0198C83.9517 17.0198 76.9254 22.7892 76.6405 32.406H84.332H84.3338ZM127.831 66.3524H135.618V41.5428C135.618 30.6757 140.557 25.098 151.953 25.098V17.0216C142.931 16.5397 137.612 21.6374 135.807 27.2152H135.618L135.429 17.9834H127.831V66.3542V66.3524ZM192.411 66.3524H201.148L180.254 36.6385L200.102 17.9834H189.846L168.857 37.7939V0.00177106H161.07V66.3542H168.857V47.4107L175.031 41.5446L192.409 66.3542L192.411 66.3524ZM228.31 60.583C216.439 60.583 211.786 55.4871 211.691 45.4852H245.312C245.407 43.6582 245.596 42.3112 245.596 40.8693C245.596 25.9649 240.468 16.8281 225.842 16.8281C211.312 16.8281 203.999 25.9631 203.999 42.0228V42.2145C203.999 58.7542 210.551 67.5059 228.027 67.5059C233.631 67.5059 238.188 66.5441 243.223 64.6203V57.6974C237.809 59.7179 232.49 60.583 228.312 60.583H228.31ZM225.841 23.5611C235.052 23.5611 238.186 28.3687 238.186 38.7539H211.689C212.165 28.6571 216.439 23.5611 225.841 23.5611ZM279.594 24.9081V17.9834H266.962V4.4242H260.219L259.458 17.9834H252.81V24.9081H259.267V54.9104C259.267 63.6603 263.067 67.2193 271.33 67.2193C274.084 67.2193 277.027 66.7375 279.971 65.8724V59.2379C277.786 59.7197 275.317 60.103 272.754 60.103C268.575 60.103 266.96 58.4676 266.96 54.7187V24.9081H279.593H279.594ZM290.231 66.3542H298.018V17.9834H290.231V66.3542ZM290.042 9.81027H298.209V0.00177106H290.042V9.81027ZM311.694 66.3542H319.481V37.9855C319.481 30.1975 324.609 23.9463 334.107 23.9463C340.661 23.9463 343.224 26.8318 343.224 34.2348V66.3524H351.011V34.2348C351.011 22.0225 346.072 16.8299 335.342 16.8299C326.889 16.8299 321.476 21.3491 319.672 25.6765H319.483L319.293 17.9834H311.696V66.3542H311.694ZM382.922 59.0462C373.804 59.0462 369.815 52.5066 369.815 41.4479V41.2562C369.815 30.1975 373.804 23.7546 382.541 23.7546C391.374 23.7546 397.263 29.8124 397.263 38.084V45.0069C397.263 53.0851 391.754 59.0462 382.922 59.0462ZM397.356 65.009C397.356 72.2203 393.652 77.0296 382.352 77.0296C376.939 77.0296 371.526 76.0678 366.111 74.2408V81.1637C370.195 82.799 375.798 83.9525 382.637 83.9525C397.926 83.9525 405.145 76.9329 405.145 65.009V17.9852H397.547L397.358 25.4867H397.169C395.173 21.1592 389.856 16.8317 381.878 16.8317C369.056 16.8317 361.839 26.3518 361.839 41.258V41.4496C361.839 56.8359 369.056 65.9727 382.067 65.9727C389.759 65.9727 394.982 62.3187 397.167 57.7028H397.356V65.0108V65.009ZM31.3408 125.784L37.7993 135.304C35.4253 140.4 30.8667 144.439 23.1735 144.439C14.0562 144.439 8.26284 139.631 8.26284 131.265V131.073C8.26284 121.456 12.4412 117.129 23.8368 117.129H48.1495V109.821H23.3627C16.9998 109.821 13.7714 106.358 13.7714 99.5322V99.3406C13.7714 93.6679 16.906 90.0139 24.1234 90.0139C31.4363 90.0139 33.9995 93.1878 34.2861 100.207H42.4535C41.9776 89.052 37.3252 82.7059 24.5038 82.7059C11.0171 82.7059 5.60408 89.7255 5.60408 99.1489V99.3406C5.60408 106.36 8.73868 110.496 12.5367 112.708V112.9C5.69959 114.918 0 120.208 0 131.075V131.267C0 144.441 9.30652 151.749 22.2235 151.749C32.48 151.749 38.6537 147.133 42.1669 141.749L48.5298 150.98L54.134 146.941L36.9449 121.746L31.3408 125.786V125.784ZM94.1162 125.399H72.4622L83.1945 93.0875H83.3838L94.1162 125.399ZM96.4901 132.515L102.568 150.402H110.925L87.6559 84.0493H78.919L55.6499 150.402H64.0065L70.0847 132.515H96.4866H96.4901ZM137.044 144.632C127.546 144.632 123.746 137.901 123.746 126.266V126.074C123.746 114.438 127.546 107.802 136.663 107.802C145.781 107.802 151.954 113.86 151.954 122.132V130.593C151.954 138.669 146.161 144.632 137.044 144.632ZM136.189 151.555C144.167 151.555 149.676 147.901 151.859 143.285H152.048L152.237 150.402H159.835V84.0493H152.048V109.532H151.859C149.865 105.205 144.261 100.877 136 100.877C122.798 100.877 115.772 110.397 115.772 126.072V126.264C115.772 142.323 122.8 151.555 136.191 151.555H136.189ZM189.278 141.938H189.089L175.982 102.031H168.004L184.719 150.402H193.645L210.36 102.031H202.384L189.278 141.938ZM239.423 144.63C227.551 144.63 222.899 139.535 222.803 129.533H256.424C256.52 127.706 256.709 126.359 256.709 124.917C256.709 110.012 251.581 100.876 236.955 100.876C222.425 100.876 215.112 110.011 215.112 126.07V126.262C215.112 142.802 221.664 151.553 239.14 151.553C244.744 151.553 249.301 150.592 254.335 148.668V141.745C248.922 143.765 243.603 144.63 239.425 144.63H239.423ZM236.953 107.609C246.164 107.609 249.299 112.416 249.299 122.801H222.802C223.277 112.705 227.551 107.609 236.953 107.609ZM267.723 150.402H275.51V125.592C275.51 114.725 280.449 109.147 291.844 109.147V101.071C282.823 100.589 277.503 105.687 275.699 111.264H275.51L275.32 102.033H267.723V150.403V150.402ZM323.757 108.956V102.031H311.124V88.4717H304.381L303.62 102.031H296.973V108.956H303.429V138.958C303.429 147.708 307.229 151.267 315.492 151.267C318.246 151.267 321.19 150.785 324.133 149.92V143.285C321.949 143.767 319.479 144.15 316.916 144.15C312.738 144.15 311.123 142.515 311.123 138.766V108.956H323.755H323.757ZM334.393 150.402H342.18V102.031H334.393V150.402ZM334.204 93.8578H342.371V84.0493H334.204V93.8578ZM373.332 144.632C366.114 144.632 360.701 141.94 360.417 135.882H352.819C353.104 146.941 360.891 151.557 373.332 151.557C385.869 151.557 392.706 146.844 392.706 137.133V136.941C392.706 127.613 387.197 123.959 376.18 122.517L371.906 121.94C365.543 121.075 361.745 119.343 361.745 115.017V114.825C361.745 110.883 364.689 107.806 372.952 107.806C379.884 107.806 383.873 109.826 384.158 115.21H391.756C391.091 105.21 384.349 100.883 372.952 100.883C360.51 100.883 354.243 105.979 354.243 114.827V115.019C354.243 124.442 360.132 127.519 370.388 129.058L375.232 129.731C381.595 130.597 385.203 132.232 385.203 136.751V136.943C385.203 141.944 380.93 144.636 373.332 144.636V144.632ZM403.532 150.402H411.319V102.031H403.532V150.402ZM403.342 93.8578H411.51V84.0493H403.342V93.8578ZM424.995 150.402H432.782V122.033C432.782 114.245 437.91 107.994 447.407 107.994C453.961 107.994 456.525 110.879 456.525 118.282V150.4H464.312V118.282C464.312 106.07 459.373 100.877 448.642 100.877C440.19 100.877 434.777 105.397 432.973 109.724H432.783L432.594 102.031H424.996V150.402H424.995ZM496.222 143.094C487.105 143.094 483.116 136.554 483.116 125.495V125.304C483.116 114.245 487.105 107.802 495.842 107.802C504.674 107.802 510.563 113.86 510.563 122.132V129.054C510.563 137.133 505.055 143.094 496.222 143.094ZM510.657 149.056C510.657 156.268 506.953 161.077 495.652 161.077C490.239 161.077 484.826 160.115 479.412 158.288V165.211C483.496 166.846 489.099 168 495.937 168C511.227 168 518.446 160.98 518.446 149.056V102.033H510.848L510.659 109.534H510.469C508.474 105.207 503.156 100.879 495.178 100.879C482.357 100.879 475.14 110.399 475.14 125.305V125.497C475.14 140.883 482.357 150.02 495.368 150.02C503.059 150.02 508.283 146.366 510.468 141.75H510.657V149.058V149.056ZM542.378 117.707L547.411 91.454H561.371C570.204 91.454 573.717 93.8577 573.717 100.397C573.717 112.321 567.639 117.707 556.148 117.707H542.376H542.378ZM540.952 125.112H555.198C572.956 125.112 582.169 115.207 582.169 99.4373C582.169 88.7636 575.615 84.0511 562.035 84.0511H540.666L527.94 150.403H536.107L540.951 125.112H540.952ZM602.969 144.632C595.086 144.632 592.047 140.113 592.047 132.803C592.047 121.745 596.891 107.8 609.332 107.8C618.734 107.8 623.388 114.243 621.868 122.13L620.253 130.591C618.734 138.668 611.612 144.63 602.969 144.63V144.632ZM601.069 151.555C609.047 151.555 614.651 147.901 617.688 143.285H617.878L616.738 150.402H624.336L633.547 102.031H625.76L624.336 109.532H624.147C622.912 105.397 617.784 100.877 609.521 100.877C591.856 100.877 583.974 118.476 583.974 133.092C583.974 144.247 590.052 151.555 601.067 151.555H601.069ZM668.214 108.956L669.544 102.031H656.913L659.572 88.4717H652.829L649.409 102.031H642.762L641.431 108.956H647.89L642.096 138.958C640.577 147.034 644.375 151.267 652.638 151.267C655.297 151.267 658.146 150.785 660.71 149.92L662.04 143.285C659.761 143.767 657.196 144.15 654.633 144.15C650.455 144.15 649.22 142.515 649.885 138.766L655.583 108.956H668.215H668.214ZM671.063 150.402H678.85L684.359 121.841C685.878 114.052 692.242 107.994 701.644 107.994C708.196 107.994 710.191 110.879 708.767 118.282L702.594 150.4H710.38L716.363 119.244C718.737 106.55 714.463 100.877 703.731 100.877C695.374 100.877 689.485 105.205 686.922 109.532H686.733L691.576 84.0493H683.789L671.063 150.402Z" fill="white"/>
</svg>
