<svg width="18" height="10" viewBox="0 0 18 10" fill="none" xmlns="http://www.w3.org/2000/svg">
<path d="M5.5299 0.470191C5.6759 0.616191 5.74987 0.80822 5.74987 1.00022C5.74987 1.19222 5.6769 1.38425 5.5299 1.53025L2.80993 4.25022L16.9999 4.25022C17.4139 4.25022 17.7499 4.58622 17.7499 5.00022C17.7499 5.41422 17.4139 5.75022 16.9999 5.75022L2.81091 5.75022L5.53088 8.47019C5.82388 8.76319 5.82388 9.23823 5.53088 9.53123C5.23788 9.82423 4.76284 9.82423 4.46984 9.53123L0.469842 5.53123C0.400842 5.46223 0.345977 5.37933 0.307977 5.28733C0.231977 5.10433 0.231977 4.89733 0.307977 4.71433C0.345977 4.62233 0.400842 4.53919 0.469842 4.47019L4.46984 0.470191C4.76284 0.177191 5.2369 0.177191 5.5299 0.470191Z" fill="#EBFEFF"/>
</svg>
