<svg width="110" height="25" viewBox="0 0 110 25" fill="none" xmlns="http://www.w3.org/2000/svg">
<path d="M0.151676 6.74093C1.8827 6.72299 3.61369 6.70926 5.34479 6.70087C6.14868 6.69684 6.9525 6.69138 7.75634 6.6826C8.53258 6.67418 9.30875 6.66957 10.085 6.66757C10.3807 6.66615 10.6764 6.66336 10.972 6.65918C11.3872 6.65354 11.8022 6.65279 12.2175 6.65315C12.4535 6.65144 12.6895 6.64972 12.9326 6.64795C13.9868 6.79816 14.5543 7.26591 15.2341 8.04651C15.6207 8.78915 15.6671 9.39369 15.6504 10.2074C15.6505 10.3565 15.6506 10.5056 15.6507 10.6592C15.6502 11.1488 15.6441 11.6381 15.6379 12.1276C15.6364 12.4684 15.6353 12.8091 15.6345 13.1498C15.6315 14.0441 15.6237 14.9382 15.6149 15.8325C15.6068 16.7459 15.6032 17.6595 15.5993 18.573C15.5908 20.3635 15.5773 22.1541 15.5607 23.9446C15.2765 23.9224 14.9926 23.8978 14.7087 23.8721C14.5506 23.8586 14.3925 23.8452 14.2295 23.8313C13.7827 23.7513 13.7827 23.7513 13.1901 23.3647C12.6716 23.4167 12.2868 23.513 11.8285 23.757C11.3696 23.9637 11.067 23.9946 10.5646 23.9977C10.399 23.9995 10.2335 24.0014 10.0629 24.0033C9.7968 24.003 9.7968 24.003 9.52533 24.0027C9.34118 24.0035 9.15703 24.0044 8.9673 24.0052C8.57791 24.0063 8.18851 24.0064 7.79912 24.0056C7.20599 24.005 6.61306 24.0095 6.01995 24.0144C5.64093 24.0149 5.2619 24.015 4.88288 24.0148C4.70668 24.0166 4.53049 24.0184 4.34895 24.0202C2.985 24.0104 2.04736 23.7884 0.978923 22.9056C-0.0679184 21.6764 0.0858156 20.361 0.0899414 18.8342C0.0867582 18.5994 0.083575 18.3645 0.0802954 18.1226C0.080168 17.8952 0.0800407 17.6678 0.0799095 17.4336C0.0793206 17.2271 0.0787317 17.0207 0.078125 16.808C0.224833 15.6204 0.83214 14.8595 1.73209 14.0863C2.31528 13.7449 2.74843 13.6498 3.42492 13.6411C3.69085 13.6363 3.69085 13.6363 3.96215 13.6314C4.1519 13.6298 4.34166 13.6281 4.53716 13.6265C4.73289 13.6232 4.92863 13.6199 5.13029 13.6165C5.75493 13.6062 6.37956 13.5985 7.00424 13.591C7.63102 13.5825 8.25778 13.5735 8.88454 13.5634C9.27454 13.5572 9.66456 13.552 10.0546 13.5479C10.23 13.5453 10.4054 13.5426 10.5862 13.54C10.7413 13.5381 10.8964 13.5363 11.0562 13.5344C11.4164 13.5439 11.4164 13.5439 11.6097 13.3131C11.6292 12.8947 11.6353 12.4756 11.6343 12.0567C11.6349 11.8274 11.6354 11.5982 11.6359 11.362C11.6753 10.821 11.6753 10.821 11.4121 10.6069C11.1405 10.5873 10.8679 10.5807 10.5956 10.5795C10.4221 10.5781 10.2486 10.5768 10.0698 10.5754C9.8807 10.5746 9.69161 10.5738 9.49678 10.5729C9.09859 10.5685 8.7004 10.5638 8.30221 10.559C7.67276 10.5522 7.04338 10.5465 6.4139 10.5439C5.80752 10.5409 5.20136 10.5331 4.59504 10.5246C4.40834 10.525 4.22164 10.5254 4.02929 10.5257C2.83352 10.5042 2.11473 10.3315 1.13943 9.64042C0.387819 8.71341 0.290562 7.89612 0.151676 6.74093ZM11.293 16.8834C10.6386 17.292 10.1389 17.2598 9.36637 17.2712C9.15827 17.2757 9.15827 17.2757 8.94598 17.2803C8.50451 17.2895 8.06312 17.2949 7.62159 17.2999C7.17798 17.307 6.73442 17.3148 6.29085 17.3236C5.88993 17.3313 5.48896 17.3366 5.088 17.3419C4.52096 17.3066 4.52096 17.3066 4.30025 17.5657C4.28071 17.9842 4.27463 18.4032 4.27556 18.8221C4.27505 19.0514 4.27454 19.2806 4.27402 19.5168C4.23465 20.0578 4.23465 20.0578 4.49781 20.2719C5.00556 20.2914 5.50788 20.2989 6.01571 20.2976C6.16796 20.2977 6.32022 20.2979 6.47708 20.2981C6.79976 20.2983 7.12244 20.2979 7.44511 20.2971C7.93982 20.2961 8.4345 20.2971 8.92921 20.2983C9.24213 20.2982 9.55504 20.2979 9.86796 20.2976C10.0908 20.2981 10.0908 20.2981 10.3182 20.2987C11.088 20.31 11.088 20.31 11.8072 20.0786C11.8072 18.9304 11.8072 17.7822 11.8072 16.5992C11.5623 16.5774 11.5623 16.5774 11.293 16.8834Z" fill="#F4F5F9"/>
<path d="M38.5903 0.657471C38.6541 4.85082 38.7179 9.04417 38.7836 13.3646C39.6673 12.61 40.5024 11.8682 41.3116 11.0437C41.5256 10.8281 41.7396 10.6125 41.9536 10.3969C42.2856 10.0613 42.6173 9.72544 42.9485 9.3891C43.2717 9.06137 43.596 8.73482 43.9204 8.40839C44.0696 8.2559 44.0696 8.2559 44.2218 8.10033C44.4631 7.8582 44.7144 7.62608 44.9674 7.3961C45.095 7.3961 45.2225 7.3961 45.3539 7.3961C45.3539 7.26903 45.3539 7.14195 45.3539 7.01103C46.2922 6.54364 47.6108 6.71594 48.6391 6.8185C49.1912 7.08291 49.4036 7.30417 49.7986 7.78116C49.533 8.64704 49.158 8.97335 48.4459 9.51395C48.3183 9.67279 48.1908 9.83163 48.0594 9.99528C47.6529 10.5014 47.2132 10.843 46.7067 11.2467C46.5672 11.4215 46.4277 11.5962 46.2839 11.7762C46.1683 11.9192 46.0528 12.0621 45.9337 12.2094C45.8061 12.2094 45.6786 12.2094 45.5472 12.2094C45.4834 12.4 45.4196 12.5906 45.3539 12.787C45.2264 12.787 45.0989 12.787 44.9674 12.787C44.9037 12.9776 44.8399 13.1682 44.7742 13.3646C44.6467 13.3646 44.5191 13.3646 44.3877 13.3646C44.2921 13.6505 44.2921 13.6505 44.1945 13.9422C44.0669 13.9422 43.9394 13.9422 43.808 13.9422C43.7123 14.2281 43.7123 14.2281 43.6147 14.5198C43.4872 14.5198 43.3596 14.5198 43.2282 14.5198C43.1326 14.8057 43.1326 14.8057 43.035 15.0974C42.9074 15.0974 42.7799 15.0974 42.6485 15.0974C43.5252 16.1225 44.4366 17.0888 45.4083 18.0245C45.6691 18.2791 45.9298 18.5338 46.1903 18.7886C46.596 19.1843 47.0023 19.5793 47.4106 19.9724C47.8082 20.3558 48.2027 20.7421 48.5968 21.1291C48.7204 21.2466 48.844 21.3641 48.9713 21.4852C49.3098 21.8204 49.3098 21.8204 49.7986 22.4136C49.768 22.8087 49.768 22.8087 49.6053 23.1837C48.6655 23.901 47.9612 24.0372 46.7897 24.0185C45.4555 23.8348 44.7704 23.0639 43.8646 22.1414C43.7244 22.0009 43.5842 21.8604 43.4398 21.7157C42.9935 21.2678 42.5492 20.8179 42.105 20.368C41.8023 20.0635 41.4995 19.7591 41.1965 19.4549C40.4551 18.7099 39.7153 17.9632 38.9768 17.2152C38.7892 17.776 38.7572 18.1509 38.7496 18.7352C38.745 18.9192 38.7404 19.1032 38.7357 19.2929C38.7274 19.6784 38.7213 20.064 38.7175 20.4496C38.6843 21.5969 38.6038 22.3178 37.8174 23.1837C37.6898 23.1837 37.5623 23.1837 37.4309 23.1837C37.4309 23.3108 37.4309 23.4379 37.4309 23.5688C36.8171 23.8745 36.3321 23.9769 35.6554 23.9659C35.4123 23.9619 35.1692 23.958 34.9187 23.9539C34.9006 21.2944 34.887 18.635 34.8786 15.9756C34.8746 14.7406 34.8691 13.5057 34.8604 12.2708C34.852 11.0786 34.8473 9.88646 34.8453 8.69424C34.8439 8.23982 34.8411 7.78539 34.837 7.33098C34.8313 6.69357 34.8306 6.05632 34.8309 5.41888C34.8282 5.23179 34.8254 5.04469 34.8225 4.85192C34.8296 3.6793 35.0173 2.78999 35.6917 1.81266C36.6716 0.885145 37.2247 0.657471 38.5903 0.657471Z" fill="#F4F5F9"/>
<path d="M18.0493 6.74096C19.8076 6.72303 21.5659 6.70929 23.3243 6.70089C24.1408 6.69685 24.9573 6.69138 25.7738 6.68261C26.562 6.6742 27.3501 6.66958 28.1383 6.66758C28.4388 6.66615 28.7393 6.66336 29.0397 6.65918C29.4611 6.65356 29.8823 6.6528 30.3037 6.65315C30.5434 6.65144 30.7832 6.64972 31.0301 6.64795C31.7853 6.75877 32.1027 6.9813 32.6364 7.51442C32.9494 8.30147 32.8225 8.79392 32.5027 9.54475C32.147 10.2678 31.7688 10.9368 31.2749 11.5751C31.1466 11.5751 31.0182 11.5751 30.8859 11.5751C30.8338 11.6828 30.7816 11.7904 30.7279 11.9014C30.4758 12.3896 30.2199 12.8585 29.9135 13.3154C29.7851 13.3154 29.6567 13.3154 29.5245 13.3154C29.5245 13.5068 29.5245 13.6982 29.5245 13.8955C29.2049 14.2222 28.8798 14.5437 28.552 14.8623C28.3734 15.1049 28.1992 15.3507 28.0293 15.5995C27.8809 15.8029 27.7325 16.0063 27.5795 16.2158C27.4512 16.2158 27.3228 16.2158 27.1906 16.2158C27.1906 16.4073 27.1906 16.5987 27.1906 16.7959C26.9357 17.0581 26.6756 17.3153 26.4126 17.5694C26.3083 17.7449 26.204 17.9204 26.0965 18.1011C26.0083 18.2447 25.92 18.3883 25.8291 18.5362C25.7007 18.5362 25.5724 18.5362 25.4401 18.5362C25.3839 18.6519 25.3278 18.7675 25.2699 18.8867C25.0511 19.3097 25.0511 19.3097 24.6621 19.8898C24.8855 19.8925 24.8855 19.8925 25.1133 19.8952C25.7977 19.9057 26.4819 19.9219 27.1662 19.9381C27.5175 19.9422 27.5175 19.9422 27.8758 19.9464C29.3062 19.9851 30.6129 20.1006 31.8584 20.8566C32.7484 21.8249 32.8772 22.6829 33.0254 23.9504C31.2924 23.9639 29.5595 23.9742 27.8265 23.9805C27.0217 23.9835 26.217 23.9876 25.4123 23.9942C24.6355 24.0005 23.8587 24.004 23.0818 24.0055C22.7857 24.0065 22.4896 24.0086 22.1934 24.0118C21.7781 24.016 21.3629 24.0166 20.9476 24.0163C20.5932 24.0182 20.5932 24.0182 20.2317 24.0202C19.4232 23.9302 18.8822 23.6746 18.3654 23.044C18.1517 22.2579 18.2657 21.3968 18.6328 20.6669C18.7178 20.498 18.7702 20.3936 18.8273 20.2802C18.9245 20.0868 18.9245 20.0905 19.0218 19.9901C19.1252 19.8834 19.119 19.8934 19.2163 19.7968C19.3135 19.7001 19.5151 19.796 19.5688 19.6481C19.7906 19.1375 20.0125 18.7575 20.3832 18.3429C20.4805 18.2341 20.4805 18.2015 20.5777 18.0565C20.6953 17.8812 20.675 17.8631 20.7722 17.7628C21.0891 17.4334 21.4146 17.1122 21.7447 16.7959C22.0434 16.4227 22.3351 16.0438 22.6199 15.6599C22.7706 15.458 22.9213 15.2561 23.0765 15.0481C23.4134 14.5874 23.7419 14.123 24.0665 13.6538C24.1989 13.4783 24.3312 13.3028 24.4676 13.122C24.596 13.122 24.7244 13.122 24.8566 13.122C24.9311 12.962 24.9311 12.962 25.0071 12.7987C25.2832 12.2777 25.6076 11.8133 25.9507 11.3334C26.0735 11.1609 26.1964 10.9884 26.3229 10.8107C26.4636 10.6148 26.4636 10.6148 26.6071 10.4149C26.4267 10.421 26.2463 10.427 26.0604 10.4333C25.3847 10.4532 24.7093 10.4677 24.0334 10.4786C23.7422 10.4844 23.4509 10.4923 23.1597 10.5024C20.2415 10.6011 20.2415 10.6011 19.0916 9.56142C18.3345 8.68295 18.1969 7.86076 18.0493 6.74096Z" fill="#F4F5F9"/>
<path d="M96.6202 12.075C96.8599 12.0745 97.0995 12.074 97.3465 12.0735C97.7196 12.0758 97.7196 12.0758 98.1002 12.0781C98.3497 12.0766 98.5991 12.075 98.8562 12.0735C99.0956 12.074 99.335 12.0745 99.5817 12.075C99.8002 12.0755 100.019 12.0759 100.244 12.0763C100.818 12.1265 100.818 12.1265 101.236 12.348C101.356 12.4029 101.475 12.4579 101.598 12.5145C101.987 12.3516 101.987 12.3516 102.378 12.1265C103.074 12.0408 103.773 12.0547 104.474 12.0538C104.662 12.0491 104.85 12.0443 105.044 12.0394C106.529 12.0334 107.53 12.3016 108.656 13.2714C109.203 14.2068 109.104 15.1113 109.084 16.1737C109.083 16.3962 109.082 16.6187 109.081 16.848C109.076 17.5576 109.067 18.267 109.057 18.9766C109.053 19.4581 109.049 19.9397 109.046 20.4212C109.037 21.6007 109.024 22.7801 109.008 23.9595C108.238 23.9153 107.776 23.8758 107.175 23.3766C106.752 22.5892 106.749 21.9464 106.751 21.0665C106.748 20.9013 106.745 20.7361 106.743 20.5659C106.734 20.0402 106.731 19.5145 106.729 18.9887C106.723 18.4616 106.716 17.9344 106.709 17.4073C106.704 17.0798 106.701 16.7523 106.7 16.4248C106.694 15.7843 106.678 15.2602 106.473 14.6483C105.379 14.6483 104.285 14.6483 103.158 14.6483C102.929 15.1044 102.933 15.3907 102.923 15.8995C102.919 16.0781 102.915 16.2567 102.911 16.4407C102.906 16.7305 102.906 16.7305 102.901 17.0261C102.897 17.2237 102.893 17.4212 102.889 17.6247C102.876 18.2572 102.865 18.8897 102.853 19.5222C102.845 19.9503 102.836 20.3784 102.828 20.8066C102.807 21.8575 102.787 22.9085 102.768 23.9595C101.28 24.0171 101.28 24.0171 100.635 23.4988C99.9533 22.6355 99.997 21.9308 99.9763 20.8664C99.9722 20.6947 99.9682 20.5231 99.964 20.3462C99.9512 19.7967 99.9397 19.2472 99.9283 18.6977C99.9199 18.3257 99.9114 17.9536 99.9028 17.5816C99.8819 16.6685 99.8621 15.7554 99.843 14.8423C99.2023 14.5236 98.499 14.6044 97.7955 14.5998C97.6424 14.5958 97.4893 14.5918 97.3316 14.5877C96.8359 14.5776 96.8359 14.5776 96.138 14.6483C95.6256 15.413 95.7007 16.0641 95.7084 16.9504C95.7064 17.2977 95.7041 17.645 95.7016 17.9923C95.6996 18.5393 95.6993 19.0862 95.7032 19.6333C95.7061 20.1617 95.7017 20.6896 95.6962 21.218C95.6992 21.3809 95.7022 21.5438 95.7053 21.7116C95.6951 22.3266 95.6844 22.7972 95.331 23.3149C94.776 23.8385 94.3843 23.9594 93.6274 24.0202C93.4263 24.0002 93.2252 23.9802 93.0181 23.9595C92.9982 22.6931 92.9846 21.4267 92.9752 20.1601C92.9713 19.7299 92.966 19.2996 92.9592 18.8693C92.9497 18.2486 92.9453 17.628 92.9419 17.0072C92.9379 16.8168 92.9338 16.6264 92.9297 16.4302C92.9293 15.1522 93.1818 14.2186 93.798 13.0965C93.9267 13.0965 94.0554 13.0965 94.188 13.0965C94.2524 12.9044 94.3167 12.7124 94.383 12.5145C95.1276 12.1126 95.7833 12.0767 96.6202 12.075Z" fill="#F4F5F9"/>
<path d="M82.319 12.0568C82.4795 12.056 82.6401 12.0551 82.8055 12.0543C83.1436 12.0532 83.4816 12.0531 83.8196 12.0539C84.3348 12.0545 84.8498 12.05 85.365 12.0451C85.6946 12.0446 86.0242 12.0445 86.3538 12.0447C86.5067 12.0429 86.6595 12.0411 86.817 12.0393C88.1051 12.05 88.9588 12.3758 89.8797 13.2935C90.5536 14.1243 90.5565 14.8639 90.5224 15.897C90.5212 16.0698 90.52 16.2426 90.5187 16.4206C90.5135 16.9689 90.5 17.5166 90.4865 18.0647C90.4822 18.4358 90.4785 18.8069 90.4754 19.178C90.4429 21.8582 90.4429 21.8582 90.2052 22.5632C90.0761 22.5632 89.947 22.5632 89.814 22.5632C89.7696 22.6789 89.7252 22.7946 89.6795 22.9139C89.3332 23.4847 89.0595 23.6364 88.4446 23.9176C87.8295 24.0039 87.2204 24.0036 86.5999 24.0015C86.3333 24.003 86.3333 24.003 86.0613 24.0046C85.6861 24.0058 85.3108 24.0055 84.9356 24.0039C84.3641 24.0022 83.793 24.0078 83.2215 24.014C82.8559 24.0143 82.4904 24.0142 82.1249 24.0136C81.8705 24.0168 81.8705 24.0168 81.611 24.0202C80.4678 24.0073 79.7914 23.81 78.8588 23.1436C77.7822 21.9263 77.9571 20.076 77.9743 18.5559C77.9785 18.1138 77.9743 17.6723 77.9693 17.2303C77.966 15.5774 78.0337 14.1199 79.1053 12.7725C80.0462 12.0247 81.1725 12.0555 82.319 12.0568ZM80.6316 14.6476C80.311 15.2181 80.3476 15.7172 80.3459 16.3656C80.3453 16.4966 80.3448 16.6275 80.3442 16.7624C80.3438 17.0389 80.3449 17.3154 80.3473 17.5918C80.3505 18.0148 80.3474 18.4375 80.3436 18.8605C80.344 19.1293 80.3447 19.3982 80.3459 19.667C80.3466 19.9115 80.3472 20.1561 80.3479 20.408C80.3831 20.9956 80.3831 20.9956 80.6285 21.3854C81.2293 21.7161 81.8399 21.6745 82.5093 21.6661C82.7281 21.6662 82.7281 21.6662 82.9513 21.6663C83.2593 21.6659 83.5673 21.664 83.8753 21.6608C84.3476 21.6562 84.8197 21.6568 85.292 21.6581C85.5912 21.657 85.8903 21.6557 86.1895 21.654C86.3311 21.6541 86.4728 21.6543 86.6187 21.6545C87.4247 21.6669 87.4247 21.6669 88.0533 21.2088C88.1316 20.3299 88.1177 19.4481 88.1151 18.5662C88.1145 18.1275 88.1191 17.689 88.124 17.2503C88.1245 16.9718 88.1246 16.6933 88.1244 16.4147C88.125 16.1609 88.1256 15.907 88.1262 15.6454C88.0965 15.0392 88.0965 15.0392 87.846 14.6445C87.2592 14.3234 86.671 14.3541 86.0176 14.3597C85.806 14.3589 85.806 14.3589 85.5901 14.358C85.2921 14.3576 84.9942 14.3587 84.6962 14.3611C84.2402 14.3642 83.7845 14.3612 83.3285 14.3575C83.0388 14.3578 82.7492 14.3586 82.4596 14.3597C82.3233 14.3586 82.1869 14.3574 82.0464 14.3562C81.5137 14.3638 81.1011 14.3866 80.6316 14.6476Z" fill="#F4F5F9"/>
<path d="M56.7544 6.68652C56.9773 7.37447 56.9848 8.01228 56.9853 8.72986C56.9859 8.9866 56.9866 9.24335 56.9872 9.50787C56.9869 9.78775 56.9865 10.0676 56.986 10.3475C56.9861 10.6356 56.9863 10.9238 56.9866 11.2119C56.9869 11.8157 56.9864 12.4196 56.9855 13.0234C56.9843 13.7947 56.985 14.566 56.9862 15.3372C56.987 15.9325 56.9867 16.5277 56.9862 17.1229C56.9861 17.4071 56.9862 17.6913 56.9867 17.9756C56.9872 18.3744 56.9864 18.7732 56.9853 19.172C56.9851 19.3984 56.985 19.6248 56.9848 19.8581C56.9335 21.1511 56.7992 22.0166 55.9367 23.0435C54.8362 23.9669 54.2946 24.039 52.8703 24.0171C52.856 22.0823 52.8451 20.1476 52.8385 18.2128C52.8353 17.3143 52.8309 16.4159 52.824 15.5174C52.8173 14.6501 52.8137 13.7827 52.8121 12.9153C52.8109 12.5847 52.8087 12.2541 52.8054 11.9236C52.8009 11.4598 52.8003 10.9961 52.8006 10.5323C52.7984 10.3963 52.7962 10.2603 52.7939 10.1201C52.801 9.0552 53.0796 8.26953 53.8437 7.4852C54.8618 6.74163 55.4738 6.55582 56.7544 6.68652Z" fill="#F4F5F9"/>
<path d="M69.6052 12.0643C69.906 12.0651 69.906 12.0651 70.2129 12.0659C70.8516 12.0681 71.4903 12.073 72.129 12.0779C72.5628 12.0799 72.9966 12.0817 73.4305 12.0832C74.4923 12.0875 75.5541 12.094 76.6159 12.1022C76.876 12.8519 76.7526 13.1405 76.4137 13.8509C75.5905 14.4775 74.8268 14.5193 73.814 14.5195C73.6637 14.5221 73.5135 14.5246 73.3588 14.5273C72.8814 14.5352 72.4042 14.5394 71.9268 14.543C71.4473 14.5476 70.9678 14.5531 70.4884 14.5609C70.1906 14.5656 69.8929 14.5685 69.5951 14.5693C68.7675 14.5579 68.7675 14.5579 68.1224 15.0166C68.0592 15.6523 68.0592 15.6523 68.0687 16.401C68.0682 16.6058 68.0682 16.6058 68.0676 16.8147C68.0673 17.1034 68.068 17.3922 68.0697 17.6809C68.0719 18.1236 68.0697 18.5661 68.0672 19.0087C68.0674 19.2891 68.0679 19.5694 68.0687 19.8497C68.0692 20.1056 68.0696 20.3616 68.0701 20.6253C68.0554 21.2533 68.0554 21.2533 68.5269 21.6226C69.0263 21.6679 69.5047 21.6905 70.0049 21.6962C70.224 21.7012 70.224 21.7012 70.4476 21.7062C70.9154 21.7166 71.3832 21.7244 71.851 21.7319C72.318 21.7404 72.7851 21.7495 73.2521 21.7596C73.5429 21.7658 73.8337 21.7711 74.1245 21.7752C74.738 21.7874 75.2203 21.8233 75.807 22.0112C75.807 22.1394 75.807 22.2677 75.807 22.3998C76.0072 22.4639 76.2074 22.528 76.4137 22.5941C76.5138 23.2673 76.5138 23.2673 76.6159 23.9541C75.3096 23.9689 74.0034 23.9791 72.697 23.9861C72.2528 23.9891 71.8085 23.993 71.3642 23.9981C70.7252 24.0052 70.0862 24.0085 69.4472 24.011C69.1498 24.0156 69.1498 24.0156 68.8464 24.0202C67.834 24.0204 67.1185 24.0173 66.3024 23.3712C65.1209 22.0739 65.4334 20.2744 65.4227 18.6491C65.4194 18.2774 65.4139 17.9056 65.4061 17.5338C65.395 16.9955 65.3906 16.4575 65.3877 15.919C65.3831 15.7546 65.3785 15.5902 65.3738 15.4209C65.3781 14.2266 65.6753 13.3954 66.5046 12.4908C67.3952 11.9033 68.5616 12.0535 69.6052 12.0643Z" fill="#F4F5F9"/>
<path d="M56.2527 1.04989C56.2527 1.18501 56.2527 1.32013 56.2527 1.45935C56.3706 1.45935 56.4886 1.45935 56.6101 1.45935C57.113 3.45332 57.113 3.45332 56.6101 4.53025C56.2185 5.0469 55.9289 5.30113 55.3382 5.43473C54.5807 5.48878 54.0808 5.41936 53.4827 4.86293C52.8336 4.08218 52.7847 3.59687 52.7951 2.55016C52.9028 1.72384 53.2094 1.39637 53.7507 0.845167C54.5683 0.428903 55.423 0.799327 56.2527 1.04989Z" fill="#F4F5F9"/>
<path d="M62.0261 20.4594C62.598 20.8229 62.7266 20.9747 62.938 21.6847C63.0013 22.4638 63.0353 22.937 62.6644 23.6119C62.0207 24.0624 61.4889 24.0921 60.7495 23.9309C60.2936 23.6374 60.2936 23.6374 60.02 23.1141C59.9629 22.4951 59.9774 21.896 60.02 21.2763C60.2005 21.2089 60.3811 21.1415 60.5671 21.0721C60.5671 20.9373 60.5671 20.8025 60.5671 20.6636C61.0794 20.3768 61.4586 20.4086 62.0261 20.4594Z" fill="#F4F5F9"/>
<path d="M93.4431 13.8364C94.2516 14.3797 94.57 14.653 94.7268 15.5236C94.7266 15.8031 94.7202 16.0827 94.7085 16.3621C94.7069 16.51 94.7053 16.6579 94.7036 16.8103C94.6972 17.2803 94.6827 17.7499 94.668 18.2198C94.6622 18.5394 94.6569 18.859 94.6522 19.1786C94.6396 19.96 94.6197 20.741 94.5959 21.5223C94.2916 21.5223 93.9872 21.5223 93.6736 21.5223C93.5976 22.3466 93.5215 23.1709 93.4431 24.0202C93.2909 24.0202 93.1387 24.0202 92.9819 24.0202C92.9702 22.7551 92.9622 21.4901 92.9566 20.2251C92.9543 19.7949 92.9511 19.3648 92.9471 18.9347C92.9415 18.3156 92.9389 17.6965 92.9369 17.0774C92.9345 16.8858 92.9321 16.6942 92.9297 16.4968C92.9295 15.5314 92.9812 14.7407 93.4431 13.8364Z" fill="#F4F5F9"/>
<path d="M68.7919 14.4354C69.0514 14.4355 69.3108 14.4376 69.5702 14.4412C69.775 14.442 69.775 14.442 69.984 14.4428C70.4208 14.4449 70.8576 14.4495 71.2943 14.4541C71.5902 14.456 71.8861 14.4576 72.182 14.4591C72.9078 14.4632 73.6336 14.4695 74.3595 14.477C74.3595 14.5375 74.3595 14.598 74.3595 14.6603C74.1908 14.6639 74.0221 14.6676 73.8484 14.6713C73.2234 14.6856 72.5986 14.7015 71.9737 14.7184C71.7031 14.7255 71.4325 14.7319 71.1618 14.7376C70.7731 14.746 70.3845 14.7566 69.9959 14.7677C69.7619 14.7734 69.5279 14.7792 69.2868 14.7851C68.7097 14.7857 68.7097 14.7857 68.3654 15.21C68.3086 15.8066 68.3086 15.8066 68.3172 16.5093C68.3168 16.6376 68.3165 16.766 68.3161 16.8982C68.3159 17.1698 68.3165 17.4414 68.3181 17.7129C68.32 18.1284 68.3181 18.5438 68.3157 18.9592C68.316 19.223 68.3165 19.4868 68.3172 19.7506C68.3176 19.9911 68.318 20.2315 68.3184 20.4793C68.3194 21.1012 68.3194 21.1012 68.7287 21.6239C68.5489 21.6239 68.369 21.6239 68.1838 21.6239C67.7401 20.9524 67.7679 20.4468 67.7722 19.6704C67.7719 19.5338 67.7716 19.3971 67.7712 19.2563C67.7709 18.9678 67.7716 18.6793 67.7731 18.3908C67.7751 17.9484 67.7732 17.5061 67.7708 17.0637C67.7711 16.7835 67.7715 16.5032 67.7722 16.223C67.7715 16.0903 67.7708 15.9576 67.77 15.8209C67.7786 14.8961 67.7854 14.5043 68.7919 14.4354Z" fill="#F4F5F9"/>
<path d="M24.6762 18.0297C24.6762 18.3204 24.6762 18.6111 24.6762 18.9106C24.4723 18.9106 24.2685 18.9106 24.0584 18.9106C24.1943 19.2013 24.3303 19.492 24.4703 19.7916C27.2224 19.8788 27.2224 19.8788 30.0301 19.9677C29.6183 20.3201 29.6183 20.3201 29.2313 20.344C29.0016 20.3301 29.0016 20.3301 28.7673 20.316C28.6014 20.3069 28.4355 20.2978 28.2645 20.2885C28.0912 20.2771 27.9179 20.2658 27.7393 20.2541C27.5643 20.2441 27.3894 20.2341 27.2092 20.2238C26.7766 20.1988 26.3441 20.1716 25.9117 20.1439C25.9117 20.2602 25.9117 20.3765 25.9117 20.4963C25.504 20.38 25.0963 20.2637 24.6762 20.1439C24.6082 20.3765 24.5403 20.6091 24.4703 20.8487C24.6529 20.8196 24.8355 20.7905 25.0237 20.7606C26.2037 20.6125 27.3993 20.6587 28.5887 20.6725C28.5207 20.7888 28.4528 20.9051 28.3828 21.0249C26.7519 21.0249 25.121 21.0249 23.4407 21.0249C23.5426 20.7632 23.5426 20.7632 23.6466 20.4963C23.7825 20.4963 23.9184 20.4963 24.0584 20.4963C24.0584 20.2056 24.0584 19.9149 24.0584 19.6154C23.8546 19.5572 23.6507 19.4991 23.4407 19.4392C23.5292 18.9089 23.9225 18.0297 24.6762 18.0297Z" fill="#F4F5F9"/>
<path d="M90.3302 14.4354C90.3905 14.4354 90.4508 14.4354 90.5129 14.4354C90.5174 15.5051 90.5208 16.5747 90.523 17.6444C90.5239 18.0083 90.5251 18.3723 90.5267 18.7362C90.5289 19.2591 90.53 19.782 90.5308 20.305C90.5317 20.4678 90.5327 20.6307 90.5336 20.7985C90.5337 21.4582 90.5225 21.992 90.3302 22.6223C90.2096 22.6223 90.089 22.6223 89.9647 22.6223C89.9233 22.7418 89.8818 22.8612 89.8391 22.9843C89.5322 23.5432 89.2172 23.7368 88.6856 24.0201C88.5047 24.0201 88.3238 24.0201 88.1375 24.0201C88.1375 23.8883 88.1375 23.7565 88.1375 23.6207C88.3184 23.6207 88.4993 23.6207 88.6856 23.6207C88.6856 23.4231 88.6856 23.2254 88.6856 23.0217C88.9005 22.9908 88.9005 22.9908 89.1196 22.9593C89.6597 22.8668 89.6597 22.8668 89.9647 22.223C90.0066 21.6468 90.0285 21.0883 90.034 20.5117C90.0371 20.3446 90.0402 20.1775 90.0434 20.0053C90.0531 19.4716 90.0605 18.9379 90.0675 18.4041C90.0755 17.8689 90.0841 17.3337 90.0936 16.7986C90.0995 16.4655 90.1044 16.1324 90.1083 15.7993C90.127 14.6574 90.127 14.6574 90.3302 14.4354Z" fill="#F4F5F9"/>
<path d="M1.03799 15.0345C1.39345 15.663 1.09316 16.2986 0.941945 16.963C0.521559 18.9444 0.455261 20.6391 1.03799 22.603C1.18288 22.603 1.32777 22.603 1.47706 22.603C1.8338 22.8698 1.8338 22.8698 2.13565 23.1852C2.13565 23.3132 2.13565 23.4413 2.13565 23.5733C2.64277 23.6373 3.14989 23.7014 3.67238 23.7673C3.67238 23.8314 3.67238 23.8954 3.67238 23.9614C2.95599 24.0722 2.50638 24.049 1.89211 23.693C0.844958 22.9127 0.230958 22.3079 0.0995637 21.06C0.0933619 20.3816 0.0892269 19.7034 0.0912562 19.0249C0.0877188 18.7892 0.0841814 18.5534 0.0805369 18.3105C0.0803954 18.0822 0.0802539 17.8539 0.0801081 17.6188C0.0794537 17.4115 0.0787992 17.2043 0.078125 16.9908C0.177819 16.2616 0.43566 15.567 1.03799 15.0345Z" fill="#F4F5F9"/>
<path d="M80.382 14.4354C80.569 14.4972 80.7561 14.559 80.9488 14.6226C80.8553 14.808 80.7618 14.9933 80.6654 15.1842C80.6418 15.5845 80.635 15.9852 80.6377 16.3857C80.6386 16.6204 80.6395 16.855 80.6405 17.0968C80.6428 17.3421 80.6452 17.5874 80.6477 17.8401C80.6491 18.0901 80.6504 18.3401 80.6515 18.59C80.6549 19.202 80.6596 19.8139 80.6654 20.4259C80.3848 20.3641 80.1042 20.3023 79.8151 20.2387C79.8011 19.4724 79.7908 18.7061 79.7839 17.9398C79.7811 17.679 79.7772 17.4183 79.7723 17.1575C79.7655 16.783 79.7625 16.4085 79.7597 16.0339C79.7568 15.8085 79.7538 15.583 79.7507 15.3507C79.8151 14.8098 79.8151 14.8098 80.382 14.4354Z" fill="#F4F5F9"/>
<path d="M25.6649 11.4402C25.9441 12.2526 25.8382 12.938 25.6649 13.7702C25.4121 14.1806 25.4121 14.1806 25.0583 14.4056C24.5528 14.4453 24.5528 14.4453 24.0473 14.4056C23.8471 14.4056 23.6469 14.4056 23.4407 14.4056C23.6983 13.9739 23.9685 13.5502 24.2495 13.1347C24.3829 13.1347 24.5164 13.1347 24.6539 13.1347C24.7081 13.0124 24.7623 12.8901 24.8182 12.764C25.0618 12.2805 25.343 11.8694 25.6649 11.4402Z" fill="#F4F5F9"/>
<path d="M52.7994 2.45459C52.8615 2.45459 52.9235 2.45459 52.9874 2.45459C53.0455 2.66434 53.1037 2.87408 53.1636 3.09019C53.3396 3.75028 53.3396 3.75028 53.5512 4.2232C53.7373 4.2232 53.9234 4.2232 54.1151 4.2232C54.1771 4.36911 54.2391 4.51502 54.303 4.66536C54.7372 4.66536 55.1714 4.66536 55.6187 4.66536C55.6807 4.51945 55.7428 4.37353 55.8067 4.2232C56.0548 4.2232 56.3029 4.2232 56.5585 4.2232C56.5585 3.78547 56.5585 3.34774 56.5585 2.89674C56.6825 2.89674 56.8066 2.89674 56.9344 2.89674C57.0049 3.49089 57.0049 3.49089 56.9344 4.2232C56.4429 4.90501 56.1349 5.24325 55.3948 5.43567C54.6029 5.49241 54.0819 5.39699 53.4573 4.80353C52.7834 3.97127 52.7786 3.58203 52.7994 2.45459Z" fill="#F4F5F9"/>
<path d="M66.4283 12.6383C66.6177 13.2251 66.6177 13.2251 66.4401 13.653C66.3405 13.8285 66.3405 13.8285 66.2388 14.0075C66.1138 14.0075 65.9888 14.0075 65.86 14.0075C65.86 16.7186 65.86 19.4297 65.86 22.223C65.7349 22.223 65.6099 22.223 65.4811 22.223C65.4576 21.1095 65.4404 19.9962 65.4291 18.8825C65.4243 18.5042 65.4179 18.1259 65.4096 17.7476C65.3981 17.2018 65.3928 16.6562 65.3886 16.1103C65.3837 15.943 65.3788 15.7756 65.3738 15.6032C65.3732 14.369 65.7051 13.6144 66.4283 12.6383Z" fill="#F4F5F9"/>
<path d="M0.083101 6.68407C0.495142 6.6741 0.907288 6.66692 1.31945 6.66095C1.54895 6.65666 1.77844 6.65237 2.0149 6.64795C2.6133 6.68407 2.6133 6.68407 3.07334 7.05396C2.84332 7.2389 2.84332 7.2389 2.36801 7.25696C2.17854 7.25482 1.98907 7.25267 1.79386 7.25046C1.6038 7.24879 1.41374 7.24712 1.21792 7.2454C1.07115 7.24326 0.924375 7.24111 0.773156 7.2389C1.0188 8.07127 1.26548 8.85705 1.69323 9.64316C0.813266 9.01012 0.348421 8.53967 0.083101 7.60879C0.0769724 7.30059 0.0759789 6.99226 0.083101 6.68407Z" fill="#F4F5F9"/>
<path d="M11.2603 16.2325C11.5239 16.289 11.7875 16.3455 12.059 16.4037C11.2424 17.0788 10.7016 17.1758 9.57941 17.1866C9.43994 17.189 9.30047 17.1914 9.15678 17.1939C8.71392 17.2011 8.27123 17.2037 7.8283 17.206C7.38331 17.211 6.93837 17.2169 6.49341 17.2235C6.09127 17.2291 5.68908 17.2322 5.2869 17.2352C4.68844 17.223 4.68844 17.223 4.27148 17.4306C4.27148 17.2612 4.27148 17.0917 4.27148 16.9172C4.45586 16.9129 4.64024 16.9086 4.83021 16.9042C5.51459 16.8879 6.19894 16.8709 6.88328 16.8534C7.17941 16.846 7.47555 16.8389 7.7717 16.832C8.1975 16.8221 8.62325 16.8113 9.04901 16.8002C9.3052 16.7939 9.5614 16.7876 9.82535 16.7812C10.4658 16.769 10.4658 16.769 11.0606 16.5749C11.1265 16.4619 11.1924 16.3489 11.2603 16.2325Z" fill="#F4F5F9"/>
<path d="M78.5527 21.624C78.6618 21.7521 78.7708 21.8801 78.8831 22.012C79.2396 22.4357 79.2396 22.4357 79.6099 22.7677C79.668 22.6598 79.7262 22.552 79.7861 22.4409C80.3675 22.4409 80.9489 22.4409 81.5479 22.4409C81.3735 22.6835 81.3735 22.6835 81.1956 22.931C80.8528 22.9789 80.8528 22.9789 80.4688 22.9617C80.2435 22.9516 80.0182 22.9414 79.7861 22.931C79.7279 23.0928 79.6698 23.2545 79.6099 23.4212C78.9044 22.8508 78.6185 22.4982 78.5527 21.624Z" fill="#F4F5F9"/>
<path d="M45.6055 18.0297C46.6004 18.9707 47.5532 19.9456 48.4824 20.968C48.6151 21.1092 48.7479 21.2504 48.8847 21.3959C49.009 21.5332 49.1334 21.6706 49.2615 21.8121C49.3745 21.9348 49.4875 22.0576 49.6039 22.1841C49.8249 22.5584 49.8249 22.5584 49.7642 23.0364C49.7209 23.1633 49.6777 23.2903 49.6331 23.421C49.6133 23.2832 49.5935 23.1453 49.5732 23.0032C49.5297 22.8564 49.4861 22.7097 49.4413 22.5584C49.2514 22.4873 49.0616 22.4161 48.8659 22.3428C48.5835 22.0201 48.5835 22.0201 48.2786 21.6015C47.5616 20.6448 46.7789 19.7814 45.9778 18.9142C45.6055 18.461 45.6055 18.461 45.6055 18.0297Z" fill="#F4F5F9"/>
<path d="M31.2283 20.4259C31.6758 20.5056 31.8957 20.5719 32.2076 20.9685C32.7558 22.0082 32.9697 22.7965 33.0254 24.0202C32.9068 24.0202 32.7882 24.0202 32.666 24.0202C32.6067 23.5318 32.5474 23.0434 32.4863 22.5402C32.3083 22.4704 32.1304 22.4006 31.9471 22.3287C31.8878 21.9101 31.8285 21.4915 31.7674 21.0602C31.5895 20.9904 31.4116 20.9206 31.2283 20.8488C31.2283 20.7092 31.2283 20.5697 31.2283 20.4259Z" fill="#F4F5F9"/>
<path d="M56.4314 19.2278C56.5133 19.2278 56.5953 19.2278 56.6797 19.2278C57.1165 21.6657 57.1165 21.6657 56.4935 22.4082C55.9348 22.822 55.9348 22.822 55.1899 22.822C55.4357 22.5411 55.4357 22.5411 55.6865 22.2545C55.8504 22.2545 56.0143 22.2545 56.1831 22.2545C56.1802 22.0519 56.1773 21.8492 56.1744 21.6405C56.172 21.3762 56.1698 21.1119 56.1676 20.8476C56.1645 20.6469 56.1645 20.6469 56.1613 20.4422C56.1591 20.1004 56.1701 19.7586 56.1831 19.417C56.265 19.3545 56.347 19.2921 56.4314 19.2278Z" fill="#F4F5F9"/>
<path d="M1.08893 15.0345C1.48935 15.6747 1.1476 16.3648 0.985391 17.0445C0.95046 17.1962 0.915529 17.3478 0.879539 17.5041C0.792947 17.8792 0.704454 18.254 0.615603 18.6288C0.459405 18.5664 0.303206 18.5039 0.142274 18.4396C0.0104576 16.2465 0.0104576 16.2465 0.852267 15.2237C0.930367 15.1613 1.00847 15.0989 1.08893 15.0345Z" fill="#F4F5F9"/>
<path d="M103.327 13.8364C103.963 13.8364 104.598 13.8364 105.253 13.8364C105.253 13.9353 105.253 14.0341 105.253 14.1359C105.535 14.2348 105.818 14.3336 106.109 14.4355C105.12 14.4355 104.132 14.4355 103.114 14.4355C103.184 14.2378 103.255 14.0401 103.327 13.8364Z" fill="#F4F5F9"/>
<path d="M62.0561 20.4612C62.4824 20.6758 62.4824 20.6758 62.7934 21.105C62.9103 21.6852 62.944 22.2232 62.9777 22.8221C62.7062 22.2318 62.5678 21.7712 62.4248 21.105C61.8165 21.105 61.2082 21.105 60.5815 21.105C60.5815 20.9634 60.5815 20.8217 60.5815 20.6758C61.0993 20.3743 61.4825 20.4077 62.0561 20.4612Z" fill="#F4F5F9"/>
<path d="M37.2187 0.657471C37.2187 0.78926 37.2187 0.92105 37.2187 1.05683C36.7929 1.18862 36.3671 1.32041 35.9284 1.45619C35.8676 1.78567 35.8068 2.11514 35.7441 2.4546C35.6225 2.4546 35.5008 2.4546 35.3755 2.4546C35.3146 2.65228 35.2538 2.84997 35.1912 3.05364C35.0695 3.05364 34.9478 3.05364 34.8225 3.05364C35.0662 1.91829 35.4497 1.51288 36.2971 0.857152C36.85 0.657471 36.85 0.657471 37.2187 0.657471Z" fill="#F4F5F9"/>
<path d="M32.5761 7.84595C32.7244 7.84595 32.8726 7.84595 33.0254 7.84595C32.9173 8.99886 32.5346 9.83449 31.9022 10.8412C31.6798 10.8412 31.4574 10.8412 31.2283 10.8412C31.3765 10.6435 31.5248 10.4458 31.6776 10.2421C31.7652 9.84481 31.842 9.44535 31.9022 9.04403C32.1246 9.04403 32.347 9.04403 32.5761 9.04403C32.5761 8.64866 32.5761 8.2533 32.5761 7.84595Z" fill="#F4F5F9"/>
<path d="M89.7848 22.223C89.8342 22.4009 89.8837 22.5789 89.9346 22.7622C89.8357 22.7622 89.7369 22.7622 89.6351 22.7622C89.6011 22.8697 89.5671 22.9771 89.5321 23.0879C89.2806 23.591 89.0224 23.7651 88.5867 24.0202C88.4385 24.0202 88.2902 24.0202 88.1375 24.0202C88.1375 23.9015 88.1375 23.7829 88.1375 23.6607C88.2857 23.6607 88.434 23.6607 88.5867 23.6607C88.5867 23.4828 88.5867 23.3049 88.5867 23.1216C88.7582 23.0993 88.7582 23.0993 88.9331 23.0767C89.414 22.9156 89.5293 22.7233 89.7848 22.223Z" fill="#F4F5F9"/>
<path d="M23.0415 15.0345C23.1733 15.14 23.3051 15.2454 23.4408 15.354C23.2988 15.4578 23.2988 15.4578 23.1538 15.5637C22.7945 15.837 22.7945 15.837 22.6421 16.3125C22.4444 16.3916 22.4444 16.3916 22.2428 16.4722C22.1851 16.604 22.1274 16.7358 22.068 16.8716C21.8434 17.271 21.8434 17.271 21.4191 17.4008C21.2955 17.4106 21.172 17.4205 21.0447 17.4307C21.6262 16.5719 22.2914 15.8046 23.0415 15.0345Z" fill="#F4F5F9"/>
<path d="M54.2831 7.84595C54.4354 7.86572 54.4354 7.86572 54.5909 7.88588C54.3748 8.15886 54.1525 8.42494 53.9253 8.68461C53.8374 8.68461 53.7496 8.68461 53.6591 8.68461C53.6591 9.0009 53.6591 9.3172 53.6591 9.64308C53.5712 9.64308 53.4833 9.64308 53.3928 9.64308C53.5301 7.93 53.5301 7.93 54.2831 7.84595Z" fill="#F4F5F9"/>
<path d="M24.6389 19.8269C26.4181 19.8269 28.1972 19.8269 30.0303 19.8269C29.6156 20.2263 29.6156 20.2263 29.2259 20.2533C28.9946 20.2376 28.9946 20.2376 28.7586 20.2216C28.5915 20.2113 28.4245 20.201 28.2523 20.1904C28.0778 20.1775 27.9032 20.1646 27.7234 20.1514C27.5473 20.1401 27.3711 20.1287 27.1896 20.1171C26.754 20.0888 26.3185 20.0579 25.8831 20.0266C25.8831 20.1584 25.8831 20.2902 25.8831 20.4259C25.4725 20.2942 25.0619 20.1624 24.6389 20.0266C24.6389 19.9607 24.6389 19.8948 24.6389 19.8269Z" fill="#F4F5F9"/>
<path d="M18.244 21.0249C18.3951 21.0249 18.5462 21.0249 18.7018 21.0249C18.6886 21.1719 18.6753 21.3189 18.6616 21.4703C18.6305 22.0514 18.6173 22.5874 18.7018 23.1643C19.233 23.6415 19.233 23.6415 19.8464 23.8062C19.4315 23.9533 19.4315 23.9533 18.9308 24.0201C18.5445 23.8062 18.5445 23.8062 18.244 23.3783C18.0478 22.5378 17.9279 21.8455 18.244 21.0249Z" fill="#F4F5F9"/>
<path d="M75.5575 12.6383C75.7552 12.6383 75.9529 12.6383 76.1566 12.6383C76.1285 13.2336 76.1285 13.2336 76.0068 13.8963C75.6448 14.2417 75.425 14.4354 74.9585 14.4354C74.9585 14.3168 74.9585 14.1982 74.9585 14.076C75.1068 14.076 75.255 14.076 75.4078 14.076C75.4078 13.9574 75.4078 13.8388 75.4078 13.7166C75.5066 13.7166 75.6055 13.7166 75.7073 13.7166C75.6579 13.3608 75.6085 13.0049 75.5575 12.6383Z" fill="#F4F5F9"/>
<path d="M25.163 18.0297C25.2371 18.1615 25.3113 18.2932 25.3876 18.429C25.5359 18.4949 25.6842 18.5608 25.8369 18.6287C25.6887 18.6287 25.5404 18.6287 25.3876 18.6287C25.2834 18.814 25.2834 18.814 25.177 19.0031C25.0226 19.2777 24.8682 19.5522 24.7137 19.8268C24.4913 19.7609 24.2689 19.695 24.0398 19.6271C24.0398 19.4294 24.0398 19.2317 24.0398 19.0281C24.2622 19.0281 24.4846 19.0281 24.7137 19.0281C24.7137 18.7645 24.7137 18.5009 24.7137 18.2293C24.862 18.1634 25.0102 18.0976 25.163 18.0297Z" fill="#F4F5F9"/>
<path d="M107.307 12.6383C108.04 12.7071 108.262 12.8085 108.767 13.4386C108.934 13.7096 108.934 13.7096 109.104 13.9862C109.038 14.1344 108.972 14.2827 108.904 14.4354C108.505 14.2108 108.505 14.2108 108.305 13.5369C108.116 13.5461 107.926 13.5554 107.731 13.5649C107.107 13.5369 107.107 13.5369 106.708 13.0876C106.905 13.0876 107.103 13.0876 107.307 13.0876C107.307 12.9393 107.307 12.7911 107.307 12.6383Z" fill="#F4F5F9"/>
<path d="M40.2141 18.0297C41.0461 18.3008 41.0461 18.3008 41.3654 18.9157C41.4303 19.0846 41.4951 19.2535 41.562 19.4274C41.7989 19.7772 41.7989 19.7772 42.0112 20.0265C41.9618 20.1583 41.9124 20.2901 41.8615 20.4258C41.5865 20.0645 41.312 19.7025 41.0378 19.3401C40.9592 19.237 40.8807 19.1339 40.7997 19.0277C40.6017 18.7653 40.4075 18.4977 40.2141 18.2293C40.2141 18.1634 40.2141 18.0976 40.2141 18.0297Z" fill="#F4F5F9"/>
<path d="M27.694 15.0345C27.8719 15.0345 28.0499 15.0345 28.2332 15.0345C28.0168 15.4419 27.7921 15.7994 27.5143 16.1782C27.3957 16.1782 27.2771 16.1782 27.1549 16.1782C27.1549 16.3399 27.1549 16.5017 27.1549 16.6683C26.977 16.7222 26.7991 16.7761 26.6157 16.8317C26.5564 16.5621 26.4971 16.2925 26.436 16.0148C26.4953 16.1226 26.5546 16.2305 26.6157 16.3415C26.7344 16.3415 26.853 16.3415 26.9752 16.3415C26.9752 16.2337 26.9752 16.1259 26.9752 16.0148C27.0938 16.0148 27.2124 16.0148 27.3346 16.0148C27.4532 15.6913 27.5718 15.3678 27.694 15.0345Z" fill="#F4F5F9"/>
<path d="M29.0034 12.6383C29.3423 12.6383 29.6812 12.6383 30.0304 12.6383C29.9739 12.836 29.9174 13.0337 29.8592 13.2373C29.7462 13.2373 29.6333 13.2373 29.5169 13.2373C29.5169 13.3856 29.5169 13.5339 29.5169 13.6866C29.3475 13.7361 29.178 13.7855 29.0034 13.8364C29.0599 13.6881 29.1164 13.5399 29.1746 13.3871C29.0616 13.2883 28.9487 13.1894 28.8323 13.0876C28.8888 12.9393 28.9452 12.7911 29.0034 12.6383Z" fill="#F4F5F9"/>
<path d="M65.9729 22.223C66.5289 22.4207 66.5289 22.4207 67.0961 22.6224C67.022 22.8201 66.9478 23.0178 66.8715 23.2214C67.168 23.485 67.4645 23.7486 67.77 24.0202C67.0658 23.9531 66.8658 23.8151 66.366 23.3462C65.9729 22.8221 65.9729 22.8221 65.9729 22.223Z" fill="#F4F5F9"/>
<path d="M45.0064 12.8476C44.8087 12.9225 44.611 12.9973 44.4073 13.0745C44.3414 13.299 44.2755 13.5236 44.2076 13.755C44.0758 13.755 43.9441 13.755 43.8083 13.755C43.7424 13.9795 43.6765 14.2041 43.6086 14.4354C43.4768 14.3606 43.345 14.2857 43.2092 14.2086C43.359 13.5423 43.359 13.5423 43.6086 12.8476C44.1891 12.5286 44.3828 12.6115 45.0064 12.8476Z" fill="#F4F5F9"/>
<path d="M68.6934 12.064C68.905 12.066 68.905 12.066 69.1208 12.068C69.4692 12.0714 69.8176 12.0766 70.166 12.0821C70.166 12.1774 70.166 12.2727 70.166 12.3709C69.3094 12.3709 68.4528 12.3709 67.5702 12.3709C67.5702 12.5615 67.5702 12.7522 67.5702 12.9486C67.2407 13.0439 66.9112 13.1392 66.5718 13.2374C66.6377 12.9515 66.7036 12.6655 66.7715 12.3709C67.3835 11.9282 68.023 12.0524 68.6934 12.064Z" fill="#F4F5F9"/>
<path d="M95.3259 12.0393C95.3259 12.2935 95.3259 12.5476 95.3259 12.8095C95.1468 12.8492 95.1468 12.8492 94.964 12.8897C94.4676 13.0903 94.2817 13.3612 93.9282 13.8364C93.7964 13.8364 93.6646 13.8364 93.5288 13.8364C93.5947 13.5823 93.6606 13.3281 93.7285 13.0662C93.8603 13.0662 93.9921 13.0662 94.1279 13.0662C94.1937 12.8121 94.2596 12.5579 94.3275 12.296C94.9266 12.0393 94.9266 12.0393 95.3259 12.0393Z" fill="#F4F5F9"/>
<path d="M66.4765 12.6383C66.6024 13.1284 66.6024 13.1284 66.4844 13.4858C66.4182 13.6324 66.4182 13.6324 66.3506 13.7819C66.2675 13.7819 66.1844 13.7819 66.0988 13.7819C66.0573 13.9976 66.0157 14.2132 65.9729 14.4354C66.0281 13.6909 66.08 13.1976 66.4765 12.6383Z" fill="#F4F5F9"/>
<path d="M101.316 12.6383C101.909 12.6383 102.503 12.6383 103.114 12.6383C102.574 13.2021 102.574 13.2021 101.912 13.2373C101.617 13.2199 101.617 13.2199 101.316 13.2021C101.316 13.0161 101.316 12.83 101.316 12.6383Z" fill="#F4F5F9"/>
<path d="M55.1899 0.657471C55.7459 0.784553 55.7459 0.784553 56.3131 0.914203C56.3131 1.08365 56.3131 1.25309 56.3131 1.42767C56.4614 1.42767 56.6097 1.42767 56.7624 1.42767C56.8366 1.76656 56.9107 2.10544 56.9871 2.4546C56.8388 2.4546 56.6905 2.4546 56.5378 2.4546C56.5378 2.20043 56.5378 1.94627 56.5378 1.6844C56.1671 1.6844 55.7965 1.6844 55.4146 1.6844C55.3405 1.34551 55.2663 1.00663 55.1899 0.657471Z" fill="#F4F5F9"/>
<path d="M48.0015 6.64795C48.9183 6.96963 49.4257 7.1906 49.7986 7.84603C49.5444 7.84603 49.2903 7.84603 49.0284 7.84603C49.1131 7.73307 49.1978 7.62011 49.2851 7.50372C49.031 7.56021 48.7768 7.61669 48.5149 7.67488C48.3455 7.33599 48.176 6.99711 48.0015 6.64795Z" fill="#F4F5F9"/>
<path d="M55.0702 6.64795C55.3074 6.8061 55.5447 6.96424 55.7891 7.12718C55.6094 7.3668 55.6094 7.3668 55.1488 7.38178C54.932 7.37436 54.932 7.37436 54.7108 7.3668C54.7108 7.52495 54.7108 7.6831 54.7108 7.84603C54.4736 7.76696 54.2364 7.68789 53.9919 7.60642C54.3478 7.29012 54.7036 6.97383 55.0702 6.64795Z" fill="#F4F5F9"/>
<path d="M12.658 22.822C12.7692 22.9011 12.8804 22.9802 12.9949 23.0616C13.5172 23.3326 13.8921 23.3388 14.4551 23.3013C14.3892 23.5385 14.3233 23.7757 14.2554 24.0201C13.6813 23.9602 13.6813 23.9602 13.0573 23.7805C12.7828 23.2863 12.7828 23.2863 12.658 22.822Z" fill="#F4F5F9"/>
<path d="M100.46 22.223C100.517 22.5195 100.573 22.8161 100.632 23.1216C100.745 23.1216 100.858 23.1216 100.974 23.1216C100.974 23.2698 100.974 23.4181 100.974 23.5709C101.087 23.5709 101.2 23.5709 101.316 23.5709C101.316 23.7191 101.316 23.8674 101.316 24.0202C101.006 23.9921 101.006 23.9921 100.632 23.7955C100.332 23.1075 100.332 23.1075 100.118 22.4477C100.231 22.3735 100.344 22.2994 100.46 22.223Z" fill="#F4F5F9"/>
<path d="M78.4671 21.0249C79.4099 21.5784 79.6398 21.9681 79.7507 22.822C79.0115 22.3546 78.668 22.0641 78.4671 21.3843C78.2976 21.325 78.1282 21.2657 77.9536 21.2046C78.1231 21.1453 78.2925 21.086 78.4671 21.0249Z" fill="#F4F5F9"/>
<path d="M105.51 13.8364C106.103 13.8364 106.696 13.8364 107.307 13.8364C107.307 14.1659 107.307 14.4954 107.307 14.8348C107.053 14.9337 107.053 14.9337 106.793 15.0345C106.709 14.8368 106.624 14.6391 106.537 14.4355C106.024 14.0989 106.024 14.0989 105.51 13.8364Z" fill="#F4F5F9"/>
<path d="M25.8369 12.6383C25.7522 12.9546 25.6675 13.2709 25.5802 13.5968C25.0988 13.7465 25.0988 13.7465 24.5533 13.8364C24.3838 13.6782 24.2144 13.5201 24.0398 13.3572C25.2593 12.6383 25.2593 12.6383 25.8369 12.6383Z" fill="#F4F5F9"/>
<path d="M78.5527 21.624C79.1004 22.1991 79.4773 22.7032 79.7508 23.4212C79.1518 23.2414 79.1518 23.2414 78.8148 22.7248C78.5527 22.1632 78.5527 22.1632 78.5527 21.624Z" fill="#F4F5F9"/>
<path d="M54.5054 0.657471C54.7313 0.706892 54.9573 0.756313 55.19 0.807231C55.19 0.955495 55.19 1.10376 55.19 1.25651C54.7947 1.25651 54.3993 1.25651 53.9919 1.25651C54.1614 1.05883 54.3308 0.861145 54.5054 0.657471Z" fill="#F4F5F9"/>
<path d="M12.0591 6.65867C13.4519 6.63416 13.4519 6.63416 13.8562 6.85478C13.8562 6.98421 13.8562 7.11364 13.8562 7.24699C13.2632 7.11756 12.6701 6.98813 12.0591 6.85478C12.0591 6.79006 12.0591 6.72535 12.0591 6.65867Z" fill="#F4F5F9"/>
<path d="M31.8103 10.6171C31.5036 11.2962 26.7616 17.4393 24.4289 20.4259C22.6395 20.4259 19.099 20.275 19.2524 19.6714C19.4058 19.0678 23.9816 13.3837 26.2503 10.6171C28.2315 10.3342 32.1171 9.93807 31.8103 10.6171Z" fill="#F4F5F9"/>
<path d="M49.1997 8.42533L42.1579 15.6336L39.615 13.2638C40.6582 11.9143 42.8816 9.05729 43.4293 8.42533C43.977 7.79337 45.0268 6.97709 45.4832 6.64795L49.1997 8.42533Z" fill="#F4F5F9"/>
<path d="M36.2112 24.0202C37.2195 24.0202 38.1017 22.4827 38.4168 21.7139L35.581 19.8269C35.3709 21.2247 35.2029 24.0202 36.2112 24.0202Z" fill="#F4F5F9"/>
<circle cx="55.1901" cy="3.05364" r="2.39617" fill="#F4F5F9"/>
<path d="M90.5308 21.5271C90.4599 23.5216 88.9057 24.0202 88.1375 24.0202L88.6693 21.5271C89.3194 20.6961 90.6017 19.5327 90.5308 21.5271Z" fill="#F4F5F9"/>
<path d="M96.8848 12.0782C93.4797 11.6628 92.8361 14.6747 92.9399 16.2326L94.7042 15.4017C96.8498 14.467 100.29 12.4937 96.8848 12.0782Z" fill="#F4F5F9"/>
</svg>
