<svg width="14" height="14" viewBox="0 0 14 14" fill="none" xmlns="http://www.w3.org/2000/svg">
<g clip-path="url(#clip0_35_1993)">
<path d="M13.8292 13.0046L10.3473 9.5227C11.2961 8.36221 11.7627 6.88141 11.6504 5.38661C11.538 3.8918 10.8555 2.49734 9.74388 1.49166C8.63226 0.485992 7.17663 -0.0539518 5.67807 -0.0164832C4.17952 0.0209854 2.75269 0.633 1.69272 1.69297C0.632756 2.75294 0.0207412 4.17976 -0.0167273 5.67832C-0.0541959 7.17687 0.485748 8.6325 1.49142 9.74412C2.49709 10.8557 3.89155 11.5383 5.38636 11.6506C6.88117 11.7629 8.36196 11.2964 9.52245 10.3475L13.0044 13.8294C13.1144 13.9357 13.2617 13.9945 13.4147 13.9932C13.5676 13.9918 13.7139 13.9305 13.8221 13.8223C13.9303 13.7142 13.9916 13.5679 13.9929 13.4149C13.9943 13.262 13.9355 13.1146 13.8292 13.0046ZM5.83345 10.5004C4.91047 10.5004 4.00822 10.2267 3.24079 9.71389C2.47336 9.20111 1.87522 8.47227 1.52201 7.61955C1.1688 6.76683 1.07639 5.82852 1.25645 4.92327C1.43652 4.01803 1.88097 3.18651 2.53362 2.53386C3.18626 1.88122 4.01778 1.43676 4.92303 1.2567C5.82827 1.07663 6.76658 1.16905 7.61931 1.52226C8.47203 1.87547 9.20086 2.4736 9.71364 3.24103C10.2264 4.00846 10.5001 4.91072 10.5001 5.83369C10.4987 7.07095 10.0066 8.25712 9.13175 9.13199C8.25688 10.0069 7.0707 10.499 5.83345 10.5004Z" fill="white"/>
</g>
<defs>
<clipPath id="clip0_35_1993">
<rect width="14" height="14" fill="white"/>
</clipPath>
</defs>
</svg>
