<svg width="17" height="16" viewBox="0 0 17 16" fill="none" xmlns="http://www.w3.org/2000/svg">
<g clip-path="url(#clip0_35_3254)">
<path d="M8.49965 10.6656C9.97185 10.6656 11.1653 9.4721 11.1653 7.99989C11.1653 6.52769 9.97185 5.33423 8.49965 5.33423C7.02744 5.33423 5.83398 6.52769 5.83398 7.99989C5.83398 9.4721 7.02744 10.6656 8.49965 10.6656Z" fill="white"/>
<path d="M16.0112 6.28001C14.9776 4.59663 12.6265 1.77234 8.49998 1.77234C4.37352 1.77234 2.02239 4.59663 0.988772 6.28001C0.337076 7.33409 0.337076 8.66597 0.988772 9.72008C2.02239 11.4035 4.37352 14.2277 8.49998 14.2277C12.6265 14.2277 14.9776 11.4035 16.0112 9.72008C16.6629 8.66597 16.6629 7.33409 16.0112 6.28001ZM8.49998 11.9985C6.29168 11.9985 4.50147 10.2083 4.50147 8.00003C4.50147 5.79172 6.29168 4.00151 8.49998 4.00151C10.7083 4.00151 12.4985 5.79172 12.4985 8.00003C12.4963 10.2074 10.7074 11.9963 8.49998 11.9985Z" fill="white"/>
</g>
<defs>
<clipPath id="clip0_35_3254">
<rect width="16" height="16" fill="white" transform="translate(0.5)"/>
</clipPath>
</defs>
</svg>
