<svg width="18" height="19" viewBox="0 0 18 19" fill="none" xmlns="http://www.w3.org/2000/svg">
<path d="M12.375 5.66113V5.66863M3 6.03613C3 5.24048 3.31607 4.47742 3.87868 3.91481C4.44129 3.3522 5.20435 3.03613 6 3.03613H12C12.7956 3.03613 13.5587 3.3522 14.1213 3.91481C14.6839 4.47742 15 5.24048 15 6.03613V12.0361C15 12.8318 14.6839 13.5948 14.1213 14.1575C13.5587 14.7201 12.7956 15.0361 12 15.0361H6C5.20435 15.0361 4.44129 14.7201 3.87868 14.1575C3.31607 13.5948 3 12.8318 3 12.0361V6.03613ZM6.75 9.03613C6.75 9.63287 6.98705 10.2052 7.40901 10.6271C7.83097 11.0491 8.40326 11.2861 9 11.2861C9.59674 11.2861 10.169 11.0491 10.591 10.6271C11.0129 10.2052 11.25 9.63287 11.25 9.03613C11.25 8.4394 11.0129 7.8671 10.591 7.44514C10.169 7.02319 9.59674 6.78613 9 6.78613C8.40326 6.78613 7.83097 7.02319 7.40901 7.44514C6.98705 7.8671 6.75 8.4394 6.75 9.03613Z" stroke="white" stroke-linecap="round" stroke-linejoin="round"/>
</svg>
