<svg width="18" height="19" viewBox="0 0 18 19" fill="none" xmlns="http://www.w3.org/2000/svg">
<path d="M6 8.28613V12.0361M6 6.03613V6.04363M9 12.0361V8.28613M12 12.0361V9.78613C12 9.38831 11.842 9.00678 11.5607 8.72547C11.2794 8.44417 10.8978 8.28613 10.5 8.28613C10.1022 8.28613 9.72064 8.44417 9.43934 8.72547C9.15804 9.00678 9 9.38831 9 9.78613M3 4.53613C3 4.13831 3.15804 3.75678 3.43934 3.47547C3.72064 3.19417 4.10218 3.03613 4.5 3.03613H13.5C13.8978 3.03613 14.2794 3.19417 14.5607 3.47547C14.842 3.75678 15 4.13831 15 4.53613V13.5361C15 13.934 14.842 14.3155 14.5607 14.5968C14.2794 14.8781 13.8978 15.0361 13.5 15.0361H4.5C4.10218 15.0361 3.72064 14.8781 3.43934 14.5968C3.15804 14.3155 3 13.934 3 13.5361V4.53613Z" stroke="white" stroke-linecap="round" stroke-linejoin="round"/>
</svg>
