<svg width="20" height="21" viewBox="0 0 20 21" fill="none" xmlns="http://www.w3.org/2000/svg">
<path d="M7.50016 9.66667C7.50016 10.3297 7.76355 10.9656 8.2324 11.4344C8.70124 11.9033 9.33712 12.1667 10.0002 12.1667C10.6632 12.1667 11.2991 11.9033 11.7679 11.4344C12.2368 10.9656 12.5002 10.3297 12.5002 9.66667C12.5002 9.00363 12.2368 8.36774 11.7679 7.8989C11.2991 7.43006 10.6632 7.16667 10.0002 7.16667C9.33712 7.16667 8.70124 7.43006 8.2324 7.8989C7.76355 8.36774 7.50016 9.00363 7.50016 9.66667Z" stroke="#0BC2EB" stroke-width="1.5" stroke-linecap="round" stroke-linejoin="round"/>
<path d="M14.7143 14.3808L11.1785 17.9167C10.866 18.2289 10.4423 18.4042 10.0006 18.4042C9.55885 18.4042 9.13518 18.2289 8.82267 17.9167L5.286 14.3808C4.35368 13.4485 3.71878 12.2606 3.46157 10.9674C3.20437 9.67419 3.33641 8.33376 3.841 7.11561C4.3456 5.89745 5.20008 4.85628 6.2964 4.12376C7.39272 3.39123 8.68164 3.00024 10.0002 3.00024C11.3187 3.00024 12.6076 3.39123 13.7039 4.12376C14.8003 4.85628 15.6547 5.89745 16.1593 7.11561C16.6639 8.33376 16.796 9.67419 16.5388 10.9674C16.2816 12.2606 15.6466 13.4485 14.7143 14.3808Z" stroke="#0BC2EB" stroke-width="1.5" stroke-linecap="round" stroke-linejoin="round"/>
</svg>
