<svg width="158" height="29" viewBox="0 0 158 29" fill="none" xmlns="http://www.w3.org/2000/svg">
<path fill-rule="evenodd" clip-rule="evenodd" d="M2.32803 4.08866L11.1774 9.1976L7.5204 11.3091L6.79952 11.7253V14.4138C14.1005 10.1981 21.4017 5.983 28.7032 1.76761L28.9105 1.64785C26.8929 1.10719 25.0537 0.675243 22.9097 0.0331376L23.6286 2.00887L13.5057 7.85322L2.63063 1.5746L0 0V0.0558077V2.74428V24.7523H2.32803V24.7407H9.13046V22.7684V20.08L9.12726 20.0817V17.9092L27.6207 7.23204L30.1202 5.78883L32.6198 4.34562L33.0459 2.75562L31.4556 2.32949L26.4568 5.21562L7.5204 16.1486L6.79952 16.5648V17.6249V19.2533V21.4258V22.4124H2.32832V4.08837L2.32803 4.08866ZM11.4585 21.4246L17.9185 17.695V22.4129V24.741V24.7526H20.2465V24.741H24.718V24.7526H27.046V24.741V22.4129V12.4253L29.075 11.2539L30.3839 12.8136C30.8847 10.7004 31.4024 8.89007 31.9312 6.91637C25.1093 10.8582 18.2845 14.7955 11.4585 18.7362V21.4246ZM24.718 13.7694V22.4129H20.2465V16.3509L24.718 13.7694Z" fill="url(#paint0_linear_42_1406)"/>
<path d="M45.1833 9.07874L48.3043 3.56982H48.3354V11.9968H49.6617V1.229H48.2729L44.7772 7.42449L41.2815 1.229H39.8926V11.9968H41.219V3.56982H41.2501L44.3711 9.07874H45.1827H45.1833ZM56.9342 9.00055C56.9342 10.0618 55.8104 11.1542 54.2812 11.1542C53.4071 11.1542 52.8298 10.7484 52.8298 9.89031V9.8592C52.8298 8.68894 53.7818 8.48605 55.2174 8.36106L56.9342 8.20496V9.00084V9.00055ZM53.2513 6.48793C53.2981 5.55166 53.9693 5.14588 55.202 5.14588C56.4973 5.14588 56.9031 5.66095 56.9031 6.53473V7.19021L55.0302 7.3463C53.3135 7.47129 51.5657 7.87708 51.5657 9.85891V9.89002C51.5657 11.4507 52.6423 12.184 54.1719 12.184C55.5296 12.184 56.4659 11.56 56.9028 10.7952H56.9339L56.965 11.9968H58.1823V6.53473C58.1823 5.13018 57.4801 3.99101 55.2017 3.99101C53.1885 3.99101 52.0339 4.92729 51.9871 6.48793H53.251H53.2513ZM60.3987 11.9968H61.6783V7.97067C61.6783 6.20714 62.4899 5.30197 64.3624 5.30197V3.99131C62.88 3.91311 62.0059 4.74038 61.7094 5.64555H61.6783L61.6472 4.1474H60.3987V11.9971V11.9968ZM71.0105 11.9968H72.4461L69.013 7.1748L72.2744 4.1474H70.589L67.1401 7.36229V1.22929H65.8606V11.9971H67.1401V8.92293L68.1546 7.97097L71.0102 11.9971L71.0105 11.9968ZM76.9095 11.0606C74.9588 11.0606 74.1943 10.2336 74.1786 8.61046H79.7032C79.7189 8.31396 79.75 8.09538 79.75 7.86138C79.75 5.44266 78.9073 3.95991 76.504 3.95991C74.1164 3.95991 72.9147 5.44237 72.9147 8.04858V8.07968C72.9147 10.7638 73.9914 12.184 76.863 12.184C77.7839 12.184 78.5326 12.0279 79.3599 11.7158V10.5923C78.4704 10.9202 77.5964 11.0606 76.9098 11.0606H76.9095ZM76.5037 5.05257C78.0173 5.05257 78.5323 5.83275 78.5323 7.51809H74.1783C74.2565 5.87955 74.9588 5.05257 76.5037 5.05257ZM85.3365 5.27116V4.1474H83.2608V1.94697H82.1527L82.0277 4.1474H80.9354V5.27116H81.9963V10.14C81.9963 11.56 82.6207 12.1375 83.9785 12.1375C84.4311 12.1375 84.9147 12.0593 85.3984 11.9189V10.8423C85.0394 10.9205 84.6337 10.9827 84.2125 10.9827C83.5259 10.9827 83.2605 10.7173 83.2605 10.1089V5.27116H85.3362H85.3365ZM87.0844 11.9971H88.3639V4.1474H87.0844V11.9971ZM87.0533 2.82104H88.3953V1.22929H87.0533V2.82104ZM90.6111 11.9971H91.8907V7.39339C91.8907 6.12953 92.7334 5.11506 94.294 5.11506C95.371 5.11506 95.7922 5.58334 95.7922 6.78471V11.9968H97.0717V6.78471C97.0717 4.80288 96.2602 3.9602 94.4969 3.9602C93.1081 3.9602 92.2186 4.69358 91.9221 5.39586H91.891L91.8599 4.1474H90.6114V11.9971H90.6111ZM102.315 10.8112C100.817 10.8112 100.162 9.74991 100.162 7.95527V7.92417C100.162 6.12953 100.817 5.08396 102.253 5.08396C103.704 5.08396 104.672 6.06703 104.672 7.40938V8.53284C104.672 9.8438 103.767 10.8112 102.315 10.8112ZM104.687 11.7788C104.687 12.9491 104.078 13.7296 102.222 13.7296C101.332 13.7296 100.443 13.5735 99.5529 13.277V14.4005C100.224 14.6658 101.145 14.853 102.268 14.853C104.781 14.853 105.967 13.7139 105.967 11.7788V4.14769H104.719L104.687 5.36505H104.656C104.328 4.66277 103.455 3.9605 102.144 3.9605C100.037 3.9605 98.851 5.50544 98.851 7.92446V7.95556C98.851 10.4525 100.037 11.9352 102.175 11.9352C103.439 11.9352 104.297 11.3422 104.656 10.5932H104.687V11.7791V11.7788ZM44.5435 21.6415L45.6047 23.1865C45.2147 24.0134 44.4656 24.6689 43.2014 24.6689C41.7033 24.6689 40.7513 23.8887 40.7513 22.531V22.4999C40.7513 20.9392 41.4379 20.237 43.3104 20.237H47.3055V19.051H43.2325C42.187 19.051 41.6565 18.4891 41.6565 17.3813V17.3502C41.6565 16.4297 42.1716 15.8367 43.3575 15.8367C44.5592 15.8367 44.9804 16.3518 45.0275 17.4909H46.3695C46.2913 15.6806 45.5268 14.6507 43.42 14.6507C41.2039 14.6507 40.3144 15.7899 40.3144 17.3191V17.3502C40.3144 18.4894 40.8295 19.1606 41.4536 19.5196V19.5507C40.3301 19.8783 39.3936 20.7366 39.3936 22.5002V22.5313C39.3936 24.6692 40.9228 25.8552 43.0453 25.8552C44.7307 25.8552 45.7451 25.1061 46.3224 24.2323L47.368 25.7305L48.2889 25.075L45.4643 20.9863L44.5435 21.6418V21.6415ZM54.8587 21.579H51.3006L53.0641 16.3355H53.0952L54.8587 21.579ZM55.2488 22.7339L56.2476 25.6366H57.6207L53.7972 14.8687H52.3615L48.538 25.6366H49.9111L50.9099 22.7339H55.2482H55.2488ZM61.9126 24.7003C60.352 24.7003 59.7276 23.6079 59.7276 21.7197V21.6886C59.7276 19.8004 60.3519 18.7234 61.8501 18.7234C63.3482 18.7234 64.3627 19.7065 64.3627 21.0488V22.422C64.3627 23.7326 63.4107 24.7003 61.9126 24.7003ZM61.7722 25.8238C63.0832 25.8238 63.9883 25.2308 64.347 24.4817H64.3781L64.4092 25.6366H65.6577V14.8687H64.3781V19.0042H64.347C64.0194 18.3019 63.0986 17.5996 61.7411 17.5996C59.5718 17.5996 58.4172 19.1446 58.4172 21.6883V21.7194C58.4172 24.3256 59.5721 25.8238 61.7725 25.8238H61.7722ZM70.4957 24.2631H70.4646L68.311 17.7868H67L69.7466 25.6366H71.2134L73.96 17.7868H72.6493L70.4957 24.2631ZM78.7355 24.7C76.7848 24.7 76.0203 23.873 76.0046 22.2499H81.5292C81.5449 21.9534 81.576 21.7348 81.576 21.5008C81.576 19.0821 80.7334 17.5994 78.33 17.5994C75.9424 17.5994 74.7408 19.0818 74.7408 21.688V21.7191C74.7408 24.4032 75.8174 25.8235 78.689 25.8235C79.6099 25.8235 80.3587 25.6674 81.1859 25.3552V24.2317C80.2965 24.5596 79.4224 24.7 78.7358 24.7H78.7355ZM78.3297 18.692C79.8433 18.692 80.3584 19.4722 80.3584 21.1575H76.0043C76.0825 19.519 76.7848 18.692 78.3297 18.692ZM83.3858 25.6366H84.6653V21.6104C84.6653 19.8469 85.4769 18.9417 87.3494 18.9417V17.631C85.867 17.5528 84.9929 18.3801 84.6964 19.2853H84.6653L84.6342 17.7871H83.3858V25.6369V25.6366ZM92.5933 18.9106V17.7868H90.5175V15.5864H89.4095L89.2845 17.7868H88.1921V18.9106H89.2531V23.7794C89.2531 25.1994 89.8775 25.777 91.2352 25.777C91.6878 25.777 92.1715 25.6988 92.6552 25.5584V24.4817C92.2962 24.5599 91.8904 24.6221 91.4692 24.6221C90.7826 24.6221 90.5173 24.3567 90.5173 23.7483V18.9106H92.593H92.5933ZM94.3411 25.6366H95.6207V17.7868H94.3411V25.6366ZM94.31 16.4605H95.6521V14.8687H94.31V16.4605ZM100.739 24.7003C99.5535 24.7003 98.6641 24.2634 98.6173 23.2803H97.3688C97.4156 25.075 98.6952 25.8241 100.739 25.8241C102.8 25.8241 103.923 25.0593 103.923 23.4832V23.4521C103.923 21.9383 103.018 21.3453 101.207 21.1113L100.505 21.0177C99.4596 20.8773 98.8356 20.5962 98.8356 19.8942V19.8631C98.8356 19.2234 99.3192 18.724 100.677 18.724C101.816 18.724 102.472 19.0519 102.518 19.9256H103.767C103.658 18.3028 102.55 17.6005 100.677 17.6005C98.6327 17.6005 97.6028 18.4275 97.6028 19.8634V19.8945C97.6028 21.4238 98.5705 21.9232 100.256 22.1729L101.052 22.2822C102.097 22.4226 102.69 22.6879 102.69 23.4213V23.4524C102.69 24.264 101.988 24.7009 100.739 24.7009V24.7003ZM105.702 25.6366H106.981V17.7868H105.702V25.6366ZM105.671 16.4605H107.013V14.8687H105.671V16.4605ZM109.229 25.6366H110.508V21.0328C110.508 19.769 111.351 18.7545 112.912 18.7545C113.989 18.7545 114.41 19.2228 114.41 20.4242V25.6363H115.689V20.4242C115.689 18.4423 114.878 17.5996 113.114 17.5996C111.726 17.5996 110.836 18.333 110.54 19.0353H110.509L110.477 17.7868H109.229V25.6366H109.229ZM120.933 24.4506C119.435 24.4506 118.779 23.3893 118.779 21.5947V21.5636C118.779 19.769 119.435 18.7234 120.87 18.7234C122.322 18.7234 123.289 19.7065 123.289 21.0488V22.1723C123.289 23.4832 122.384 24.4506 120.933 24.4506ZM123.305 25.4183C123.305 26.5885 122.696 27.369 120.839 27.369C119.95 27.369 119.06 27.2129 118.171 26.9164V28.0399C118.842 28.3053 119.762 28.4925 120.886 28.4925C123.398 28.4925 124.585 27.3533 124.585 25.4183V17.7871H123.336L123.305 19.0045H123.274C122.946 18.3022 122.072 17.5999 120.761 17.5999C118.655 17.5999 117.469 19.1449 117.469 21.5639V21.595C117.469 24.0919 118.654 25.5747 120.792 25.5747C122.056 25.5747 122.915 24.9817 123.274 24.2326H123.305V25.4186V25.4183ZM128.517 20.3308L129.344 16.0704H131.638C133.09 16.0704 133.667 16.4605 133.667 17.5217C133.667 19.4568 132.668 20.3308 130.78 20.3308H128.517H128.517ZM128.283 21.5325H130.624C133.542 21.5325 135.056 19.9251 135.056 17.3659C135.056 15.6338 133.979 14.869 131.747 14.869H128.236L126.145 25.6369H127.487L128.283 21.5325H128.283ZM138.473 24.7003C137.178 24.7003 136.679 23.9669 136.679 22.7807C136.679 20.986 137.475 18.7231 139.519 18.7231C141.064 18.7231 141.829 19.7687 141.579 21.0485L141.314 22.4217C141.064 23.7323 139.894 24.7 138.473 24.7V24.7003ZM138.161 25.8238C139.472 25.8238 140.393 25.2308 140.892 24.4817H140.923L140.736 25.6366H141.985L143.498 17.7868H142.219L141.985 19.0042H141.953C141.751 18.333 140.908 17.5996 139.55 17.5996C136.647 17.5996 135.352 20.4555 135.352 22.8275C135.352 24.6378 136.351 25.8238 138.161 25.8238H138.161ZM149.194 18.9106L149.413 17.7868H147.338L147.775 15.5864H146.666L146.105 17.7868H145.012L144.794 18.9106H145.855L144.903 23.7794C144.653 25.0901 145.277 25.777 146.635 25.777C147.072 25.777 147.54 25.6988 147.961 25.5584L148.18 24.4817C147.806 24.5599 147.384 24.6221 146.963 24.6221C146.276 24.6221 146.073 24.3567 146.183 23.7483L147.119 18.9106H149.195H149.194ZM149.663 25.6366H150.942L151.847 21.0017C152.097 19.7376 153.143 18.7545 154.688 18.7545C155.764 18.7545 156.092 19.2228 155.858 20.4242L154.844 25.6363H156.123L157.106 20.5802C157.497 18.5202 156.794 17.5996 155.031 17.5996C153.658 17.5996 152.69 18.3019 152.269 19.0042H152.238L153.033 14.8687H151.754L149.663 25.6366Z" fill="white"/>
<defs>
<linearGradient id="paint0_linear_42_1406" x1="0.116852" y1="10.7417" x2="32.9291" y2="14.0109" gradientUnits="userSpaceOnUse">
<stop stop-color="#0000FF"/>
<stop offset="0.509804" stop-color="#2AEBEB"/>
<stop offset="1" stop-color="#FFFF00"/>
</linearGradient>
</defs>
</svg>
