<svg width="20" height="21" viewBox="0 0 20 21" fill="none" xmlns="http://www.w3.org/2000/svg">
<path d="M10.8333 16.3334H4.16667C3.72464 16.3334 3.30072 16.1578 2.98816 15.8453C2.67559 15.5327 2.5 15.1088 2.5 14.6667V6.33341M2.5 6.33341C2.5 5.89139 2.67559 5.46746 2.98816 5.1549C3.30072 4.84234 3.72464 4.66675 4.16667 4.66675H15.8333C16.2754 4.66675 16.6993 4.84234 17.0118 5.1549C17.3244 5.46746 17.5 5.89139 17.5 6.33341M2.5 6.33341L10 11.3334L17.5 6.33341M17.5 6.33341V11.3334M13.3333 18.8334L17.5 14.6667M17.5 14.6667V18.4167M17.5 14.6667H13.75" stroke="#0BC2EB" stroke-width="1.5" stroke-linecap="round" stroke-linejoin="round"/>
</svg>
