<svg width="127" height="129" viewBox="0 0 127 129" fill="none" xmlns="http://www.w3.org/2000/svg">
<g clip-path="url(#clip0_166_840)">
<path d="M62.4434 8.23194C63.6369 8.23341 64.8298 8.22251 66.0231 8.21077C70.4524 8.194 74.4159 8.47812 78.6852 9.76965C79.2534 9.93907 79.2534 9.93907 79.833 10.1119C93.7822 14.442 106.253 23.9071 113.196 36.9581C114.833 40.1631 115.986 43.3778 116.877 46.8711C116.999 47.315 117.121 47.7589 117.246 48.2162C118.276 52.2346 118.478 56.0697 118.43 60.2044C118.428 60.5307 118.426 60.8569 118.424 61.193C118.389 66.1327 118.116 70.8235 116.877 75.6247C116.801 75.9423 116.724 76.2599 116.645 76.5871C114.759 84.3416 111.435 90.8944 106.294 96.9581C106.018 97.294 105.742 97.63 105.458 97.9762C94.5377 110.14 75.9626 112.957 60.9312 116.166C57.94 116.805 54.9549 117.47 51.9735 118.154C49.6723 118.677 47.3724 119.09 45.0353 119.409C43.5259 119.722 42.1236 120.209 40.6681 120.713C39.277 121.172 37.8714 121.527 36.4509 121.879C30.4592 123.367 24.9981 125.486 19.5512 128.447C18.4062 128.958 18.4062 128.958 16.5657 128.958C16.6075 128.681 16.6493 128.404 16.6924 128.119C19.101 111.843 16.1604 97.4959 12.6852 81.5889C9.38589 66.4227 9.38589 66.4227 9.46216 59.1609C9.46565 58.6738 9.46913 58.1866 9.47272 57.6847C9.69307 47.0103 13.3206 36.4799 20.2468 28.3204C20.6341 27.8571 21.0215 27.3937 21.4205 26.9164C28.0291 19.2354 36.434 13.8014 46.0149 10.6972C46.3987 10.5597 46.7825 10.4222 47.1779 10.2805C52.2568 8.46327 57.1004 8.21827 62.4434 8.23194Z" fill="#E20311"/>
<path d="M51.1912 40.4366C54.3646 43.7804 55.791 48.2934 55.7998 52.8677C55.8016 53.7654 55.8016 53.7654 55.8034 54.6811C55.8015 54.9889 55.7996 55.2967 55.7976 55.6139C55.7927 56.5471 55.7976 57.4798 55.8034 58.413C55.7904 65.0039 54.6604 71.0503 50.1559 76.0887C46.1162 80.1419 42.8829 80.4253 36.8117 81.1902C36.8117 88.3832 36.8117 95.5763 36.8117 102.987C26.2283 104.842 26.2283 104.842 24.8479 104.842C24.7403 96.9773 24.6592 89.1124 24.6095 81.2467C24.5858 77.5943 24.5535 73.9425 24.5008 70.2904C24.4549 67.1066 24.4252 63.9231 24.415 60.7389C24.409 59.0533 24.3949 57.3686 24.3614 55.6833C24.3242 53.7999 24.3234 51.9181 24.3255 50.0343C24.309 49.4779 24.2924 48.9214 24.2754 48.3482C24.3208 44.6438 24.3208 44.6438 25.8543 43.0289C27.0212 42.1906 28.1715 41.4931 29.4494 40.8424C30.1976 40.4505 30.1976 40.4505 30.961 40.0507C37.9885 37.2315 44.5686 36.0723 51.1912 40.4366Z" fill="#FCFAFA"/>
<path d="M103.532 30.1749C103.586 37.2905 103.627 44.406 103.651 51.5217C103.663 54.826 103.679 58.1302 103.706 61.4344C103.729 64.3161 103.743 67.1977 103.749 70.0795C103.752 71.6039 103.76 73.128 103.775 74.6523C103.792 76.3586 103.794 78.0644 103.793 79.7707C103.802 80.2701 103.81 80.7695 103.818 81.284C103.796 84.5871 103.207 87.298 101.231 90.001C98.02 92.4367 95.5898 92.7836 91.5684 92.7836C91.5684 72.7349 91.5684 52.6862 91.5684 32.03C95.2127 31.8004 95.2127 31.8004 98.9307 31.5662C98.9307 31.2601 98.9307 30.9541 98.9307 30.6387C100.511 30.349 101.917 30.1749 103.532 30.1749Z" fill="#FDFBFB"/>
<path d="M74.5437 49.6534C74.4783 50.755 74.4109 51.8564 74.3424 52.9578C74.3243 53.2663 74.3062 53.5747 74.2875 53.8926C74.17 55.7521 73.9603 57.5607 73.6234 59.3926C72.2568 59.6987 70.8901 60.0047 69.4821 60.3201C69.4831 60.7781 69.4841 61.236 69.4852 61.7079C69.4945 66.0142 69.5014 70.3206 69.5059 74.627C69.5083 76.8411 69.5116 79.0553 69.5168 81.2695C69.5218 83.4045 69.5246 85.5394 69.5257 87.6744C69.5266 88.4908 69.5283 89.3072 69.5307 90.1236C69.5341 91.2631 69.5345 92.4025 69.5343 93.5419C69.536 93.8828 69.5376 94.2238 69.5393 94.575C69.5346 96.9049 69.5346 96.9049 69.0219 97.4216C68.3668 97.5589 67.7064 97.6709 67.0448 97.7712C66.6414 97.8325 66.2381 97.8937 65.8225 97.9569C65.3978 98.0194 64.9731 98.0818 64.5355 98.1462C64.118 98.2105 63.7004 98.2747 63.2701 98.3409C61.3265 98.6316 59.4853 98.8265 57.5183 98.8129C57.3903 93.3062 57.2922 87.7998 57.2322 82.2919C57.2034 79.7342 57.1644 77.1774 57.1018 74.6203C57.0417 72.1514 57.0087 69.6835 56.9944 67.214C56.9842 66.2729 56.9643 65.3318 56.9345 64.3911C56.71 57.0198 56.71 57.0198 58.7075 54.8609C60.1383 53.9995 61.4584 53.4183 63.0401 52.8998C63.7692 52.5981 64.4979 52.2953 65.2257 51.9904C65.8756 51.7657 66.5275 51.5469 67.1814 51.3346C67.6805 51.1633 67.6805 51.1633 68.1897 50.9886C70.3998 50.2379 72.2104 49.6534 74.5437 49.6534Z" fill="#FBF9F9"/>
<path d="M87.8876 47.3351C87.8876 62.6394 87.8876 77.9438 87.8876 93.7119C85.9757 94.3542 84.3732 94.8328 82.4234 95.1612C81.9785 95.2389 81.5336 95.3166 81.0753 95.3967C79.3684 95.5944 77.6419 95.567 75.9238 95.567C75.9238 80.2626 75.9238 64.9583 75.9238 49.1902C79.7959 48.731 79.7959 48.731 83.7463 48.2626C86.047 47.3351 86.047 47.3351 87.8876 47.3351Z" fill="#FCFAFA"/>
<path d="M116.876 70.5226C117.18 70.5226 117.483 70.5226 117.796 70.5226C115.531 82.8784 111.327 93.9175 101.059 101.74C89.5211 109.647 76.7971 112.811 63.3043 115.726C61.6169 116.091 59.9306 116.46 58.2444 116.831C57.1531 117.069 56.0618 117.307 54.9704 117.544C54.4756 117.653 53.9808 117.761 53.4711 117.872C50.6339 118.484 47.7977 119.012 44.9295 119.455C43.4129 119.738 42.0095 120.206 40.5607 120.73C39.2096 121.199 37.8365 121.535 36.4497 121.878C30.458 123.366 24.9969 125.485 19.55 128.446C18.405 128.957 18.405 128.957 16.5645 128.957C16.8719 123.596 16.8719 123.596 18.1714 122.18C19.1548 121.681 20.1054 121.373 21.1659 121.073C21.7736 120.844 21.7736 120.844 22.3936 120.61C25.4145 119.492 28.4551 118.81 31.6126 118.213C33.4047 117.872 35.181 117.473 36.9599 117.069C41.8396 115.964 46.7389 115.018 51.6596 114.122C62.5774 112.132 73.369 109.929 83.9757 106.594C84.6777 106.373 85.3809 106.157 86.0859 105.946C92.4871 104.032 99.0221 100.533 103.764 95.7345C104.452 95.1023 104.452 95.1023 105.372 95.1023C105.49 94.8375 105.607 94.5726 105.728 94.2998C106.355 93.1318 107.098 92.2501 107.961 91.2472C111.691 86.5984 114.029 81.4019 115.496 75.624C115.593 75.2444 115.691 74.8648 115.792 74.4737C116.006 73.6219 116.212 72.7681 116.416 71.9139C116.568 71.4548 116.72 70.9956 116.876 70.5226Z" fill="#F4E00D"/>
<path d="M60.2782 113.19C60.506 113.649 60.506 113.649 60.7384 114.117C59.6855 115.917 58.7482 116.607 56.7984 117.137C55.9665 117.329 55.1323 117.51 54.2963 117.683C53.862 117.78 53.4277 117.877 52.9802 117.977C50.331 118.559 47.6758 119.076 44.9856 119.425C43.4928 119.727 42.1081 120.214 40.6699 120.712C39.2778 121.171 37.8713 121.527 36.4497 121.879C30.458 123.367 24.9969 125.486 19.55 128.447C18.405 128.958 18.405 128.958 16.5645 128.958C16.8719 123.597 16.8719 123.597 18.1714 122.181C19.1548 121.681 20.1054 121.374 21.1659 121.074C21.571 120.921 21.9762 120.768 22.3936 120.61C25.4086 119.495 28.4432 118.813 31.5947 118.217C33.4713 117.86 35.3324 117.443 37.1958 117.022C41.805 115.983 46.4283 115.054 51.0753 114.204C51.6214 114.103 52.1675 114.001 52.7302 113.897C55.2804 113.439 57.6867 113.057 60.2782 113.19Z" fill="#F7E50B"/>
<path d="M39.2557 46.6964C40.9372 46.7126 41.2604 46.7323 42.563 47.9138C44.1484 50.8433 43.8316 54.0414 43.8492 57.2955C43.8545 57.9741 43.8639 58.6527 43.8775 59.3313C43.9683 63.8534 43.7544 67.443 41.0388 71.2182C39.6822 72.1557 38.4247 72.1811 36.8112 72.3776C36.7996 68.8195 36.7915 65.2614 36.7859 61.7033C36.7836 60.4918 36.7805 59.2803 36.7765 58.0688C36.7709 56.3317 36.7683 54.5947 36.7663 52.8576C36.7639 52.3122 36.7615 51.7668 36.7591 51.2049C36.759 50.4529 36.759 50.4529 36.759 49.6857C36.7579 49.2418 36.7569 48.7979 36.7559 48.3406C36.8532 46.5705 37.6839 46.7638 39.2557 46.6964Z" fill="#E30512"/>
<path d="M83.7467 31.5673C85.5681 32.5372 86.7921 33.5274 87.888 35.2775C88.2727 37.2064 88.268 39.1125 87.4188 40.9061C86.4524 42.3098 85.6345 43.1298 84.2068 44.0891C82.8641 44.1797 82.8641 44.1797 81.3597 44.1471C80.8596 44.1387 80.3596 44.1303 79.8444 44.1217C79.2705 44.1055 79.2705 44.1055 78.6851 44.0891C78.6851 43.783 78.6851 43.4769 78.6851 43.1615C78.2722 43.1185 78.2722 43.1185 77.8511 43.0746C76.8445 42.6978 76.8445 42.6978 76.0392 41.7702C75.2514 39.8646 75.1464 38.2409 75.4641 36.205C77.1514 32.7384 79.9157 30.7967 83.7467 31.5673Z" fill="#FAF6F5"/>
<path d="M52.9169 42.6964C53.2206 42.6964 53.5243 42.6964 53.8372 42.6964C58.1156 50.577 58.1355 60.0555 55.7641 68.6276C53.7288 74.8328 50.1824 78.2661 44.7871 81.6058C43.2539 82.1167 43.2539 82.1167 37.7321 82.1167C37.7321 89.3097 37.7321 96.5028 37.7321 103.914C28.9894 105.305 28.9894 105.305 26.2285 104.841C26.2285 104.688 26.2285 104.535 26.2285 104.378C27.3878 104.142 28.5477 103.911 29.7084 103.682C30.0325 103.616 30.3567 103.549 30.6907 103.481C31.0125 103.418 31.3342 103.355 31.6658 103.291C31.9573 103.232 32.2489 103.174 32.5493 103.114C33.9604 102.941 35.3904 102.986 36.8118 102.986C36.8118 95.7932 36.8118 88.6002 36.8118 81.1892C39.2414 80.73 41.671 80.2709 44.1742 79.7979C49.4559 77.2259 52.296 73.601 54.3836 68.1747C55.4117 64.4286 55.3334 60.61 55.3614 56.7544C55.3748 56.1521 55.3881 55.5498 55.4019 54.9292C55.4276 50.9543 54.8528 47.7681 53.3771 44.0877C53.1493 43.399 53.1493 43.399 52.9169 42.6964Z" fill="#791016"/>
<path d="M103.533 31.5675C103.836 31.5675 104.14 31.5675 104.453 31.5675C104.496 38.9125 104.528 46.2575 104.548 53.6026C104.558 57.0131 104.571 60.4234 104.592 63.8338C104.61 66.8062 104.622 69.7785 104.626 72.7509C104.628 74.3249 104.634 75.8988 104.647 77.4727C104.661 79.2295 104.663 80.986 104.662 82.7428C104.668 83.2652 104.675 83.7876 104.682 84.3258C104.679 84.8044 104.677 85.283 104.674 85.7761C104.676 86.1917 104.678 86.6072 104.679 87.0353C104.38 88.5032 103.718 89.0348 102.612 90.0023C102.332 90.3203 102.052 90.6384 101.764 90.9661C100.523 92.0805 99.3351 92.5506 97.7807 93.1327C97.2635 93.3312 96.7463 93.5297 96.2134 93.7342C94.7898 94.1762 94.7898 94.1762 92.9492 94.1762C92.9492 93.7171 92.9492 93.2579 92.9492 92.7849C93.4573 92.6585 93.4573 92.6585 93.9756 92.5295C96.3023 91.9254 98.3008 91.3751 100.312 90.0023C100.615 90.0023 100.919 90.0023 101.232 90.0023C101.431 89.5001 101.431 89.5001 101.634 88.9878C101.954 88.1819 102.286 87.3805 102.637 86.5876C103.089 85.3184 103.192 84.3857 103.201 83.0434C103.206 82.5876 103.211 82.1317 103.216 81.6621C103.217 81.1674 103.218 80.6726 103.219 80.163C103.224 79.6379 103.228 79.1129 103.233 78.5719C103.247 76.8379 103.255 75.104 103.263 73.37C103.272 72.1672 103.281 70.9644 103.29 69.7616C103.311 66.9202 103.328 64.0788 103.344 61.2373C103.361 58.0016 103.384 54.7659 103.407 51.5302C103.455 44.876 103.496 38.2218 103.533 31.5675Z" fill="#751A1D"/>
<path d="M74.5438 51.046C74.8475 51.046 75.1512 51.046 75.4641 51.046C75.3989 52.1573 75.3315 53.2683 75.2628 54.3794C75.2447 54.6917 75.2266 55.0041 75.2079 55.3259C75.1009 57.0272 74.9248 58.6597 74.5438 60.3214C73.1772 60.6275 71.8105 60.9336 70.4025 61.2489C70.4025 73.4924 70.4025 85.7359 70.4025 98.3504C62.58 99.7417 62.58 99.7417 60.2793 99.7417C60.2793 99.4356 60.2793 99.1295 60.2793 98.8141C60.7348 98.8141 61.1904 98.8141 61.6597 98.8141C61.6597 98.508 61.6597 98.202 61.6597 97.8866C64.0893 97.5805 66.5189 97.2744 69.0221 96.9591C69.1739 84.8686 69.3257 72.7782 69.4822 60.3214C71.7829 59.3938 71.7829 59.3938 73.6235 59.3938C73.6653 58.6065 73.6653 58.6065 73.708 57.8033C73.7468 57.1161 73.7858 56.4289 73.8248 55.7417C73.8429 55.3955 73.861 55.0494 73.8796 54.6928C74.0315 52.0786 74.0315 52.0786 74.5438 51.046Z" fill="#740E13"/>
<path d="M87.8872 48.7257C88.1909 48.7257 88.4946 48.7257 88.8075 48.7257C88.8075 64.0301 88.8075 79.3344 88.8075 95.1025C78.2242 96.9576 78.2242 96.9576 76.8438 96.9576C76.9956 96.4985 77.1474 96.0393 77.3039 95.5663C80.6445 94.9541 83.9852 94.3419 87.4271 93.7112C87.5789 78.866 87.7308 64.0208 87.8872 48.7257Z" fill="#721014"/>
<path d="M116.878 70.5226C117.181 70.5226 117.485 70.5226 117.798 70.5226C115.954 80.5792 113.085 89.4137 106.179 97.1313C105.952 97.3882 105.724 97.645 105.489 97.9097C104.161 99.3217 103.198 100.129 101.233 100.204C100.929 100.051 100.625 99.8977 100.312 99.74C100.942 98.2796 101.636 97.3989 102.843 96.3777C103.263 96.0154 103.263 96.0154 103.692 95.6458C104.454 95.1023 104.454 95.1023 105.374 95.1023C105.492 94.8375 105.609 94.5726 105.73 94.2998C106.356 93.1318 107.1 92.2501 107.962 91.2472C111.693 86.5984 114.031 81.4019 115.497 75.624C115.595 75.2444 115.693 74.8648 115.794 74.4737C116.008 73.6219 116.214 72.7681 116.418 71.9139C116.569 71.4548 116.721 70.9956 116.878 70.5226Z" fill="#F9E504"/>
<path d="M38.2222 46.8253C38.7907 46.8334 38.7907 46.8334 39.3707 46.8416C39.751 46.8458 40.1312 46.85 40.5229 46.8543C40.8165 46.8597 41.1101 46.8651 41.4126 46.8706C41.1089 47.1767 40.8053 47.4828 40.4924 47.7981C39.5813 47.7981 38.6702 47.7981 37.7315 47.7981C37.7315 55.9094 37.7315 64.0208 37.7315 72.3779C37.4278 72.3779 37.1241 72.3779 36.8112 72.3779C36.7996 68.8198 36.7915 65.2617 36.7859 61.7036C36.7836 60.4921 36.7805 59.2806 36.7765 58.0691C36.7709 56.332 36.7683 54.595 36.7663 52.8579C36.7639 52.3125 36.7615 51.7671 36.7591 51.2052C36.759 50.4532 36.759 50.4532 36.759 49.6859C36.7579 49.2421 36.7569 48.7982 36.7559 48.3409C36.829 47.0112 36.9017 46.8882 38.2222 46.8253Z" fill="#730E14"/>
<path d="M116.876 70.5226C117.18 70.5226 117.484 70.5226 117.797 70.5226C116.475 77.7331 114.81 84.6424 110.894 90.9284C110.434 89.5371 110.434 89.5371 111.009 88.3197C111.275 87.8032 111.541 87.2866 111.815 86.7545C112.169 85.7978 112.478 84.8319 112.787 83.8595C113.2 82.5656 113.632 81.2791 114.066 79.9921C114.963 77.321 115.787 74.6634 116.416 71.9139C116.568 71.4548 116.72 70.9956 116.876 70.5226Z" fill="#DCBC2E"/>
<path d="M103.072 85.3644C103.751 87.1436 103.355 88.2911 102.612 90.0021C101.214 91.6975 99.8153 92.3706 97.7807 93.1325C97.2635 93.331 96.7463 93.5295 96.2134 93.7339C94.7898 94.176 94.7898 94.176 92.9492 94.176C92.9492 93.7168 92.9492 93.2577 92.9492 92.7847C93.2879 92.7004 93.6266 92.6161 93.9756 92.5292C96.3023 91.9252 98.3008 91.3749 100.312 90.0021C100.615 90.0021 100.919 90.0021 101.232 90.0021C101.365 89.6673 101.498 89.3325 101.634 88.9876C102.353 87.176 102.353 87.176 103.072 85.3644Z" fill="#7F1F24"/>
<path d="M117.797 53.8273C117.949 53.8273 118.101 53.8273 118.257 53.8273C118.257 58.4186 118.257 63.0099 118.257 67.7403C118.106 67.7403 117.954 67.7403 117.797 67.7403C117.797 66.9751 117.797 66.2099 117.797 65.4215C117.494 65.4215 117.19 65.4215 116.877 65.4215C116.877 61.9015 116.877 58.3815 116.877 54.7548C117.181 54.7548 117.484 54.7548 117.797 54.7548C117.797 54.4487 117.797 54.1426 117.797 53.8273Z" fill="#DC1218"/>
<path d="M111.815 85.3644C112.522 87.5017 111.546 88.9101 110.686 90.9151C109.748 92.7678 108.652 94.0843 107.214 95.5673C106.606 95.1081 105.999 94.649 105.373 94.176C105.607 93.9285 105.84 93.681 106.081 93.426C108.381 90.9174 110.181 88.3534 111.815 85.3644Z" fill="#F4CD0C"/>
<path d="M42.3339 47.7987C42.3339 48.2578 42.3339 48.7169 42.3339 49.19C41.8783 49.19 41.4228 49.19 40.9534 49.19C40.9534 48.8839 40.9534 48.5778 40.9534 48.2624C40.0423 48.2624 39.1313 48.2624 38.1926 48.2624C38.1926 56.2207 38.1926 64.1789 38.1926 72.3784C38.0407 72.3784 37.8889 72.3784 37.7324 72.3784C37.7324 64.2671 37.7324 56.1558 37.7324 47.7987C40.8384 47.2769 40.8384 47.2769 42.3339 47.7987Z" fill="#BD0310"/>
<path d="M52.916 42.6964C53.2197 42.6964 53.5234 42.6964 53.8363 42.6964C56.301 47.2363 57.3259 51.4271 57.0573 56.6095C56.9055 56.6095 56.7536 56.6095 56.5972 56.6095C56.4453 57.6808 56.2935 58.7521 56.137 59.8558C55.9852 59.8558 55.8333 59.8558 55.6769 59.8558C55.6726 59.5759 55.6683 59.296 55.6639 59.0076C55.5288 51.3575 55.5288 51.3575 53.3762 44.0877C53.2243 43.6286 53.0725 43.1695 52.916 42.6964Z" fill="#8B2328"/>
<path d="M87.8869 36.2042C88.0388 36.2042 88.1906 36.2042 88.3471 36.2042C89.0032 40.3074 89.0032 40.3074 88.3183 42.1752C86.874 43.7718 85.677 44.9199 83.4634 45.1299C82.3243 45.1316 81.2005 45.0973 80.0645 45.0158C80.0645 44.7097 80.0645 44.4036 80.0645 44.0883C80.3367 44.0817 80.609 44.0751 80.8895 44.0684C82.9156 43.9451 83.9364 43.844 85.5574 42.5231C86.7699 40.9678 87.5227 39.936 87.7144 37.9723C87.7713 37.3889 87.8282 36.8054 87.8869 36.2042Z" fill="#88272C"/>
<path d="M70.4025 97.8848C70.4025 98.0379 70.4025 98.1909 70.4025 98.3486C69.1471 98.583 67.8913 98.8144 66.635 99.0442C66.2812 99.1106 65.9274 99.177 65.5629 99.2453C63.7791 99.5694 62.1008 99.8282 60.2793 99.7399C60.2793 99.4338 60.2793 99.1277 60.2793 98.8124C60.7348 98.8124 61.1904 98.8124 61.6597 98.8124C61.6597 98.5063 61.6597 98.2002 61.6597 97.8848C64.6272 97.2731 67.4058 97.5625 70.4025 97.8848Z" fill="#903339"/>
<path d="M88.8075 94.6396C88.8075 94.7927 88.8075 94.9457 88.8075 95.1034C87.0727 95.4145 85.3375 95.723 83.6021 96.031C82.8623 96.1637 82.8623 96.1637 82.1076 96.2991C81.6345 96.3828 81.1615 96.4665 80.6741 96.5527C80.2379 96.6304 79.8018 96.7081 79.3524 96.7882C78.2242 96.9585 78.2242 96.9585 76.8438 96.9585C76.9956 96.4994 77.1474 96.0402 77.3039 95.5672C78.5299 95.3186 79.7566 95.0784 80.9851 94.8425C81.3273 94.7723 81.6696 94.7021 82.0222 94.6297C84.4283 94.1763 86.3933 94.2221 88.8075 94.6396Z" fill="#7E0A12"/>
<path d="M54.2963 67.7413C54.4482 67.7413 54.6 67.7413 54.7565 67.7413C55.0458 70.9484 54.3769 73.0331 52.4558 75.6254C51.2766 76.5239 51.2766 76.5239 50.155 77.0167C49.5404 77.3236 48.9267 77.6324 48.3145 77.9442C48.7131 77.5138 49.1117 77.0834 49.5223 76.6399C51.6636 74.128 53.6474 71.0268 54.2963 67.7413Z" fill="#7C2024"/>
<path d="M37.272 102.987C37.4238 103.293 37.5757 103.6 37.7321 103.915C36.3337 104.164 34.9338 104.403 33.5333 104.64C33.1395 104.71 32.7456 104.78 32.3398 104.852C30.1723 105.214 28.3994 105.384 26.2285 104.842C26.2285 104.689 26.2285 104.536 26.2285 104.379C27.3781 104.142 28.5284 103.911 29.6796 103.683C29.9999 103.617 30.3202 103.55 30.6502 103.482C32.8964 103.042 34.9838 102.925 37.272 102.987Z" fill="#822C30"/>
<path d="M54.757 8.37805C56.2755 8.37805 57.794 8.37805 59.3585 8.37805C59.3585 8.83718 59.3585 9.29631 59.3585 9.76936C57.6881 9.76936 56.0178 9.76936 54.2969 9.76936C54.4487 9.31023 54.6006 8.8511 54.757 8.37805Z" fill="#D90C1C"/>
<path d="M109.514 90.9288C109.818 91.0819 110.122 91.2349 110.435 91.3926C110.009 92.0149 109.576 92.6323 109.14 93.2477C108.9 93.592 108.66 93.9364 108.413 94.2912C108.169 94.559 107.925 94.8268 107.674 95.1027C107.218 95.1027 106.763 95.1027 106.293 95.1027C105.99 94.7967 105.686 94.4906 105.373 94.1752C106.182 93.7374 106.991 93.2996 107.8 92.8618C108.734 92.298 108.734 92.298 109.514 90.9288Z" fill="#E3D525"/>
<path d="M10.5824 56.1456C10.7342 56.1456 10.8861 56.1456 11.0425 56.1456C11.0425 57.9822 11.0425 59.8187 11.0425 61.7108C10.8907 61.7108 10.7388 61.7108 10.5824 61.7108C10.5824 59.8743 10.5824 58.0378 10.5824 56.1456ZM9.66211 61.7108C9.96581 61.7108 10.2695 61.7108 10.5824 61.7108C10.7342 62.4761 10.8861 63.2413 11.0425 64.0297C10.7388 64.0297 10.4352 64.0297 10.1223 64.0297C9.97041 64.3358 9.81856 64.6419 9.66211 64.9572C9.66211 63.8859 9.66211 62.8146 9.66211 61.7108Z" fill="#EB0003"/>
<path d="M98.0108 92.3204C97.5507 93.2479 97.5507 93.2479 96.2565 93.7696C94.7898 94.1754 94.7898 94.1754 92.9492 94.1754C92.9492 93.7163 92.9492 93.2572 92.9492 92.7841C94.6676 92.3766 96.2474 92.279 98.0108 92.3204Z" fill="#790F16"/>
<path d="M101.52 99.6827C101.881 99.7019 102.241 99.721 102.613 99.7407C102.613 100.047 102.613 100.353 102.613 100.668C100.123 102.523 100.123 102.523 98.9316 102.523C99.2816 100.76 99.5521 99.7772 101.52 99.6827Z" fill="#ECCE18"/>
<path d="M88.8074 32.9581C88.8074 35.2538 88.8074 37.5494 88.8074 39.9147C88.6555 39.9147 88.5037 39.9147 88.3472 39.9147C88.2861 39.6014 88.225 39.2881 88.1621 38.9654C88.0808 38.5517 87.9996 38.138 87.9158 37.7118C87.8358 37.3028 87.7557 36.8939 87.6732 36.4726C87.4621 35.4475 87.2275 34.4352 86.9668 33.4219C87.8871 32.9581 87.8871 32.9581 88.8074 32.9581Z" fill="#A80F14"/>
<path d="M17.0254 102.06C17.4809 102.06 17.9365 102.06 18.4058 102.06C18.981 105.132 18.981 105.132 17.9457 106.697C17.642 105.167 17.3383 103.637 17.0254 102.06Z" fill="#D21931"/>
<path d="M64.8807 98.3496C65.0326 98.6557 65.1844 98.9618 65.3409 99.2771C63.6706 99.4302 62.0002 99.5832 60.2793 99.7409C60.2793 99.4348 60.2793 99.1287 60.2793 98.8134C61.8775 98.2764 63.2061 98.3178 64.8807 98.3496Z" fill="#7D080F"/>
<path d="M115.496 76.5519C115.799 76.5519 116.103 76.5519 116.416 76.5519C116.286 77.2291 116.151 77.9052 116.013 78.5809C115.939 78.9575 115.864 79.3341 115.787 79.7222C115.496 80.7258 115.496 80.7258 114.575 81.6533C114.053 80.0722 114.176 79.7967 114.777 78.32C114.975 77.8223 114.975 77.8223 115.178 77.3146C115.283 77.0629 115.388 76.8112 115.496 76.5519Z" fill="#DAC331"/>
<path d="M12.4234 42.6964C12.9161 44.1862 12.8835 45.3118 12.8835 46.8703C11.9633 47.6529 11.9633 47.6529 11.043 48.2616C11.4374 44.2865 11.4374 44.2865 12.4234 42.6964Z" fill="#C11832"/>
<path d="M13.3438 84.4366C13.6474 84.4366 13.9511 84.4366 14.264 84.4366C14.264 84.7427 14.264 85.0488 14.264 85.3642C14.5677 85.3642 14.8714 85.3642 15.1843 85.3642C15.1843 86.7416 15.1843 88.119 15.1843 89.5381C14.8806 89.3851 14.5769 89.232 14.264 89.0743C13.9729 88.0145 13.9729 88.0145 13.7464 86.7265C13.6693 86.3003 13.5922 85.874 13.5127 85.4348C13.457 85.1054 13.4012 84.776 13.3438 84.4366Z" fill="#C9143A"/>
<path d="M42.3339 47.7991C42.3339 48.2582 42.3339 48.7173 42.3339 49.1904C41.8783 49.1904 41.4228 49.1904 40.9534 49.1904C40.9534 48.8843 40.9534 48.5782 40.9534 48.2628C39.8905 48.4159 38.8276 48.5689 37.7324 48.7266C37.7324 48.4205 37.7324 48.1144 37.7324 47.7991C39.418 47.4516 40.6882 47.2249 42.3339 47.7991Z" fill="#B41721"/>
<path d="M103.073 85.3644C103.514 87.1435 103.496 87.8336 103.073 89.5383C102.466 89.3852 101.858 89.2322 101.232 89.0745C101.84 87.8502 102.447 86.6258 103.073 85.3644Z" fill="#8B4242"/>
<path d="M44.6343 11.6241C44.6343 11.9302 44.6343 12.2363 44.6343 12.5517C43.4195 13.0108 42.2047 13.4699 40.9531 13.943C40.9531 13.4839 40.9531 13.0247 40.9531 12.5517C42.3741 11.7333 42.901 11.6241 44.6343 11.6241Z" fill="#CD1123"/>
<path d="M48.3156 9.77063C49.0749 9.77063 49.8341 9.77063 50.6163 9.77063C50.6163 10.2298 50.6163 10.6889 50.6163 11.1619C49.7053 11.1619 48.7942 11.1619 47.8555 11.1619C48.0073 10.7028 48.1592 10.2437 48.3156 9.77063Z" fill="#DA1B3E"/>
</g>
<defs>
<clipPath id="clip0_166_840">
<rect width="127" height="128" fill="white" transform="translate(0 0.95813)"/>
</clipPath>
</defs>
</svg>
