<svg width="18" height="19" viewBox="0 0 18 19" fill="none" xmlns="http://www.w3.org/2000/svg">
<path d="M16.5 3.04389C15.75 3.41139 15.015 3.56064 14.25 3.78639C13.4092 2.83764 12.1627 2.78514 10.965 3.23364C9.76725 3.68214 8.98275 4.77864 9 6.03639V6.78639C6.56625 6.84864 4.39875 5.74014 3 3.78639C3 3.78639 -0.1365 9.36114 6 12.0364C4.596 12.9716 3.19575 13.6024 1.5 13.5364C3.981 14.8886 6.68475 15.3536 9.0255 14.6741C11.7105 13.8941 13.917 11.8819 14.7637 8.86764C15.0163 7.95089 15.1418 7.00378 15.1365 6.05289C15.1365 5.86614 16.269 3.97389 16.5 3.04314V3.04389Z" stroke="white" stroke-linecap="round" stroke-linejoin="round"/>
</svg>
