<svg width="18" height="19" viewBox="0 0 18 19" fill="none" xmlns="http://www.w3.org/2000/svg">
<path d="M6.75 7.53619C6.75 7.63565 6.78951 7.73103 6.85983 7.80136C6.93016 7.87169 7.02554 7.91119 7.125 7.91119C7.22446 7.91119 7.31984 7.87169 7.39017 7.80136C7.46049 7.73103 7.5 7.63565 7.5 7.53619V6.78619C7.5 6.68674 7.46049 6.59135 7.39017 6.52103C7.31984 6.4507 7.22446 6.41119 7.125 6.41119C7.02554 6.41119 6.93016 6.4507 6.85983 6.52103C6.78951 6.59135 6.75 6.68674 6.75 6.78619V7.53619ZM6.75 7.53619C6.75 8.53076 7.14509 9.48458 7.84835 10.1878C8.55161 10.8911 9.50544 11.2862 10.5 11.2862M10.5 11.2862H11.25C11.3495 11.2862 11.4448 11.2467 11.5152 11.1764C11.5855 11.106 11.625 11.0107 11.625 10.9112C11.625 10.8117 11.5855 10.7164 11.5152 10.646C11.4448 10.5757 11.3495 10.5362 11.25 10.5362H10.5C10.4005 10.5362 10.3052 10.5757 10.2348 10.646C10.1645 10.7164 10.125 10.8117 10.125 10.9112C10.125 11.0107 10.1645 11.106 10.2348 11.1764C10.3052 11.2467 10.4005 11.2862 10.5 11.2862ZM2.25 15.7862L3.4875 12.9362C2.54075 11.5922 2.117 9.94895 2.29578 8.31475C2.47457 6.68055 3.24359 5.16777 4.45853 4.06031C5.67347 2.95285 7.25081 2.32683 8.89454 2.29975C10.5383 2.27266 12.1354 2.84637 13.3861 3.9132C14.6369 4.98003 15.4554 6.46665 15.6879 8.09407C15.9204 9.72149 15.551 11.3778 14.6491 12.7522C13.7471 14.1267 12.3746 15.1247 10.789 15.559C9.20351 15.9933 7.51397 15.8341 6.0375 15.1112L2.25 15.7862Z" stroke="white" stroke-linecap="round" stroke-linejoin="round"/>
</svg>
