<svg width="135" height="30" viewBox="0 0 135 30" fill="none" xmlns="http://www.w3.org/2000/svg">
<path d="M9.081 7.68818C9.11315 7.81671 9.07642 7.91031 9.0316 8.03225C8.76704 8.75681 8.71658 9.52262 8.71237 10.2877C8.71212 10.3132 8.71212 10.3132 8.71187 10.3391C8.70933 10.6402 8.72761 10.9427 8.81723 11.2321C8.82215 11.2485 8.82707 11.2648 8.83214 11.2816C8.97064 11.7271 9.13433 12.168 9.34044 12.5865C9.35474 12.6164 9.36902 12.6463 9.38328 12.6762C9.51949 12.9588 9.67948 13.2295 9.85933 13.4866C9.86746 13.4982 9.87559 13.5098 9.88397 13.5218C9.99332 13.6777 10.1057 13.8287 10.2307 13.9724C10.2712 14.0193 10.3096 14.0674 10.3479 14.1162C10.4908 14.2914 10.655 14.4513 10.8323 14.5913C10.8871 14.6347 10.9402 14.6798 10.9933 14.7252C11.0595 14.7816 11.1261 14.8369 11.1944 14.8907C11.2982 14.9733 11.4007 15.0588 11.4902 15.157C11.6008 15.2779 11.714 15.3406 11.8608 15.407C11.9017 15.4258 11.9421 15.4455 11.9824 15.4655C12.7152 15.8265 13.498 16.074 14.2898 16.2668C14.5813 16.3384 14.8644 16.4272 15.1368 16.5545C15.1541 16.5625 15.1714 16.5706 15.1893 16.5788C15.3517 16.6558 15.5042 16.7447 15.6535 16.8444C15.6643 16.8515 15.675 16.8586 15.6861 16.866C16.174 17.1927 16.569 17.637 16.8643 18.1426C16.8705 18.1529 16.8767 18.1633 16.883 18.174C17.392 19.0267 17.466 19.9958 17.2318 20.9476C17.0205 21.7682 16.5656 22.5311 15.8957 23.0582C15.8845 23.0671 15.8733 23.0759 15.8618 23.085C15.1231 23.6608 14.2199 23.9061 13.3013 23.9929C13.2781 23.9953 13.2781 23.9953 13.2544 23.9978C12.7083 24.0488 12.1321 24.0333 11.5889 23.9583C11.5764 23.9565 11.564 23.9548 11.5511 23.953C11.1099 23.8915 10.6768 23.8018 10.2455 23.6903C10.2315 23.6867 10.2175 23.6831 10.203 23.6793C10.1343 23.6615 10.0655 23.6435 9.99691 23.6252C9.98437 23.6219 9.97182 23.6186 9.9589 23.6152C9.92473 23.6061 9.8906 23.597 9.85646 23.5879C9.83219 23.5827 9.83219 23.5827 9.80744 23.5775C9.80173 23.5832 9.79602 23.5889 9.79014 23.5948C10.1217 23.9182 10.5182 24.1676 10.9245 24.3858C10.9531 24.4012 10.9817 24.4167 11.0103 24.4323C12.0173 24.9821 13.1388 25.2941 14.2763 25.4165C14.2897 25.418 14.303 25.4194 14.3168 25.4209C14.76 25.468 15.2078 25.4902 15.6535 25.4814C15.6797 25.481 15.6797 25.481 15.7064 25.4805C17.1501 25.4518 18.5817 25.183 23.7868 22.5294C23.8145 22.5067 23.8424 22.4842 23.8702 22.4617C23.9663 22.3841 24.0587 22.3035 24.1494 22.2197C24.1875 22.1849 24.226 22.1508 24.2649 22.1169C24.4455 21.9592 24.6173 21.792 24.787 21.6227C24.8006 21.6092 24.8142 21.5957 24.8281 21.5818C24.8997 21.51 24.9682 21.4368 25.0343 21.36C25.0791 21.3085 25.1261 21.2591 25.1729 21.2094C25.2537 21.1231 25.3306 21.0349 25.4045 20.9426C25.4399 20.8987 25.4762 20.8556 25.5129 20.8128C25.6151 20.6933 25.7123 20.5705 25.8064 20.4446C25.8154 20.4326 25.8244 20.4206 25.8336 20.4083C26.1411 19.9964 26.4295 19.5734 26.6885 19.1292C26.7001 19.1094 26.7001 19.1094 26.7118 19.0893C26.85 18.8525 26.9791 18.6117 27.1036 18.3676C27.11 18.355 27.1164 18.3425 27.1231 18.3296C27.1572 18.2626 27.1907 18.1954 27.2237 18.1279C27.2367 18.1015 27.2496 18.0752 27.2627 18.0489C27.8007 16.96 28.1579 15.7918 28.4226 14.6093C28.4253 14.597 28.4281 14.5847 28.4309 14.5721C28.4421 14.5219 28.453 14.4717 28.4633 14.4213C28.4839 14.3208 28.4839 14.3208 28.5219 14.2828C28.5673 14.2892 28.5673 14.2892 28.6084 14.3001C28.6222 14.4079 28.6277 14.5118 28.6254 14.6204C28.6252 14.636 28.6249 14.6516 28.6246 14.6677C28.6237 14.719 28.6225 14.7702 28.6214 14.8215C28.621 14.8393 28.6206 14.857 28.6202 14.8754C28.5849 16.4171 28.3684 17.9483 27.2495 21.0672C27.225 21.1189 27.2009 21.1708 27.1767 21.2226C27.0689 21.453 26.9517 21.6769 26.8269 21.8985C26.8169 21.9164 26.8069 21.9342 26.7966 21.9526C26.6524 22.2093 26.5 22.4589 26.3366 22.7038C26.3111 22.7421 26.2858 22.7804 26.2606 22.8188C25.9691 23.262 25.6469 23.6828 25.3029 24.0865C25.2521 24.1461 25.2026 24.2066 25.1535 24.2677C25.1019 24.3311 25.0486 24.39 24.9897 24.4467C24.9591 24.4773 24.9308 24.5091 24.9025 24.5419C24.7389 24.7302 24.5641 24.9088 24.3881 25.0855C24.3747 25.099 24.3613 25.1125 24.3474 25.1264C24.2762 25.1975 24.2035 25.2656 24.1273 25.3313C24.0726 25.379 24.0203 25.4293 23.9676 25.4793C23.8787 25.5629 23.7882 25.6429 23.6928 25.7191C23.6363 25.7649 23.5815 25.8124 23.5266 25.86C23.4074 25.9628 23.2851 26.0608 23.1601 26.1565C23.1473 26.1663 23.1345 26.176 23.1213 26.1861C22.7978 26.4329 22.4657 26.6652 22.1223 26.8834C22.1078 26.8927 22.0932 26.9019 22.0782 26.9115C21.8436 27.0601 21.6045 27.1995 21.3613 27.3334C21.333 27.349 21.333 27.349 21.304 27.365C20.1917 27.9748 19.0049 28.4245 17.781 28.7527C17.7673 28.7564 17.7536 28.7601 17.7395 28.7639C16.7288 29.0346 15.6795 29.2034 14.6315 29.2063C14.6041 29.2064 14.5767 29.2065 14.5494 29.2067C14.4623 29.207 14.3753 29.2071 14.2882 29.2071C14.2734 29.2071 14.2585 29.2071 14.2432 29.2071C13.7774 29.2072 13.3152 29.1996 12.8516 29.1508C12.8213 29.1478 12.791 29.1447 12.7607 29.1416C11.4075 29.0015 10.0777 28.676 7.7146 27.5238C7.68541 27.5063 7.65622 27.4888 7.62704 27.4712C7.4807 27.3829 7.33642 27.2921 7.19571 27.195C7.18328 27.1864 7.17085 27.1779 7.15804 27.1691C6.85431 26.96 6.56295 26.7378 6.27902 26.5026C6.26894 26.4943 6.25886 26.4859 6.24848 26.4773C6.12083 26.3713 5.99727 26.2616 5.87576 26.1485C5.85419 26.1288 5.83239 26.1093 5.81047 26.0899C5.68928 25.9826 5.57453 25.8695 5.46034 25.7549C5.42819 25.7226 5.39595 25.6904 5.3637 25.6583C5.26153 25.5561 5.16163 25.4534 5.06828 25.343C5.04313 25.3151 5.01791 25.2874 4.99261 25.2597C4.91079 25.1688 4.83356 25.0747 4.75695 24.9795C4.74115 24.9601 4.72534 24.9407 4.70952 24.9213C4.2701 24.3799 3.89594 23.7916 3.56351 23.1794C3.55406 23.162 3.54461 23.1446 3.53487 23.1267C3.10587 22.3318 2.78293 21.4801 2.57763 20.6004C2.5724 20.5783 2.56717 20.5562 2.56178 20.5334C2.42287 19.9417 2.34344 19.337 2.30089 18.7311C2.29925 18.7086 2.29761 18.6862 2.29591 18.6631C2.27923 18.4167 2.28014 18.1699 2.28035 17.923C2.28036 17.9002 2.28037 17.8775 2.28039 17.8541C2.28071 17.522 2.28456 17.1924 2.31819 16.8617C2.31989 16.8447 2.31989 16.8447 2.32162 16.8272C2.45577 15.483 2.82077 14.1746 3.43976 12.9716C3.45462 12.9427 3.46939 12.9137 3.4841 12.8847C3.61083 12.6349 3.74385 12.3914 3.89214 12.1538C3.9018 12.1382 3.91146 12.1227 3.92141 12.1067C4.05481 11.8924 4.19335 11.6829 4.34184 11.4788C4.35157 11.4654 4.36129 11.4519 4.37131 11.4381C4.50192 11.2583 4.63508 11.0809 4.77425 10.9076C4.78713 10.8915 4.80002 10.8755 4.8133 10.8589C4.95535 10.6836 5.10212 10.512 5.25392 10.3451C5.27847 10.318 5.3029 10.2907 5.32713 10.2633C5.42456 10.1533 5.52628 10.0485 5.63029 9.94481C5.65752 9.91765 5.68466 9.89041 5.71179 9.86315C5.80565 9.76916 5.90118 9.67836 6.00228 9.59213C6.03008 9.56695 6.05784 9.54172 6.08551 9.5164C6.17631 9.43452 6.2703 9.35725 6.3655 9.28057C6.3851 9.26455 6.40469 9.24853 6.42428 9.2325C6.98049 8.77938 7.59548 8.3936 8.22739 8.0562C8.26296 8.0371 8.29833 8.01769 8.33361 7.99804C8.47381 7.92093 8.61739 7.85158 8.7621 7.78338C8.78167 7.77401 8.80124 7.76464 8.8214 7.75498C8.84002 7.74632 8.85865 7.73767 8.87783 7.72875C8.89448 7.72093 8.91113 7.71311 8.92827 7.70505C8.98202 7.68653 9.02456 7.68505 9.081 7.68818Z" fill="#0F84C2"/>
<path d="M14.4889 0.671407C14.5027 0.671196 14.5165 0.670984 14.5307 0.670767C15.061 0.663843 15.5958 0.759194 16.1193 0.835196C16.1754 0.843303 16.2316 0.851265 16.2877 0.85923C16.7747 0.92844 17.2641 0.998282 17.7441 1.10742C17.7628 1.11164 17.7628 1.11164 17.782 1.11594C18.9038 1.36967 20.0155 1.84195 20.9978 2.43327C21.044 2.46098 21.0904 2.48829 21.1369 2.51549C21.3375 2.63343 21.5304 2.76036 21.7203 2.89477C21.7338 2.90426 21.7472 2.91376 21.761 2.92354C21.9359 3.04756 22.1069 3.17565 22.2738 3.31023C22.298 3.32961 22.298 3.32961 22.3226 3.34938C22.6336 3.60178 22.9251 3.8723 23.2078 4.15606C23.2429 4.19133 23.2781 4.22649 23.3134 4.26165C23.3362 4.28455 23.3591 4.30745 23.382 4.33036C23.3922 4.34062 23.4025 4.35088 23.4131 4.36146C23.4865 4.43526 23.5552 4.51234 23.623 4.59124C23.6399 4.61058 23.6567 4.62992 23.6736 4.64925C23.7849 4.77785 23.8922 4.90891 23.996 5.04364C24.022 5.07733 24.0481 5.11088 24.0743 5.14444C24.3902 5.55167 24.6704 5.9829 24.927 6.42979C24.9456 6.4619 24.9643 6.4939 24.9833 6.52578C25.1255 6.76569 25.2279 7.00791 25.3129 7.27268C25.3662 7.43668 25.4365 7.57727 25.5258 7.7245C25.5506 7.76944 25.5741 7.81491 25.5971 7.86082C25.6075 7.88113 25.6179 7.90144 25.6286 7.92236C25.7324 8.14382 25.8023 8.37994 25.8717 8.61385C25.8762 8.62906 25.8808 8.64427 25.8854 8.65995C26.0931 9.35994 26.2082 10.0806 26.2868 10.8058C26.2883 10.819 26.2897 10.8322 26.2912 10.8458C26.371 11.5827 26.3742 12.3373 26.2868 13.0736C26.2854 13.0863 26.2839 13.0989 26.2824 13.112C26.1552 14.2118 25.8935 15.2918 25.4566 16.3107C25.4463 16.3346 25.4463 16.3346 25.4359 16.359C25.3926 16.4591 25.3471 16.5581 25.3009 16.6569C25.2897 16.6812 25.2897 16.6812 25.2782 16.706C25.0233 17.2573 24.7201 17.7896 24.3668 18.2841C24.3583 18.2962 24.3497 18.3083 24.3409 18.3208C24.0432 18.7415 23.7209 19.1441 23.3703 19.5218C23.3458 19.5483 23.3216 19.5749 23.2974 19.6016C23.1326 19.7828 22.964 19.9645 22.7767 20.1227C22.7372 20.1569 22.6991 20.1923 22.661 20.228C22.5527 20.3292 22.4413 20.4245 22.3257 20.5172C22.3045 20.5346 22.2833 20.5521 22.2621 20.5696C21.6358 21.0848 20.9505 21.5258 20.2327 21.9021C20.2119 21.9131 20.1911 21.924 20.1702 21.935C20.1057 21.9688 20.0411 22.0026 19.9765 22.0363C19.9563 22.0468 19.9361 22.0574 19.9152 22.0682C19.8964 22.0779 19.8777 22.0876 19.8583 22.0977C19.8417 22.1063 19.825 22.1149 19.8079 22.1238C19.7498 22.1522 19.7054 22.1639 19.6414 22.1628C19.6196 22.1625 19.5979 22.1621 19.5754 22.1618C19.5521 22.1151 19.567 22.09 19.5825 22.0423C19.5865 22.0307 19.5904 22.019 19.5944 22.007C19.6026 21.9819 19.6108 21.9567 19.619 21.9315C19.6234 21.9182 19.6277 21.905 19.6322 21.8913C19.7573 21.5093 19.8576 21.1251 19.9041 20.725C19.9068 20.7029 19.9068 20.7029 19.9095 20.6804C20.045 19.5142 19.856 18.2974 19.3333 17.2455C19.3264 17.2313 19.3194 17.2172 19.3123 17.2026C19.1474 16.8681 18.9484 16.5485 18.7178 16.2553C18.6928 16.2236 18.6682 16.1916 18.6436 16.1595C18.5604 16.0515 18.4747 15.9473 18.3824 15.8469C18.3516 15.8134 18.3218 15.7793 18.2922 15.7448C18.0964 15.5196 18.0964 15.5196 17.8783 15.3167C17.8406 15.2851 17.805 15.2515 17.7689 15.2179C17.6454 15.1065 17.5119 15.0078 17.3787 14.9085C17.3684 14.9008 17.3582 14.8931 17.3476 14.8852C16.8176 14.4887 16.2171 14.1931 15.6014 13.9564C15.5891 13.9517 15.5768 13.9469 15.5642 13.9421C15.329 13.8517 15.096 13.7826 14.8468 13.7422C13.9813 13.5932 13.1314 13.2604 12.4959 12.6353C12.4626 12.6026 12.4288 12.5704 12.395 12.5381C12.1481 12.2997 11.9452 12.0382 11.7743 11.7406C11.7666 11.7272 11.7589 11.7139 11.7509 11.7001C11.2592 10.8353 11.1728 9.81683 11.432 8.8637C11.5549 8.42619 11.7488 7.98909 12.0165 7.62064C12.0283 7.6041 12.0401 7.58757 12.0523 7.57053C12.2562 7.29148 12.4863 7.03607 12.7603 6.82434C12.7696 6.81702 12.779 6.80971 12.7886 6.80217C13.8771 5.95577 15.3934 5.73959 16.7318 5.89687C16.9193 5.92076 17.1059 5.94869 17.2913 5.98572C17.5058 6.02841 17.7203 6.04605 17.9383 6.06047C18.0659 6.06934 18.1858 6.08118 18.3078 6.12311C18.3548 6.13357 18.3876 6.12684 18.4338 6.11459C18.4411 6.0663 18.4411 6.0663 18.4338 6.01073C18.3989 5.96564 18.3989 5.96564 18.3473 5.92417C18.3379 5.91541 18.3286 5.90665 18.3189 5.89763C18.2246 5.81083 18.1224 5.74558 18.0122 5.68074C17.9933 5.66955 17.9744 5.65836 17.9549 5.64683C16.5371 4.81368 14.9669 4.42407 13.3311 4.38351C13.316 4.3831 13.301 4.3827 13.2855 4.38228C11.8614 4.34895 10.4339 4.64356 6.13476 6.4636C6.09121 6.49061 6.04752 6.51738 6.00371 6.54398C5.55112 6.82025 5.12075 7.14431 4.71809 7.48911C4.67097 7.52935 4.62273 7.568 4.57424 7.60657C4.44952 7.70817 4.33461 7.82041 4.2182 7.93131C4.17065 7.97641 4.12268 8.02106 4.07466 8.06566C3.94101 8.18982 3.81046 8.31418 3.69146 8.45271C3.66249 8.4854 3.6324 8.51615 3.60126 8.54677C3.55049 8.5969 3.50306 8.64889 3.45653 8.70297C3.42744 8.73678 3.39814 8.77037 3.36869 8.80386C3.2592 8.92876 3.15349 9.05562 3.05186 9.187C3.01158 9.23905 2.97033 9.29023 2.92883 9.34131C2.48883 9.88469 2.11274 10.4883 1.77638 11.1001C1.76092 11.1282 1.76092 11.1282 1.74516 11.1569C1.05472 12.4168 0.557934 13.7687 0.243548 15.1701C0.2069 15.3316 0.164085 15.4829 0.0985296 15.6356C0.0928215 15.6356 0.0871133 15.6356 0.0812322 15.6356C0.0684559 15.5555 0.0617179 15.4787 0.0616375 15.3977C0.0615998 15.3753 0.0615622 15.3528 0.0615234 15.3297C0.0615938 15.3054 0.0616773 15.2812 0.0617726 15.2569C0.0618052 15.2443 0.0618383 15.2318 0.0618718 15.2189C0.0661559 13.7942 0.233114 12.3831 0.796439 10.3897C0.80747 10.3565 0.818363 10.3233 0.829253 10.2901C0.981398 9.82671 1.16353 9.37549 1.37202 8.9347C1.39662 8.88267 1.42096 8.83052 1.4453 8.77837C1.76311 8.10192 2.14266 7.44783 2.58116 6.84232C2.60793 6.80526 2.63444 6.76802 2.66091 6.73075C2.79361 6.54454 2.93194 6.36323 3.07369 6.18384C3.08707 6.1669 3.10045 6.14996 3.11423 6.13251C3.14665 6.09176 3.17929 6.05119 3.21207 6.01073C3.22382 5.99615 3.23557 5.98158 3.24768 5.96657C3.40051 5.77817 3.5583 5.59468 3.72302 5.41661C3.7592 5.37718 3.79449 5.33724 3.82937 5.29665C3.88068 5.23734 3.93556 5.1825 3.9914 5.12747C4.0222 5.09615 4.05074 5.06402 4.0791 5.0305C4.20605 4.88301 4.34733 4.74418 4.49573 4.61842C4.53071 4.58769 4.56321 4.55518 4.59586 4.52199C4.65072 4.46635 4.70753 4.41436 4.76674 4.36342C4.80732 4.3282 4.84698 4.29205 4.88668 4.25584C4.96005 4.18964 5.03531 4.12646 5.11215 4.06434C5.15264 4.03157 5.19267 3.9983 5.23256 3.9648C5.39993 3.82464 5.57186 3.69267 5.74872 3.56475C5.78814 3.53618 5.8274 3.50739 5.86662 3.47854C7.21311 2.49146 8.7417 1.78239 14.4889 0.671407Z" fill="#35A25A"/>
<path d="M104.438 5.08441C104.508 5.14543 104.574 5.20851 104.64 5.27398C104.672 5.30508 104.672 5.30508 104.705 5.33681C105.176 5.82285 105.286 6.45465 105.285 7.10678C105.285 7.15757 105.285 7.20836 105.285 7.25915C105.286 7.39815 105.286 7.53715 105.286 7.67615C105.286 7.82629 105.286 7.97643 105.286 8.12657C105.287 8.38663 105.287 8.64669 105.287 8.90676C105.287 9.28333 105.288 9.65991 105.288 10.0365C105.289 10.6482 105.29 11.26 105.291 11.8718C105.291 11.9084 105.291 11.945 105.291 11.9827C105.291 12.2423 105.291 12.502 105.291 12.7617C105.292 13.0579 105.292 13.3542 105.292 13.6504C105.292 13.7051 105.292 13.7051 105.292 13.761C105.293 14.3702 105.294 14.9795 105.295 15.5887C105.296 15.9641 105.296 16.3395 105.296 16.7149C105.296 16.9724 105.297 17.2299 105.297 17.4874C105.297 17.6357 105.297 17.7841 105.297 17.9324C105.297 18.0685 105.297 18.2047 105.298 18.3408C105.298 18.3897 105.298 18.4387 105.298 18.4876C105.296 19.2325 105.34 20.0634 105.893 20.6252C106.508 21.1631 107.429 21.4663 108.242 21.4188C108.931 21.3633 109.63 21.1509 110.158 20.6931C110.179 20.6759 110.199 20.6586 110.22 20.6408C110.591 20.2998 110.746 19.8237 110.772 19.3321C110.777 19.1792 110.776 19.0262 110.775 18.8733C110.775 18.8219 110.775 18.7705 110.775 18.7191C110.775 18.5789 110.775 18.4387 110.774 18.2984C110.774 18.1468 110.774 17.9952 110.774 17.8436C110.774 17.5811 110.773 17.3187 110.773 17.0562C110.772 16.6762 110.772 16.2963 110.771 15.9163C110.771 15.2991 110.77 14.682 110.77 14.0648C110.77 14.0464 110.77 14.0279 110.77 14.0089C110.769 13.7096 110.769 13.4104 110.769 13.1111C110.768 12.8307 110.768 12.5504 110.767 12.27C110.767 12.2516 110.767 12.2332 110.767 12.2142C110.767 11.5807 110.766 10.9473 110.766 10.3138C110.765 9.93494 110.765 9.55606 110.764 9.17718C110.764 8.91749 110.763 8.65779 110.763 8.39809C110.763 8.24841 110.763 8.09873 110.763 7.94905C110.762 7.81179 110.762 7.67453 110.762 7.53726C110.762 7.48785 110.762 7.43843 110.762 7.38902C110.759 6.62548 110.872 5.9095 111.406 5.32945C111.421 5.31229 111.436 5.29513 111.451 5.27745C111.829 4.85945 112.441 4.61194 112.994 4.57673C113.714 4.54805 114.315 4.73036 114.867 5.20119C115.313 5.62031 115.576 6.235 115.598 6.84526C115.598 6.88184 115.598 6.91842 115.598 6.95611C115.598 6.9767 115.598 6.9973 115.598 7.01852C115.598 7.08742 115.598 7.15632 115.598 7.22522C115.598 7.27517 115.598 7.32512 115.598 7.37507C115.598 7.51226 115.598 7.64945 115.598 7.78665C115.598 7.93466 115.598 8.08266 115.598 8.23067C115.599 8.52072 115.599 8.81076 115.599 9.1008C115.599 9.33675 115.599 9.57269 115.599 9.80863C115.599 10.4781 115.599 11.1476 115.599 11.817C115.599 11.8712 115.599 11.8712 115.599 11.9264C115.599 11.9806 115.599 11.9806 115.599 12.0359C115.599 12.6208 115.599 13.2056 115.6 13.7904C115.6 14.3914 115.6 14.9924 115.6 15.5934C115.6 15.9306 115.6 16.2678 115.601 16.605C115.601 16.8923 115.601 17.1797 115.601 17.467C115.601 17.6134 115.601 17.7597 115.601 17.9061C115.603 19.2296 115.603 19.2296 115.49 19.8456C115.483 19.8845 115.483 19.8845 115.476 19.9243C115.265 21.0485 114.804 22.0555 114.041 22.9117C114.028 22.9261 114.016 22.9405 114.003 22.9553C113.477 23.5502 112.825 24.0087 112.127 24.3815C112.11 24.3909 112.093 24.4002 112.075 24.4099C110.823 25.0815 109.274 25.4146 107.857 25.3521C107.831 25.351 107.804 25.3499 107.778 25.3487C106.242 25.2736 104.775 24.8044 103.428 24.0763C103.171 23.9396 102.973 23.8756 102.687 23.9427C102.543 23.9885 102.413 24.0636 102.281 24.1354C102.219 24.1683 102.157 24.2012 102.094 24.2341C102.037 24.2647 101.979 24.2954 101.922 24.326C100.642 25.0076 99.2108 25.3314 97.7656 25.3296C97.7278 25.3296 97.7278 25.3296 97.6892 25.3296C97.3043 25.3289 96.9239 25.3202 96.5419 25.2689C96.5147 25.2654 96.4875 25.2618 96.4594 25.2581C94.9651 25.0556 93.5616 24.4754 92.4098 23.4941C92.3801 23.4695 92.3503 23.4449 92.3206 23.4203C91.9579 23.1184 91.6138 22.7893 91.3283 22.4125C91.3106 22.3897 91.3106 22.3897 91.2925 22.3663C91.093 22.1085 90.9232 21.8424 90.7736 21.5528C90.7592 21.5251 90.7592 21.5251 90.7445 21.4967C90.3399 20.7071 90.1869 19.8624 90.1874 18.9816C90.1873 18.9286 90.1872 18.8755 90.1871 18.8225C90.1869 18.6772 90.1868 18.5319 90.1868 18.3867C90.1868 18.2298 90.1866 18.073 90.1864 17.9161C90.186 17.5733 90.1858 17.2306 90.1857 16.8878C90.1856 16.6737 90.1855 16.4596 90.1854 16.2455C90.185 15.6524 90.1848 15.0593 90.1847 14.4662C90.1847 14.4278 90.1847 14.3895 90.1846 14.3512C90.1846 14.3128 90.1846 14.2744 90.1846 14.236C90.1846 14.1589 90.1846 14.0819 90.1846 14.0049C90.1846 13.9858 90.1846 13.9667 90.1846 13.947C90.1845 13.3276 90.184 12.7083 90.1834 12.0889C90.1827 11.4335 90.1823 10.778 90.1823 10.1226C90.1823 9.76553 90.1821 9.40848 90.1816 9.05143C90.1812 8.74742 90.181 8.44341 90.1813 8.13941C90.1814 7.98439 90.1814 7.82938 90.181 7.67437C90.1806 7.53226 90.1806 7.39016 90.181 7.24805C90.181 7.19684 90.181 7.14563 90.1807 7.09443C90.1776 6.40426 90.3331 5.80686 90.8291 5.30172C90.8475 5.28259 90.866 5.26346 90.885 5.24376C91.3441 4.80128 92.0212 4.59229 92.6494 4.59861C93.2594 4.61816 93.8093 4.84527 94.2679 5.24625C94.287 5.26266 94.306 5.27907 94.3256 5.29597C94.7158 5.65688 94.9464 6.18423 94.9704 6.71019C94.9763 6.89453 94.9783 7.0789 94.9798 7.26333C94.9805 7.34146 94.9814 7.41958 94.9824 7.49771C94.9945 8.52319 94.9911 9.54883 94.9892 10.5744C94.9886 10.8934 94.9883 11.2124 94.988 11.5314C94.9879 11.6513 94.9878 11.7712 94.9877 11.8912C94.9876 11.9211 94.9876 11.951 94.9876 11.9818C94.9873 12.3183 94.9869 12.6547 94.9865 12.9912C94.9864 13.0218 94.9864 13.0523 94.9863 13.0838C94.9857 13.5827 94.9849 14.0815 94.984 14.5803C94.9831 15.0967 94.9825 15.6131 94.9822 16.1295C94.982 16.4459 94.9816 16.7624 94.9808 17.0788C94.9802 17.295 94.98 17.5112 94.98 17.7275C94.98 17.8517 94.9799 17.9759 94.9794 18.1001C94.9655 19.463 94.9655 19.463 95.6133 20.6254C96.0813 21.0799 96.745 21.2839 97.3739 21.3864C97.3959 21.3901 97.4178 21.3937 97.4404 21.3975C98.2441 21.508 99.0835 21.2554 99.7312 20.7763C100.111 20.4696 100.356 20.1014 100.424 19.6116C100.453 19.3044 100.456 18.9984 100.455 18.6903C100.455 18.6404 100.455 18.5906 100.455 18.5407C100.455 18.4049 100.455 18.269 100.455 18.1332C100.454 17.9862 100.454 17.8393 100.454 17.6924C100.454 17.438 100.454 17.1836 100.453 16.9293C100.453 16.5609 100.453 16.1926 100.452 15.8242C100.452 15.2257 100.452 14.6272 100.451 14.0287C100.451 13.9929 100.451 13.9572 100.451 13.9203C100.451 13.4127 100.45 12.9051 100.45 12.3975C100.45 12.3618 100.45 12.3261 100.45 12.2892C100.449 12.2536 100.449 12.2179 100.449 12.1811C100.449 11.5849 100.448 10.9887 100.448 10.3925C100.448 10.0253 100.448 9.65815 100.447 9.29096C100.447 9.03914 100.446 8.78732 100.446 8.5355C100.446 8.39046 100.446 8.24543 100.446 8.1004C100.446 7.96725 100.446 7.83411 100.446 7.70096C100.446 7.65317 100.446 7.60538 100.445 7.55759C100.442 6.69358 100.552 5.89818 101.165 5.24278C102.036 4.41194 103.493 4.33203 104.438 5.08441Z" fill="#236CAA"/>
<path d="M78.9776 4.54447C79.0102 4.54452 79.0428 4.54457 79.0764 4.54462C79.588 4.54595 80.0898 4.56187 80.5965 4.63633C80.6469 4.64369 80.6469 4.64369 80.6984 4.6512C82.1938 4.87659 83.8631 5.32036 85.0337 6.328C85.0594 6.35002 85.0852 6.37204 85.1118 6.39473C85.2911 6.55236 85.4441 6.72023 85.5883 6.91038C85.6048 6.93193 85.6212 6.95349 85.6381 6.9757C86.4932 8.14655 86.4849 9.52806 86.4823 10.9158C86.482 11.0731 86.4821 11.2304 86.4821 11.3877C86.4821 11.6524 86.4818 11.9172 86.4815 12.182C86.4811 12.4504 86.4809 12.7189 86.4809 12.9873C86.481 15.6397 86.481 15.6397 86.4525 16.8765C86.4445 17.2284 86.4437 17.5802 86.4445 17.9322C86.4446 17.9819 86.4446 17.9819 86.4446 18.0326C86.445 18.4513 86.4503 18.8692 86.4656 19.2876C86.5046 20.3575 86.4755 21.4013 86.0043 22.385C85.9957 22.4034 85.987 22.4217 85.9781 22.4407C85.5595 23.3191 84.8026 23.9667 83.9521 24.4094C83.9337 24.4193 83.9152 24.4292 83.8962 24.4394C83.2647 24.7746 82.541 24.9811 81.8445 25.1305C81.8267 25.1343 81.809 25.1381 81.7907 25.142C81.1745 25.2743 80.5583 25.3737 79.9309 25.4355C79.8909 25.4398 79.8909 25.4398 79.8501 25.4442C79.5189 25.4753 79.1851 25.47 78.8528 25.4702C78.8194 25.4702 78.7859 25.4702 78.7515 25.4702C78.2335 25.4698 77.7265 25.4546 77.2132 25.3801C77.1788 25.3752 77.1444 25.3702 77.109 25.3652C76.3377 25.2521 75.5956 25.0704 74.8559 24.8254C74.8145 24.8118 74.8145 24.8118 74.7723 24.7979C74.1946 24.6055 73.6267 24.3586 73.1365 23.9934C73.1118 23.975 73.0871 23.9566 73.0616 23.9377C72.1138 23.203 71.5418 22.1859 71.3821 20.9994C71.3624 20.8356 71.3558 20.6733 71.353 20.5084C71.3524 20.4796 71.3519 20.4509 71.3513 20.4212C71.3495 20.3253 71.3479 20.2294 71.3463 20.1335C71.3457 20.0998 71.3451 20.066 71.3445 20.0312C71.3303 19.1899 71.3298 18.3486 71.3302 17.5072C71.3302 17.3505 71.3302 17.1939 71.3302 17.0372C71.3302 17.0145 71.3302 16.9917 71.3302 16.9683C71.3302 16.922 71.3302 16.8757 71.3302 16.8294C71.3301 16.4008 71.3302 15.9721 71.3303 15.5434C71.3305 15.1797 71.3304 14.816 71.3303 14.4523C71.3302 14.0246 71.3301 13.5968 71.3302 13.1691C71.3302 13.123 71.3302 13.077 71.3302 13.0309C71.3302 13.0083 71.3302 12.9857 71.3302 12.9623C71.3303 12.8068 71.3302 12.6513 71.3302 12.4957C71.3298 11.6875 71.33 10.8792 71.3415 10.0711C71.3424 10.0074 71.3431 9.94369 71.3437 9.88C71.349 9.37631 71.3867 8.87863 71.5194 8.39059C71.5264 8.36431 71.5334 8.33803 71.5407 8.31096C71.6146 8.04611 71.7152 7.79627 71.8331 7.54822C71.8461 7.52058 71.8461 7.52058 71.8593 7.49239C72.2214 6.73269 72.8452 6.11698 73.5802 5.71789C73.5966 5.7088 73.613 5.69971 73.6299 5.69035C74.6693 5.11951 75.9065 4.83863 77.0728 4.66926C77.1009 4.66512 77.1009 4.66512 77.1296 4.6609C77.7434 4.57199 78.358 4.54246 78.9776 4.54447ZM76.7695 8.65751C76.7471 8.67424 76.7247 8.69097 76.7016 8.70821C76.3369 9.01828 76.2164 9.5062 76.1593 9.96092C76.1491 10.1059 76.148 10.2503 76.1488 10.3956C76.1487 10.437 76.1485 10.4785 76.1484 10.52C76.148 10.6325 76.1482 10.745 76.1485 10.8575C76.1487 10.9794 76.1484 11.1013 76.1481 11.2232C76.1478 11.4614 76.1478 11.6996 76.1481 11.9378C76.1483 12.1315 76.1483 12.3252 76.1482 12.519C76.1482 12.5466 76.1482 12.5743 76.1482 12.6028C76.1481 12.659 76.1481 12.7152 76.1481 12.7714C76.1479 13.2975 76.1481 13.8235 76.1486 14.3495C76.1489 14.8001 76.1489 15.2506 76.1485 15.7012C76.1481 16.2254 76.1479 16.7497 76.1481 17.274C76.1482 17.33 76.1482 17.386 76.1482 17.442C76.1482 17.4695 76.1482 17.497 76.1482 17.5254C76.1483 17.7187 76.1482 17.9121 76.148 18.1054C76.1478 18.3412 76.1478 18.5771 76.1483 18.8129C76.1485 18.9331 76.1486 19.0532 76.1483 19.1734C76.1481 19.2837 76.1482 19.394 76.1486 19.5043C76.1487 19.5439 76.1487 19.5834 76.1485 19.623C76.1455 20.241 76.2692 20.8496 76.7071 21.3103C77.1173 21.6991 77.6694 21.8778 78.2115 21.9967C78.2421 22.0036 78.2727 22.0104 78.3043 22.0174C79.1849 22.182 80.1032 21.9299 80.8424 21.4454C80.9024 21.4007 80.9575 21.354 81.0125 21.3034C81.033 21.2857 81.0536 21.268 81.0748 21.2497C81.4692 20.8878 81.6279 20.3692 81.6555 19.846C81.6575 19.7386 81.6579 19.6312 81.6576 19.5237C81.6576 19.4824 81.6578 19.4411 81.6579 19.3997C81.6582 19.2872 81.6581 19.1746 81.658 19.062C81.6579 18.9402 81.6582 18.8184 81.6584 18.6966C81.6587 18.4584 81.6588 18.2201 81.6587 17.9819C81.6587 17.7882 81.6587 17.5945 81.6588 17.4008C81.6589 17.3593 81.6589 17.3593 81.6589 17.3171C81.6589 17.2609 81.6589 17.2048 81.659 17.1487C81.6593 16.623 81.6592 16.0973 81.6591 15.5716C81.6589 15.0911 81.6592 14.6107 81.6598 14.1303C81.6603 13.6364 81.6605 13.1424 81.6604 12.6484C81.6604 12.3714 81.6604 12.0943 81.6608 11.8173C81.6612 11.5815 81.6612 11.3456 81.6609 11.1098C81.6607 10.9896 81.6607 10.8694 81.661 10.7493C81.6613 10.639 81.6612 10.5288 81.6608 10.4185C81.6607 10.3788 81.6608 10.3392 81.661 10.2995C81.6639 9.74379 81.5206 9.20903 81.1355 8.7927C80.5113 8.2056 79.5824 7.9342 78.7429 7.9564C78.0692 7.98648 77.2793 8.19995 76.7695 8.65751Z" fill="#236CAA"/>
<path d="M133.091 6.43608C134.213 7.53891 134.468 9.09985 134.483 10.6074C134.484 10.8209 134.484 11.0345 134.484 11.248C134.484 11.3593 134.484 11.4707 134.484 11.582C134.484 11.7994 134.485 12.0167 134.485 12.234C134.485 12.411 134.485 12.588 134.485 12.765C134.485 13.2692 134.485 13.7733 134.485 14.2775C134.485 14.3181 134.485 14.3181 134.485 14.3595C134.485 14.4002 134.485 14.4002 134.485 14.4417C134.485 14.8802 134.485 15.3187 134.486 15.7572C134.486 16.2097 134.486 16.6622 134.486 17.1148C134.486 17.3679 134.486 17.6211 134.487 17.8742C134.487 18.0898 134.487 18.3054 134.487 18.5211C134.487 18.6306 134.487 18.7401 134.487 18.8497C134.488 19.2871 134.481 19.7227 134.455 20.1594C134.454 20.1781 134.453 20.1967 134.452 20.216C134.387 21.2896 134.134 22.352 133.426 23.1889C133.414 23.203 133.402 23.2172 133.39 23.2317C132.053 24.7958 129.638 25.223 127.686 25.3797C127.65 25.3826 127.65 25.3826 127.613 25.3856C125.385 25.5582 122.545 25.1487 120.789 23.6526C120.72 23.5917 120.653 23.5294 120.586 23.4662C120.564 23.4455 120.541 23.4249 120.518 23.4036C119.683 22.6081 119.36 21.4639 119.314 20.3428C119.311 20.2763 119.308 20.2098 119.304 20.1433C119.282 19.6399 119.274 19.1364 119.272 18.6326C119.272 18.5777 119.272 18.5228 119.272 18.4678C119.264 16.9194 119.605 15.4345 120.586 14.2036C120.619 14.162 120.619 14.162 120.653 14.1195C120.961 13.7401 121.31 13.3896 121.705 13.1006C121.75 13.067 121.796 13.0326 121.841 12.9981C122.693 12.358 123.721 11.9778 124.775 11.8533C124.803 11.8501 124.83 11.8469 124.858 11.8436C125.394 11.7862 125.934 11.7864 126.473 11.7845C126.597 11.7841 126.721 11.7834 126.845 11.7827C127.197 11.7808 127.549 11.7791 127.9 11.7777C128.096 11.7769 128.291 11.7759 128.487 11.7747C128.61 11.774 128.733 11.7735 128.856 11.7732C128.95 11.7729 129.044 11.7722 129.139 11.7716C129.19 11.7715 129.19 11.7715 129.241 11.7715C129.273 11.7712 129.304 11.771 129.336 11.7707C129.376 11.7705 129.376 11.7705 129.417 11.7703C129.49 11.7629 129.536 11.745 129.599 11.7077C129.601 11.5238 129.603 11.34 129.604 11.1561C129.604 11.0938 129.605 11.0315 129.605 10.9691C129.615 10.1476 129.522 9.35183 128.927 8.73092C128.513 8.33384 127.992 8.17932 127.436 8.10251C127.409 8.09883 127.383 8.09514 127.356 8.09135C126.048 7.95139 124.792 8.33195 123.574 8.75725C123.526 8.77397 123.526 8.77397 123.477 8.79103C123.318 8.84663 123.159 8.9026 123 8.95926C122.602 9.10013 122.218 9.22945 121.791 9.2222C121.754 9.22181 121.754 9.22181 121.716 9.22141C121.203 9.20978 120.733 9.03977 120.371 8.66755C120.095 8.34643 120.002 7.9632 120.026 7.54827C120.068 7.09298 120.28 6.66282 120.586 6.32764C120.607 6.30282 120.607 6.30282 120.629 6.27749C121.798 4.98541 124.812 4.65497 126.422 4.56144C128.687 4.45477 131.382 4.80235 133.091 6.43608ZM124.746 15.8398C124.73 15.8554 124.715 15.871 124.699 15.887C124.035 16.607 124.047 17.8886 124.08 18.8072C124.101 19.2472 124.158 19.6791 124.247 20.1106C124.251 20.1307 124.255 20.1508 124.259 20.1715C124.34 20.556 124.508 20.9277 124.774 21.2199C124.794 21.2426 124.813 21.2653 124.834 21.2887C125.013 21.4821 125.206 21.6023 125.439 21.719C125.466 21.7325 125.492 21.7459 125.52 21.7597C125.85 21.9116 126.242 21.9837 126.604 21.9964C126.631 21.9975 126.657 21.9986 126.685 21.9997C127.487 22.0167 128.333 21.8182 128.928 21.2531C128.948 21.233 128.968 21.2129 128.989 21.1921C129.015 21.1667 129.015 21.1667 129.041 21.1407C129.451 20.708 129.569 20.1519 129.587 19.5761C129.588 19.5396 129.589 19.5031 129.59 19.4654C129.603 19.049 129.603 18.6325 129.602 18.2159C129.602 18.1054 129.602 17.9949 129.602 17.8844C129.602 17.6767 129.601 17.469 129.601 17.2613C129.601 17.0242 129.601 16.7871 129.6 16.55C129.6 16.0637 129.6 15.5774 129.599 15.091C129.468 15.0526 129.343 15.0235 129.207 15.0061C129.175 15.0018 129.142 14.9975 129.108 14.993C128.774 14.9552 128.442 14.9457 128.107 14.9454C128.07 14.9454 128.07 14.9454 128.033 14.9454C126.908 14.9468 125.588 14.9976 124.746 15.8398Z" fill="#236CAA"/>
<path d="M60.0286 4.52003C60.0556 4.52006 60.0826 4.52008 60.1105 4.52011C61.859 4.52374 63.5459 4.92757 65.1209 5.68999C65.1413 5.69981 65.1617 5.70963 65.1827 5.71975C65.6162 5.9311 65.9969 6.21364 66.3411 6.54969C66.3733 6.57934 66.3733 6.57934 66.4062 6.60959C67.1884 7.34758 67.4918 8.43486 67.5367 9.47845C67.5415 9.65032 67.5412 9.82219 67.5408 9.99412C67.5409 10.0509 67.541 10.1077 67.5412 10.1645C67.5414 10.3188 67.5414 10.4731 67.5413 10.6274C67.5412 10.7944 67.5414 10.9615 67.5417 11.1286C67.542 11.4551 67.5421 11.7817 67.542 12.1083C67.5419 12.3738 67.542 12.6393 67.5421 12.9048C67.5421 12.9431 67.5421 12.9814 67.5422 13.0196C67.5422 13.0773 67.5422 13.135 67.5422 13.1927C67.5425 13.7281 67.5426 14.2636 67.5425 14.799C67.5425 14.8192 67.5425 14.8393 67.5425 14.8601C67.5424 14.9621 67.5424 15.0642 67.5424 15.1663C67.5424 15.1865 67.5424 15.2068 67.5424 15.2277C67.5424 15.2687 67.5424 15.3097 67.5423 15.3506C67.5422 15.9888 67.5424 16.6269 67.5429 17.265C67.5435 17.9833 67.5438 18.7015 67.5437 19.4198C67.5437 19.4964 67.5437 19.5731 67.5437 19.6497C67.5437 19.6686 67.5437 19.6874 67.5437 19.7069C67.5436 19.991 67.5438 20.2751 67.5441 20.5593C67.5444 20.8825 67.5445 21.2056 67.5441 21.5288C67.544 21.6936 67.5439 21.8583 67.5443 22.023C67.5446 22.1741 67.5445 22.3251 67.5441 22.4762C67.544 22.5306 67.5441 22.585 67.5443 22.6393C67.5473 23.4171 67.374 24.154 66.8112 24.7221C66.3031 25.2061 65.667 25.3685 64.9836 25.3598C64.3892 25.341 63.8525 25.0964 63.4206 24.6918C62.8277 24.0584 62.6982 23.2541 62.7019 22.4177C62.7019 22.3664 62.7019 22.3151 62.7019 22.2638C62.7019 22.1241 62.7022 21.9843 62.7026 21.8446C62.7029 21.6934 62.703 21.5422 62.703 21.391C62.7032 21.1294 62.7035 20.8677 62.704 20.606C62.7047 20.227 62.7051 19.848 62.7053 19.4689C62.7057 18.853 62.7063 18.237 62.7071 17.621C62.7071 17.5934 62.7071 17.5934 62.7071 17.5653C62.7075 17.2667 62.7079 16.9682 62.7083 16.6697C62.7086 16.3902 62.709 16.1108 62.7093 15.8314C62.7094 15.813 62.7094 15.7947 62.7094 15.7757C62.7102 15.1437 62.7108 14.5116 62.7112 13.8796C62.7114 13.5018 62.7119 13.124 62.7126 12.7463C62.713 12.4871 62.7133 12.2279 62.7134 11.9688C62.7135 11.8196 62.7136 11.6704 62.7141 11.5212C62.7718 10.0435 62.7718 10.0435 62.1331 8.76691C62.0043 8.6404 61.869 8.54711 61.7098 8.46321C61.6914 8.45346 61.673 8.44371 61.654 8.43367C61.1094 8.15007 60.5451 7.98 59.928 7.9831C59.8787 7.98333 59.8787 7.98333 59.8284 7.98357C59.5771 7.98704 59.3463 8.00802 59.103 8.07496C59.0742 8.08278 59.0742 8.08278 59.0448 8.09076C58.6254 8.20791 58.1783 8.38663 57.8688 8.70175C57.8273 8.74053 57.8273 8.74053 57.7719 8.74053C57.7609 8.76461 57.7609 8.76461 57.7498 8.78917C57.7147 8.8546 57.6743 8.90424 57.6263 8.96066C57.3451 9.31803 57.2401 9.77093 57.2414 10.2185C57.2414 10.241 57.2413 10.2635 57.2413 10.2867C57.2411 10.3621 57.2412 10.4375 57.2413 10.513C57.2413 10.5676 57.2412 10.6222 57.2411 10.6768C57.241 10.7956 57.241 10.9144 57.241 11.0331C57.241 11.2264 57.2409 11.4196 57.2407 11.6129C57.2405 11.8935 57.2404 12.1741 57.2403 12.4547C57.2401 12.8797 57.2397 13.3046 57.2392 13.7296C57.2391 13.824 57.239 13.9184 57.2389 14.0128C57.2388 14.0316 57.2388 14.0504 57.2388 14.0698C57.2387 14.1079 57.2387 14.146 57.2387 14.1842C57.2386 14.2224 57.2386 14.2607 57.2385 14.299C57.238 14.7502 57.2375 15.2014 57.2371 15.6527C57.2371 15.6724 57.2371 15.6921 57.237 15.7125C57.2364 16.3522 57.2361 16.9919 57.2359 17.6316C57.2357 18.2897 57.2351 18.9478 57.2341 19.606C57.2334 20.0297 57.2331 20.4534 57.2333 20.8771C57.2334 21.1549 57.233 21.4326 57.2324 21.7104C57.2321 21.8706 57.2319 22.0307 57.2322 22.1908C57.2325 22.3377 57.2323 22.4845 57.2316 22.6314C57.2315 22.6842 57.2315 22.7371 57.2318 22.79C57.2346 23.4181 57.0975 23.9986 56.6903 24.4925C56.6732 24.514 56.6562 24.5356 56.6386 24.5578C56.252 25.0228 55.6741 25.2826 55.0818 25.3522C54.3533 25.391 53.6914 25.2013 53.1399 24.7093C52.6937 24.2959 52.4617 23.7166 52.4319 23.1169C52.4302 23.0823 52.4302 23.0823 52.4284 23.047C52.4162 22.7859 52.4155 22.525 52.4156 22.2636C52.4156 22.2086 52.4155 22.1537 52.4154 22.0987C52.4152 21.9492 52.4151 21.7997 52.4151 21.6502C52.415 21.4884 52.4148 21.3265 52.4146 21.1647C52.4143 20.8115 52.4141 20.4584 52.414 20.1053C52.4139 19.8844 52.4138 19.6636 52.4137 19.4427C52.4133 18.8301 52.413 18.2175 52.4129 17.605C52.4129 17.5654 52.4129 17.5259 52.4129 17.4864C52.4129 17.4468 52.4129 17.4072 52.4129 17.3676C52.4129 17.2881 52.4129 17.2087 52.4129 17.1293C52.4129 17.1096 52.4129 17.0899 52.4129 17.0696C52.4128 16.4311 52.4123 15.7927 52.4117 15.1543C52.411 14.4777 52.4106 13.801 52.4106 13.1244C52.4106 13.05 52.4106 12.9755 52.4106 12.9011C52.4106 12.8828 52.4106 12.8645 52.4106 12.8456C52.4105 12.5703 52.4103 12.2951 52.4099 12.0198C52.4095 11.7063 52.4093 11.3928 52.4095 11.0793C52.4097 10.9196 52.4096 10.76 52.4092 10.6003C52.4057 9.04982 52.5626 7.64033 53.6675 6.46649C53.6827 6.44983 53.6979 6.43317 53.7135 6.41601C55.149 4.89937 58.0514 4.51757 60.0286 4.52003Z" fill="#236CAA"/>
<path d="M46.8224 5.57891C46.8506 5.59206 46.8789 5.6052 46.908 5.61875C47.2209 5.76965 47.485 5.9762 47.7341 6.21675C47.7515 6.23341 47.7688 6.25007 47.7867 6.26723C48.0908 6.5851 48.2706 7.05654 48.2887 7.49243C48.2909 7.52933 48.2909 7.52933 48.2931 7.56697C48.3074 8.01662 48.1854 8.43873 47.8883 8.78198C47.5414 9.14002 47.1089 9.32093 46.6108 9.32947C46.0538 9.33137 45.5579 9.17733 45.0287 9.01524C44.0904 8.72819 43.1432 8.4741 42.1599 8.4076C42.1326 8.40574 42.1053 8.40388 42.0772 8.40197C41.0321 8.33613 39.947 8.40087 39.1111 9.09744C38.7514 9.43994 38.5068 9.90168 38.4895 10.4023C38.4842 10.8764 38.6563 11.3325 38.9853 11.6774C39.5584 12.2392 40.4542 12.4317 41.2049 12.6229C41.2645 12.6383 41.3241 12.6537 41.3837 12.669C41.7177 12.755 42.0522 12.8387 42.3871 12.9211C43.8107 13.2719 45.2376 13.6338 46.5456 14.3155C46.5986 14.3431 46.6518 14.3703 46.705 14.3976C47.916 15.0237 48.9077 16.0506 49.3401 17.3564C49.4796 17.807 49.5674 18.2858 49.57 18.7579C49.5702 18.7816 49.5704 18.8053 49.5706 18.8297C49.5711 18.906 49.5713 18.9823 49.5713 19.0585C49.5714 19.0977 49.5714 19.0977 49.5714 19.1376C49.5709 19.5413 49.5556 19.9347 49.4812 20.3325C49.4741 20.3719 49.4741 20.3719 49.4668 20.4121C49.198 21.8589 48.4219 23.1304 47.2138 23.9788C46.8776 24.2068 46.522 24.4053 46.1533 24.5755C46.1325 24.5852 46.1116 24.595 46.0901 24.605C43.7965 25.6651 41.058 25.6143 37.5841 24.7696C37.5549 24.76 37.5258 24.7504 37.4958 24.7405C36.4793 24.4002 35.2874 23.9246 34.7796 22.9087C34.5643 22.4407 34.5173 21.9463 34.6966 21.4587C34.7228 21.3959 34.7518 21.3358 34.7831 21.2754C34.7941 21.2538 34.8051 21.2323 34.8165 21.21C35.0518 20.7847 35.4353 20.4512 35.9003 20.3035C36.5726 20.1391 37.1874 20.3442 37.8057 20.6026C39.1603 21.167 40.578 21.5289 42.0455 21.6151C42.0648 21.6162 42.084 21.6174 42.1038 21.6185C42.4723 21.6398 42.8443 21.6543 43.212 21.6151C43.2467 21.6114 43.2467 21.6114 43.2822 21.6076C43.6844 21.5611 44.0441 21.4564 44.4062 21.2754C44.4359 21.2605 44.4656 21.2457 44.4962 21.2304C44.9667 20.9753 45.3328 20.5592 45.4944 20.0485C45.623 19.5823 45.5439 19.1249 45.3266 18.6997C44.8739 17.9275 44.0908 17.5675 43.2613 17.3402C43.039 17.2826 42.8153 17.2311 42.5915 17.1797C42.5204 17.1631 42.4493 17.1464 42.3782 17.1298C41.9457 17.0286 41.5125 16.9304 41.0793 16.8324C37.7697 16.083 37.7697 16.083 36.4471 15.1188C36.4316 15.1076 36.4161 15.0964 36.4001 15.0848C36.1704 14.917 35.9597 14.7325 35.7538 14.5364C35.7324 14.5169 35.7111 14.4974 35.6892 14.4773C34.8906 13.7218 34.4764 12.5911 34.3949 11.5136C34.3933 11.4942 34.3918 11.4748 34.3903 11.4548C34.2733 9.92365 34.5903 8.34131 35.5896 7.13798C36.9267 5.59126 38.9262 4.77449 40.9397 4.60828C40.9736 4.60521 41.0076 4.60213 41.0426 4.59896C42.9844 4.45323 45.0573 4.74811 46.8224 5.57891Z" fill="#236CAA"/>
</svg>
