<svg width="90" height="40" viewBox="0 0 90 40" fill="none" xmlns="http://www.w3.org/2000/svg">
<path d="M18.1095 0.279297C20.5727 0.279297 23.036 0.279297 25.5739 0.279297C25.5739 6.49097 25.5739 12.7026 25.5739 19.1026C28.7868 18.9419 28.7868 18.9419 32.0647 18.778C32.0647 14.7083 32.0647 10.6386 32.0647 6.44554C34.5279 6.44554 36.9912 6.44554 39.5291 6.44554C39.5291 10.5153 39.5291 14.585 39.5291 18.778C39.9575 18.778 40.3858 18.778 40.8272 18.778C40.8272 14.7083 40.8272 10.6386 40.8272 6.44554C43.2905 6.44554 45.7537 6.44554 48.2916 6.44554C48.3987 10.4082 48.5058 14.3708 48.6162 18.4535C49.0445 18.5606 49.4729 18.6677 49.9143 18.778C49.9143 14.7083 49.9143 10.6386 49.9143 6.44554C52.3776 6.44554 54.8408 6.44554 57.3787 6.44554C57.3787 10.5153 57.3787 14.585 57.3787 18.778C57.8071 18.6709 58.2355 18.5638 58.6769 18.4535C58.784 14.4909 58.8911 10.5282 59.0014 6.44554C61.4646 6.44554 63.9279 6.44554 66.4658 6.44554C66.4883 8.0964 66.5076 9.74671 66.5193 11.3976C66.5241 11.9579 66.5308 12.5181 66.5392 13.0783C66.6519 20.7138 66.6519 20.7138 64.478 23.1187C62.5362 25.113 60.707 25.6631 57.9466 25.715C56.4934 25.6989 55.4629 25.5118 54.1333 24.9443C53.2023 25.0551 52.4276 25.2965 51.537 25.5933C50.794 25.6326 50.0498 25.6503 49.3058 25.6542C48.9117 25.6588 48.5176 25.6634 48.1116 25.6681C47.0343 25.5961 46.349 25.3654 45.3708 24.9443C44.3243 25.0489 43.4471 25.2609 42.4499 25.5933C41.7069 25.6326 40.9627 25.6503 40.2187 25.6542C39.8246 25.6588 39.4305 25.6634 39.0245 25.6681C37.9488 25.5962 37.2589 25.3701 36.2837 24.9443C35.3527 25.0551 34.578 25.2965 33.6874 25.5933C33.0646 25.6202 32.4408 25.6282 31.8175 25.625C31.4545 25.624 31.0916 25.6229 30.7177 25.6219C30.3389 25.6191 29.9601 25.6164 29.5698 25.6136C29.1872 25.6122 28.8046 25.6107 28.4104 25.6092C27.4649 25.6054 26.5194 25.6 25.5739 25.5933C25.5281 25.8975 25.4824 26.2016 25.4352 26.515C25.0299 28.7513 23.552 30.9098 21.7453 32.2844C17.711 34.8166 13.7417 35.4288 9.10354 34.4142C5.9859 33.3627 3.05214 31.1779 1.55802 28.1896C0.301494 24.9994 0.472333 21.7564 0.523548 18.3926C0.528442 17.8304 0.532882 17.2682 0.536859 16.7059C0.54665 15.341 0.56572 13.9767 0.584399 12.6118C3.04765 12.6118 5.5109 12.6118 8.04879 12.6118C8.06093 13.456 8.07306 14.3002 8.08556 15.1701C8.10057 15.9918 8.11719 16.8135 8.13397 17.6352C8.14473 18.2042 8.15384 18.7733 8.16123 19.3425C8.17217 20.1627 8.18915 20.9827 8.20726 21.8028C8.20933 22.0554 8.21141 22.308 8.21354 22.5683C8.25527 24.1288 8.4995 25.2093 9.34695 26.5669C10.5951 27.6012 11.9685 27.9053 13.566 27.8651C14.8216 27.6903 16.02 27.5058 17.1359 26.8915C17.7724 25.4198 17.8835 24.0402 17.8884 22.459C17.8933 22.0977 17.8933 22.0977 17.8983 21.7292C17.9083 20.939 17.9138 20.1489 17.9193 19.3586C17.9254 18.8084 17.9318 18.2582 17.9384 17.708C17.955 16.2643 17.9679 14.8206 17.98 13.3768C17.993 11.9018 18.0096 10.4268 18.0258 8.95184C18.0572 6.06102 18.0843 3.17018 18.1095 0.279297Z" fill="#EB1C23"/>
<path d="M67.7642 6.44543C70.2275 6.44543 72.6907 6.44543 75.2286 6.44543C75.2286 10.6223 75.2286 14.7991 75.2286 19.1025C78.4416 18.9418 78.4416 18.9418 81.7194 18.7779C81.7194 14.7082 81.7194 10.6385 81.7194 6.44543C84.1827 6.44543 86.6459 6.44543 89.1838 6.44543C89.2137 8.241 89.2395 10.0357 89.2551 11.8313C89.2616 12.441 89.2704 13.0507 89.2817 13.6603C89.2976 14.5409 89.3049 15.4213 89.3106 16.302C89.3173 16.5709 89.324 16.8398 89.3309 17.1168C89.3318 19.5053 88.6627 21.4276 87.1149 23.2606C85.2224 24.8377 83.8724 25.637 81.4012 25.6249C81.0236 25.6239 80.6461 25.6228 80.2571 25.6218C79.8628 25.619 79.4685 25.6163 79.0622 25.6135C78.6642 25.6121 78.2661 25.6106 77.856 25.6091C76.872 25.6053 75.8881 25.5999 74.9041 25.5932C74.8671 25.7886 74.8301 25.9839 74.7921 26.1851C74.1495 29.352 72.3867 31.5508 69.7115 33.3822C67.2253 34.6808 65.0175 34.8107 62.2471 34.6803C62.2471 32.5384 62.2471 30.3964 62.2471 28.1895C65.3708 27.2159 65.3708 27.2159 66.4661 27.2159C66.5665 27.0151 66.6669 26.8143 66.7703 26.6074C66.9935 26.1612 67.2166 25.7149 67.4397 25.2687C67.4785 24.669 67.4972 24.068 67.5063 23.4671C67.5128 23.0903 67.5193 22.7135 67.5259 22.3253C67.5314 21.9169 67.5368 21.5085 67.5424 21.0877C67.5491 20.6708 67.5559 20.254 67.5628 19.8244C67.5807 18.7158 67.5968 17.6071 67.6124 16.4984C67.6287 15.3672 67.6468 14.236 67.6647 13.1048C67.6996 10.8851 67.7324 8.66525 67.7642 6.44543Z" fill="#EB1B23"/>
<path d="M79.7739 27.2162C80.7213 27.6693 81.3064 28.0996 82.0457 28.8389C82.3067 28.5711 82.5678 28.3034 82.8368 28.0275C83.9285 27.1242 84.8065 26.9784 86.2038 27.0539C87.4198 27.3319 88.008 27.9432 88.861 28.8389C89.3641 29.8451 89.2796 30.6495 89.1855 31.7597C88.2632 33.4506 87.0418 33.8016 85.2911 34.356C85.4517 34.6773 85.4517 34.6773 85.6156 35.0051C85.7405 36.3289 85.7588 37.0468 85.0477 38.1897C84.184 39.0294 83.5305 39.513 82.3106 39.5981C80.966 39.4699 80.2408 39.3279 79.1248 38.5142C78.396 37.4892 78.1773 36.907 78.1512 35.6542C78.4555 34.7211 78.4555 34.7211 78.8003 34.0315C78.4522 33.998 78.1042 33.9646 77.7456 33.9301C76.567 33.714 76.0614 33.5643 75.2304 32.7333C74.8286 31.5279 74.6816 30.4138 74.9058 29.1634C76.3454 27.3828 77.5182 26.9651 79.7739 27.2162ZM81.7212 32.0843C81.6141 32.2985 81.507 32.5127 81.3966 32.7333C81.7179 32.7333 82.0392 32.7333 82.3702 32.7333C82.3702 32.5191 82.3702 32.305 82.3702 32.0843C82.156 32.0843 81.9418 32.0843 81.7212 32.0843Z" fill="#EC1B23"/>
<path d="M34.0138 28.1899C34.8251 28.6549 35.3079 29.1251 35.961 29.8126C36.1618 29.6051 36.3626 29.3976 36.5695 29.1838C37.7158 28.0713 38.5582 28.1003 40.0963 28.1176C41.0896 28.2156 41.6841 28.5354 42.4518 29.1635C43.2448 30.353 43.3758 31.3508 43.1009 32.7335C42.3098 33.6868 42.3098 33.6868 41.4782 34.3561C41.3175 34.5168 41.3175 34.5168 41.1536 34.6807C38.1623 35.032 38.1623 35.032 36.9866 34.3181C36.5492 33.8693 36.5492 33.8693 35.961 33.058C35.7066 33.3257 35.4523 33.5935 35.1902 33.8693C34.0249 34.8409 33.0112 34.8951 31.529 34.8214C30.4557 34.6228 29.8733 34.1806 29.1457 33.3825C28.5759 32.243 28.6051 31.0531 28.8212 29.8126C30.2051 28.028 31.824 27.7293 34.0138 28.1899Z" fill="#EB1B23"/>
</svg>
