<svg width="114" height="18" viewBox="0 0 114 18" fill="none" xmlns="http://www.w3.org/2000/svg">
<path d="M90.7217 1.02624C92.1395 0.982943 93.5574 0.93965 95.0182 0.895045C95.6851 0.86638 95.6851 0.86638 96.3654 0.837136C99.3393 0.762258 99.3393 0.762258 100.117 1.46449C100.481 1.89602 100.74 2.36047 100.971 2.87477C101.116 3.19145 101.307 3.45515 101.519 3.73053C101.632 3.89211 101.744 4.05388 101.857 4.21584C102.415 5.01544 102.988 5.80282 103.57 6.58549C104.27 7.52693 104.938 8.48586 105.594 9.45766C106.114 10.223 106.662 10.9588 107.236 11.684C107.514 12.0464 107.514 12.0464 107.78 12.4784C108.061 12.8634 108.123 12.887 108.564 12.9647C108.562 12.8906 108.56 12.8165 108.559 12.7401C108.473 8.83449 108.418 4.93294 108.433 1.02624C110.121 1.02624 111.809 1.02624 113.549 1.02624C113.552 3.09371 113.554 5.16119 113.556 7.22866C113.557 8.18856 113.557 9.14846 113.559 10.1084C113.56 10.9447 113.561 11.7811 113.561 12.6174C113.562 13.0605 113.562 13.5036 113.563 13.9467C113.564 14.4406 113.564 14.9345 113.564 15.4284C113.564 15.5763 113.565 15.7243 113.565 15.8767C113.565 16.0105 113.565 16.1442 113.565 16.282C113.565 16.4574 113.565 16.4574 113.565 16.6364C113.549 16.9005 113.549 16.9005 113.418 17.0316C113.158 17.0509 112.897 17.0609 112.637 17.0674C112.47 17.0716 112.302 17.0758 112.13 17.0802C111.462 17.0935 110.794 17.1034 110.126 17.1104C109.619 17.1158 109.112 17.1237 108.606 17.1378C108.116 17.1515 107.626 17.1586 107.135 17.1612C106.949 17.1633 106.763 17.1677 106.577 17.1744C105.122 17.2243 105.122 17.2243 104.547 16.7463C104.28 16.4156 104.057 16.0853 103.841 15.7197C103.733 15.5696 103.623 15.4205 103.511 15.2729C103.417 15.1389 103.323 15.005 103.226 14.867C103.114 14.7091 103.003 14.5513 102.891 14.3935C102.832 14.311 102.774 14.2286 102.714 14.1436C102.379 13.6721 102.04 13.2037 101.701 12.7351C101.629 12.6358 101.557 12.5364 101.483 12.434C101.336 12.2311 101.19 12.0282 101.043 11.8252C100.756 11.4285 100.47 11.0316 100.183 10.6347C100.042 10.439 99.9002 10.2432 99.7588 10.0475C99.3964 9.54604 99.0345 9.04429 98.6731 8.5421C98.3185 8.04937 97.9626 7.55764 97.606 7.06638C97.4232 6.81353 97.2422 6.55948 97.0614 6.30517C96.9571 6.16078 96.8528 6.01643 96.7483 5.87214C96.6602 5.74885 96.5721 5.62557 96.4813 5.49855C96.2084 5.19869 96.0905 5.1685 95.707 5.09319C95.7086 5.185 95.7103 5.27681 95.712 5.3714C95.7277 6.25637 95.7432 7.14135 95.7583 8.02633C95.7661 8.48081 95.7739 8.93528 95.7821 9.38975C95.8172 11.3448 95.845 13.2996 95.8505 15.2549C95.8513 15.4189 95.8522 15.5828 95.853 15.7518C95.8531 15.9012 95.8532 16.0505 95.8533 16.2044C95.8536 16.3362 95.8538 16.4679 95.8541 16.6036C95.8382 16.9005 95.8382 16.9005 95.707 17.0316C94.0618 17.0316 92.4167 17.0316 90.7217 17.0316C90.7217 11.7499 90.7217 6.46808 90.7217 1.02624Z" fill="#EC1E26"/>
<path d="M31.5614 0.747084C32.0794 0.747787 32.5974 0.747087 33.1154 0.746251C40.6643 0.744151 40.6643 0.744151 42.179 2.19295C43.5898 3.95821 43.407 6.54186 43.397 8.68134C43.3956 9.03761 43.397 9.3938 43.3986 9.75006C43.4026 14.4898 43.4026 14.4898 42.1492 15.8431C40.7125 17.1209 38.7495 17.1833 36.9156 17.1822C36.8036 17.1827 36.6916 17.1831 36.5762 17.1836C36.2101 17.1848 35.844 17.1851 35.4779 17.1852C35.2201 17.1856 34.9623 17.1861 34.7045 17.1865C34.1653 17.1873 33.626 17.1876 33.0868 17.1875C32.4014 17.1875 31.7161 17.1893 31.0307 17.1915C30.4983 17.193 29.9659 17.1932 29.4335 17.1932C29.1811 17.1933 28.9287 17.1939 28.6763 17.1949C23.8261 17.2128 23.8261 17.2128 22.3147 16.0726C20.9746 14.6672 20.91 12.6629 20.9023 10.8214C20.9016 10.6796 20.9008 10.5379 20.9 10.3919C20.8988 10.0925 20.8979 9.79316 20.8974 9.4938C20.8962 9.04297 20.8921 8.59223 20.888 8.14143C20.8658 3.56092 20.8658 3.56092 21.9785 2.33849C22.0416 2.26662 22.1046 2.19474 22.1696 2.12069C24.2317 0.0786679 28.9481 0.742869 31.5614 0.747084ZM26.5866 5.4297C25.7652 6.37194 25.8528 7.63439 25.8629 8.81132C25.865 9.10296 25.8629 9.39437 25.8604 9.68601C25.8462 11.0492 25.8462 11.0492 26.3078 12.3091C27.7012 13.4143 29.9994 13.138 31.6961 13.1304C32.0711 13.129 32.446 13.1304 32.821 13.1321C33.9613 13.1331 35.0919 13.1096 36.2261 12.985C36.3617 12.9709 36.3617 12.9709 36.4999 12.9565C37.1053 12.8802 37.5276 12.7243 37.967 12.2993C38.4799 11.4243 38.4221 10.4284 38.4189 9.4496C38.4185 9.18709 38.4217 8.92458 38.4249 8.66209C38.4254 7.51454 38.3917 6.44001 37.6969 5.4871C36.7425 4.80842 35.5594 4.92395 34.4381 4.92748C34.2601 4.9273 34.0821 4.92705 33.904 4.92672C33.5323 4.92633 33.1606 4.92689 32.7889 4.92812C32.3155 4.92961 31.8421 4.92876 31.3687 4.92718C31.0014 4.92623 30.6342 4.92654 30.2669 4.92722C30.0084 4.92747 29.75 4.92669 29.4915 4.92587C27.9879 4.93264 27.9879 4.93264 26.5866 5.4297Z" fill="#EC1E26"/>
<path d="M54.4126 0.739671C54.8964 0.739383 55.3802 0.73699 55.8639 0.734514C61.9411 0.719904 61.9411 0.719904 63.4918 2.22554C64.3884 3.2979 64.2205 4.68379 64.2205 6.01166C62.6187 6.01166 61.0168 6.01166 59.3664 6.01166C59.2365 5.49214 59.2365 5.49214 59.104 4.96212C58.5429 4.58804 58.0477 4.5524 57.3846 4.54949C57.2545 4.54865 57.1244 4.54781 56.9903 4.54695C56.8511 4.54681 56.7118 4.54666 56.5683 4.54651C56.4235 4.54607 56.2788 4.54564 56.1296 4.54519C55.8235 4.54452 55.5174 4.54421 55.2112 4.54423C54.7454 4.54395 54.2796 4.54157 53.8138 4.53908C53.5157 4.53869 53.2176 4.53843 52.9196 4.53831C52.7814 4.53737 52.6432 4.53642 52.5008 4.53545C51.3182 4.53434 51.3182 4.53434 50.183 4.83093C49.8605 5.31466 49.8798 5.5713 49.9206 6.14285C50.1465 6.56902 50.1465 6.56902 50.5765 6.66762C50.8369 6.69348 51.0979 6.71278 51.3591 6.7286C51.5236 6.73866 51.6881 6.74872 51.8576 6.75909C52.0401 6.76962 52.2226 6.78012 52.405 6.79061C52.5948 6.80196 52.7845 6.81332 52.9742 6.82469C54.123 6.89214 55.272 6.94762 56.4218 6.99611C56.6138 7.00432 56.6138 7.00432 56.8097 7.0127C57.442 7.03962 58.0742 7.06541 58.7066 7.08934C62.8029 7.25301 62.8029 7.25301 64.0155 8.5371C64.9936 9.81086 64.9798 11.6048 64.836 13.1324C64.6768 14.3394 64.4329 15.4624 63.4334 16.2446C61.7999 17.2938 59.8873 17.2042 58.0171 17.2024C57.7875 17.2029 57.558 17.2035 57.3285 17.2041C56.8494 17.2051 56.3703 17.2051 55.8913 17.2044C55.2852 17.2036 54.6792 17.2058 54.0731 17.2089C53.5993 17.2108 53.1255 17.2109 52.6518 17.2105C52.4287 17.2106 52.2057 17.2113 51.9827 17.2126C50.771 17.219 49.5866 17.1644 48.3855 16.996C48.2256 16.9748 48.2256 16.9748 48.0624 16.9531C47.0855 16.8012 46.1682 16.428 45.4601 15.7199C44.8634 14.7624 44.7846 13.8985 44.7959 12.7926C44.7965 12.683 44.7971 12.5733 44.7977 12.4603C44.7992 12.1912 44.8016 11.922 44.8041 11.6529C45.4743 11.6497 46.1445 11.6473 46.8147 11.6457C47.0429 11.645 47.2711 11.6441 47.4993 11.643C47.8265 11.6414 48.1538 11.6407 48.4811 11.6401C48.5837 11.6394 48.6863 11.6387 48.7921 11.638C49.0371 11.638 49.2821 11.6448 49.527 11.6529C49.7745 11.9004 49.7533 12.3359 49.8037 12.6727C49.9694 13.0868 50.1795 13.1653 50.5765 13.3584C50.9821 13.4175 50.9821 13.4175 51.4234 13.4093C51.592 13.4106 51.7605 13.4118 51.9342 13.4131C52.1171 13.4124 52.3 13.4116 52.4829 13.4107C52.6716 13.4109 52.8603 13.4113 53.049 13.4118C53.4438 13.4124 53.8385 13.4116 54.2333 13.4097C54.7384 13.4075 55.2435 13.4088 55.7486 13.4111C56.138 13.4125 56.5274 13.4121 56.9169 13.4111C57.1031 13.4108 57.2893 13.4111 57.4755 13.412C57.736 13.413 57.9966 13.4112 58.2572 13.4093C58.4052 13.409 58.5533 13.4087 58.7058 13.4084C59.1526 13.3523 59.4016 13.2335 59.76 12.9648C59.876 12.6882 59.876 12.6882 59.883 12.3827C59.8923 12.2827 59.9016 12.1828 59.9112 12.0798C59.8864 11.7128 59.8643 11.5474 59.6288 11.2593C58.7001 10.9388 57.7442 10.9363 56.7711 10.9043C56.4646 10.8943 56.1583 10.8828 55.8519 10.871C55.2004 10.8461 54.5489 10.8231 53.8973 10.8002C53.1437 10.7736 52.39 10.7462 51.6364 10.7173C51.3376 10.7062 51.0388 10.6962 50.7399 10.6864C47.0832 10.5548 47.0832 10.5548 46.014 9.61021C44.7895 8.27488 44.8659 6.58424 44.9168 4.88448C44.9882 3.66216 45.3293 2.6972 46.2308 1.85451C48.3745 0.268221 51.8825 0.739503 54.4126 0.739671Z" fill="#EC1E26"/>
<path d="M74.3815 0.995022C74.5343 0.991644 74.6872 0.988266 74.8447 0.984786C75.5455 0.973782 76.2464 0.965096 76.9474 0.959021C77.3175 0.955513 77.6874 0.949124 78.0575 0.940188C78.5898 0.927367 79.1218 0.923129 79.6542 0.919465C79.8197 0.914459 79.9852 0.909454 80.1557 0.904297C81.2738 0.906788 81.2738 0.906788 81.6484 1.24426C81.8214 1.51532 81.9454 1.77726 82.0628 2.07611C82.1268 2.19172 82.1908 2.30733 82.2568 2.42644C82.3093 2.52899 82.3618 2.63154 82.4158 2.73719C82.507 2.91386 82.507 2.91386 82.5999 3.09409C82.6635 3.21815 82.727 3.3422 82.7925 3.47002C83.3115 4.47405 83.8388 5.47237 84.3832 6.46284C85.0421 7.66238 85.686 8.86942 86.3265 10.0788C86.9814 11.3151 87.6393 12.5494 88.3108 13.7768C88.4052 13.9495 88.4052 13.9495 88.5015 14.1256C88.7242 14.5325 88.9472 14.9392 89.1708 15.3455C89.3055 15.5904 89.4396 15.8356 89.5735 16.0808C89.68 16.2746 89.68 16.2746 89.7887 16.4724C89.9343 16.7696 89.9343 16.7696 89.9343 17.032C88.0727 17.032 86.211 17.032 84.293 17.032C82.9811 14.5393 82.9811 14.5393 82.9811 14.277C79.3878 14.3202 75.7944 14.3635 72.0922 14.4081C71.6592 15.2307 71.2263 16.0533 70.7803 16.9008C70.6491 17.032 70.6491 17.032 70.1284 17.0469C69.8959 17.0469 69.6634 17.0461 69.4309 17.0448C69.3088 17.0446 69.1867 17.0444 69.0609 17.0442C68.6692 17.0435 68.2775 17.0418 67.8858 17.0402C67.621 17.0395 67.3561 17.0389 67.0913 17.0384C66.4405 17.0369 65.7898 17.0347 65.139 17.032C65.0957 16.9454 65.0524 16.8588 65.0078 16.7696C65.1245 16.4966 65.1245 16.4966 65.3127 16.1567C65.382 16.0304 65.4512 15.9041 65.5225 15.774C65.5989 15.6372 65.6753 15.5003 65.754 15.3593C65.8321 15.2173 65.9103 15.0752 65.9908 14.9289C66.153 14.6343 66.3155 14.3399 66.4785 14.0458C66.7513 13.5522 67.0208 13.0569 67.2899 12.5613C67.7841 11.6513 68.2822 10.7434 68.7837 9.83744C68.96 9.51886 69.1363 9.20028 69.3125 8.88169C69.3566 8.802 69.4007 8.72232 69.4462 8.64023C70.1167 7.42769 70.7759 6.2095 71.428 4.98693C71.9641 3.98213 72.5017 2.9787 73.0597 1.98591C73.1312 1.85849 73.1312 1.85849 73.2042 1.72849C73.5745 1.07528 73.6281 1.01103 74.3815 0.995022ZM76.7587 5.09608C76.6425 5.31186 76.5308 5.53008 76.4215 5.74948C76.342 5.90039 76.2625 6.05131 76.1805 6.20679C75.9009 6.73804 75.628 7.27261 75.3556 7.80755C75.2145 8.08394 75.0733 8.36025 74.9318 8.63643C74.8443 8.80715 74.7572 8.97798 74.6702 9.14896C74.4895 9.50249 74.3038 9.8468 74.096 10.1853C73.9069 10.4548 73.9069 10.4548 73.9289 10.7348C76.2667 10.7348 78.6045 10.7348 81.0132 10.7348C80.882 10.2756 80.7508 10.0132 80.6376 9.57096C80.5868 9.47529 80.5361 9.37962 80.4838 9.28106C80.4009 9.12802 80.4009 9.12802 80.3163 8.97188C80.2593 8.8652 80.2023 8.75852 80.1436 8.64861C79.9536 8.29383 79.8277 7.9399 79.6357 7.58616C79.5288 7.38893 79.548 7.32821 79.4389 7.12699C79.327 6.67269 79.1109 6.40544 78.8486 5.88067C78.5862 5.3559 78.455 4.83113 77.9958 4.69994C77.3703 4.60183 77.1665 4.58926 76.7587 5.09608Z" fill="#EC1E26"/>
<path d="M0.331055 1.02631C2.9459 1.02335 5.56074 1.02093 8.17559 1.01951C9.38962 1.01883 10.6037 1.01791 11.8177 1.01641C12.8754 1.0151 13.9332 1.01425 14.9909 1.01396C15.5514 1.01379 16.1118 1.01339 16.6722 1.01243C17.1991 1.01155 17.726 1.01127 18.2528 1.01147C18.4468 1.01143 18.6407 1.01117 18.8347 1.01067C19.0983 1.01002 19.362 1.01025 19.6256 1.01053C19.7735 1.01041 19.9214 1.01029 20.0738 1.01016C20.4034 1.02631 20.4034 1.02631 20.5346 1.1575C20.5477 1.44697 20.5518 1.73687 20.552 2.02664C20.5522 2.1135 20.5523 2.20037 20.5524 2.28986C20.5525 2.47381 20.5523 2.65777 20.5517 2.84172C20.551 3.12419 20.5517 3.40663 20.5525 3.68909C20.5525 3.86743 20.5523 4.04577 20.552 4.22411C20.5519 4.38747 20.5517 4.55084 20.5516 4.71915C20.5346 5.09325 20.5346 5.09325 20.4034 5.22445C20.1739 5.23673 19.9439 5.23985 19.7141 5.23934C19.565 5.23932 19.4158 5.23931 19.2622 5.23929C19.0252 5.23828 19.0252 5.23828 18.7835 5.23726C18.6392 5.23713 18.4949 5.23699 18.3463 5.23686C17.8048 5.23617 17.2633 5.23434 16.7218 5.23265C14.9076 5.22859 14.9076 5.22859 13.0567 5.22445C13.0567 9.20743 13.0567 13.1904 13.0567 17.2941C11.3249 17.2941 9.5932 17.2941 7.80899 17.2941C7.80899 13.3111 7.80899 9.32813 7.80899 5.22445C5.34127 5.22445 2.87355 5.22445 0.331055 5.22445C0.331055 3.83906 0.331055 2.45367 0.331055 1.02631Z" fill="#EC1E26"/>
<path d="M0.331055 1.02631C2.9459 1.02335 5.56074 1.02093 8.17559 1.01951C9.38962 1.01883 10.6036 1.01791 11.8177 1.01641C12.8754 1.0151 13.9332 1.01425 14.9909 1.01396C15.5514 1.01379 16.1118 1.01339 16.6722 1.01243C17.1991 1.01155 17.726 1.01127 18.2528 1.01147C18.4468 1.01143 18.6407 1.01117 18.8347 1.01067C19.0983 1.01002 19.362 1.01025 19.6256 1.01053C19.7735 1.01041 19.9214 1.01029 20.0738 1.01016C20.4034 1.02631 20.4034 1.02631 20.5346 1.1575C20.5461 1.44855 20.5486 1.73997 20.5474 2.03126C20.5471 2.16201 20.5471 2.16201 20.5469 2.29542C20.5461 2.57481 20.5445 2.85419 20.5428 3.13358C20.5421 3.32259 20.5415 3.51161 20.541 3.70062C20.5396 4.16484 20.5373 4.62904 20.5346 5.09325C20.4913 5.09325 20.448 5.09325 20.4034 5.09325C20.2655 3.81508 20.2722 2.58534 20.2722 1.28869C13.7349 1.28869 7.19764 1.28869 0.462247 1.28869C0.462247 2.5442 0.462247 3.7997 0.462247 5.09325C2.84338 5.09325 5.22451 5.09325 7.6778 5.09325C7.6778 5.13655 7.6778 5.17984 7.6778 5.22445C5.25337 5.22445 2.82895 5.22445 0.331055 5.22445C0.331055 3.83906 0.331055 2.45367 0.331055 1.02631Z" fill="#EC1E26"/>
<path d="M40.345 16.3757C40.648 16.3757 40.9511 16.3757 41.2633 16.3757C40.9407 16.6983 40.7201 16.7346 40.2794 16.8431C40.1509 16.8757 40.0223 16.9084 39.8899 16.942C38.9047 17.1327 37.9168 17.1825 36.9152 17.1819C36.7473 17.1826 36.7473 17.1826 36.5759 17.1833C36.2098 17.1845 35.8437 17.1848 35.4776 17.1849C35.2197 17.1853 34.9619 17.1858 34.7041 17.1862C34.1649 17.187 33.6257 17.1873 33.0864 17.1872C32.4011 17.1872 31.7157 17.189 31.0303 17.1912C30.4979 17.1927 29.9655 17.193 29.4331 17.1929C29.1807 17.193 28.9283 17.1936 28.6759 17.1946C26.8486 17.2014 25.0522 17.175 23.29 16.6381C23.6924 16.515 24.005 16.5046 24.4216 16.5561C24.5234 16.568 24.6252 16.5798 24.7301 16.592C24.9955 16.6381 24.9955 16.6381 25.2579 16.7693C25.4455 16.7816 25.6336 16.7859 25.8215 16.786C25.9989 16.7865 25.9989 16.7865 26.1799 16.7871C26.3101 16.7868 26.4402 16.7866 26.5742 16.7863C26.711 16.7865 26.8477 16.7867 26.9886 16.787C27.4423 16.7876 27.896 16.7872 28.3496 16.7867C28.6637 16.7868 28.9777 16.7869 29.2917 16.7871C29.9505 16.7873 30.6092 16.787 31.268 16.7864C32.1145 16.7857 32.961 16.7861 33.8075 16.7869C34.456 16.7874 35.1046 16.7872 35.7532 16.7869C36.0654 16.7868 36.3777 16.7869 36.6899 16.7872C37.1253 16.7875 37.5607 16.787 37.9961 16.7863C38.1265 16.7865 38.2569 16.7868 38.3912 16.7871C38.5681 16.7865 38.5681 16.7865 38.7485 16.786C38.9031 16.7859 38.9031 16.7859 39.0608 16.7858C39.2986 16.7949 39.2986 16.7949 39.4266 16.6381C39.7327 16.6327 40.0389 16.6326 40.345 16.6381C40.345 16.5515 40.345 16.4649 40.345 16.3757Z" fill="#EC1E26"/>
<path d="M46.248 9.68509C46.8542 9.81497 47.4603 9.94485 48.0847 10.0787C48.0847 10.1653 48.0847 10.2518 48.0847 10.341C48.2231 10.3404 48.3616 10.3397 48.5042 10.339C49.0159 10.3366 49.5276 10.3351 50.0393 10.3338C50.2611 10.3332 50.4829 10.3323 50.7048 10.3312C51.0229 10.3296 51.341 10.3288 51.6592 10.3282C51.8088 10.3272 51.8088 10.3272 51.9615 10.3262C52.1999 10.3262 52.4382 10.3329 52.6764 10.341C52.7414 10.406 52.7414 10.406 52.8076 10.4722C53.188 10.4901 53.5657 10.4999 53.9463 10.5045C54.1845 10.5089 54.4226 10.5132 54.6607 10.5176C55.0361 10.5238 55.4114 10.5296 55.7867 10.5348C59.2797 10.5857 59.2797 10.5857 59.8648 11.0541C59.9432 11.1557 59.9432 11.1557 60.0232 11.2594C59.9822 11.5464 59.9822 11.5464 59.892 11.7842C59.8704 11.703 59.8487 11.6218 59.8264 11.5382C59.5762 11.1838 59.3492 11.1455 58.9368 11.0521C58.2204 10.9415 57.4955 10.9281 56.7719 10.9044C56.4655 10.8943 56.1591 10.8829 55.8527 10.8711C55.2012 10.8462 54.5497 10.8231 53.8982 10.8002C53.1445 10.7736 52.3909 10.7463 51.6373 10.7174C51.3385 10.7062 51.0396 10.6963 50.7407 10.6864C49.177 10.6303 47.6537 10.5645 46.248 9.81628C46.248 9.77299 46.248 9.72969 46.248 9.68509Z" fill="#EC1E26"/>
<path d="M113.287 12.0464C113.33 12.0464 113.374 12.0464 113.418 12.0464C113.418 13.6483 113.418 15.2501 113.418 16.9005C110.691 16.9005 107.963 16.9005 105.153 16.9005C105.196 16.8139 105.24 16.7273 105.284 16.6381C105.996 16.6191 106.707 16.6005 107.418 16.5821C107.659 16.5758 107.9 16.5695 108.141 16.563C109.595 16.5241 111.046 16.4969 112.5 16.5069C112.5 16.5935 112.5 16.6801 112.5 16.7693C112.76 16.7693 113.019 16.7693 113.287 16.7693C113.287 15.2108 113.287 13.6522 113.287 12.0464Z" fill="#EC1E26"/>
<path d="M31.9718 0.754808C32.4293 0.756175 32.8868 0.756754 33.3443 0.75741C34.2343 0.758797 35.1243 0.761022 36.0143 0.763816C36.0143 0.807109 36.0143 0.850403 36.0143 0.895008C35.8722 0.898295 35.7301 0.901582 35.5837 0.904969C35.0484 0.917473 34.5132 0.930579 33.978 0.943853C33.7479 0.949479 33.5177 0.95495 33.2876 0.960252C32.1027 0.98765 30.9249 1.02565 29.7436 1.12668C28.8123 1.19476 27.8774 1.20634 26.944 1.22984C25.8093 1.25905 24.6813 1.30965 23.551 1.41978C25.5552 0.0836531 29.6621 0.74715 31.9718 0.754808Z" fill="#EC1E26"/>
<path d="M63.9601 3.3877C64.0033 3.3877 64.0466 3.3877 64.0912 3.3877C64.2224 4.17485 64.2224 4.17485 64.2224 6.01153C62.6206 6.01153 61.0187 6.01153 59.3683 6.01153C59.2385 5.49201 59.2385 5.49201 59.106 4.962C58.5455 4.58836 58.051 4.55228 57.3886 4.54936C57.2589 4.54853 57.1292 4.54769 56.9956 4.54683C56.7874 4.54661 56.7874 4.54661 56.5749 4.54639C56.4304 4.54595 56.2859 4.54551 56.1371 4.54506C55.8315 4.5444 55.526 4.54409 55.2204 4.54411C54.756 4.54383 54.2917 4.54145 53.8273 4.53896C53.5296 4.53857 53.232 4.53831 52.9343 4.53819C52.7968 4.53724 52.6592 4.5363 52.5176 4.53533C51.6662 4.53794 50.8813 4.62971 50.0537 4.83081C50.0537 4.70093 50.0537 4.57105 50.0537 4.43723C50.9863 4.31448 51.8984 4.28687 52.8385 4.28861C53.0642 4.28843 53.0642 4.28843 53.2945 4.28823C53.6109 4.28815 53.9273 4.28838 54.2438 4.28893C54.7268 4.28964 55.2099 4.28894 55.6929 4.2881C56.0014 4.28819 56.3099 4.28836 56.6184 4.28861C56.8339 4.28822 56.8339 4.28822 57.0537 4.28781C58.4421 4.29205 58.4421 4.29205 59.106 4.43723C59.5535 4.94255 59.4995 5.16627 59.4995 5.88034C61.0148 5.88034 62.5301 5.88034 64.0912 5.88034C64.048 5.05777 64.0047 4.23519 63.9601 3.3877Z" fill="#EC1E26"/>
<path d="M37.9837 12.0464C38.1313 12.5384 38.1313 12.5384 37.9837 12.8336C36.6613 13.2263 35.3346 13.2833 33.9628 13.2702C33.7748 13.2698 33.5867 13.2695 33.3987 13.2694C33.0095 13.2689 32.6204 13.267 32.2312 13.264C31.7317 13.2603 31.2322 13.2589 30.7327 13.2583C30.3467 13.2578 29.9606 13.2565 29.5746 13.2549C29.3902 13.2542 29.2057 13.2535 29.0213 13.253C28.7658 13.2521 28.5103 13.2502 28.2548 13.2483C28.1095 13.2474 27.9643 13.2465 27.8146 13.2456C27.4883 13.2271 27.4883 13.2271 27.3571 13.096C27.1385 13.0906 26.9198 13.0903 26.7012 13.096C26.7445 12.9228 26.7878 12.7496 26.8324 12.5712C26.9298 12.6118 27.0272 12.6524 27.1275 12.6942C28.5725 13.1036 30.1656 12.9892 31.6563 12.9891C32.036 12.9894 32.4156 12.9917 32.7952 12.9942C33.938 12.998 35.077 12.9834 36.2151 12.873C36.3866 12.8565 36.558 12.84 36.7347 12.823C37.3105 12.6726 37.5577 12.4533 37.9837 12.0464Z" fill="#EC1E26"/>
<path d="M51.2344 0.7639C52.235 0.75716 53.2357 0.752616 54.2363 0.749487C54.5756 0.74818 54.9149 0.746399 55.2542 0.744106C60.1365 0.711966 60.1365 0.711966 61.9921 1.28867C61.6574 1.40454 61.4597 1.41857 61.1057 1.35865C60.6803 1.28869 60.2879 1.27372 59.8572 1.27586C59.7058 1.27628 59.5545 1.2767 59.3985 1.27714C59.1644 1.27879 59.1644 1.27879 58.9255 1.28047C58.6868 1.28136 58.6868 1.28136 58.4433 1.28226C58.0519 1.2838 57.6606 1.28596 57.2692 1.28867C57.2692 1.20208 57.2692 1.11549 57.2692 1.02628C55.2777 0.98299 53.2862 0.939697 51.2344 0.895092C51.2344 0.851798 51.2344 0.808505 51.2344 0.7639Z" fill="#EC1E26"/>
<path d="M61.8771 16.6298C61.9965 16.631 62.1159 16.6322 62.2389 16.6334C62.3764 16.6357 62.3764 16.6357 62.5166 16.638C61.2944 17.4529 59.3497 17.1972 57.9265 17.1884C57.6906 17.1879 57.4548 17.1876 57.219 17.1873C56.6041 17.1863 55.9893 17.1837 55.3744 17.1808C54.7446 17.1781 54.1149 17.1769 53.4851 17.1756C52.2538 17.1728 51.0224 17.1683 49.791 17.1628C49.791 17.1195 49.791 17.0762 49.791 17.0316C49.8862 17.0303 49.9814 17.0289 50.0795 17.0275C50.9918 17.0145 51.904 17.001 52.8163 16.9871C53.2849 16.98 53.7535 16.973 54.2221 16.9664C56.043 16.9406 57.8635 16.9129 59.6832 16.8384C59.8085 16.8335 59.9339 16.8287 60.063 16.8237C60.1763 16.8185 60.2895 16.8134 60.4063 16.8081C60.5042 16.8038 60.6022 16.7995 60.7031 16.795C61.1238 16.7497 61.4292 16.6241 61.8771 16.6298Z" fill="#EC1E26"/>
<path d="M21.3229 3.38766C21.3662 3.38766 21.4095 3.38766 21.4541 3.38766C21.4577 3.60357 21.4602 3.8195 21.4623 4.03542C21.4639 4.15567 21.4654 4.27591 21.467 4.39979C21.4541 4.69958 21.4541 4.69958 21.3229 4.83078C21.302 5.06085 21.2899 5.29174 21.2814 5.52261C21.2759 5.66981 21.2704 5.81702 21.2647 5.96868C21.2596 6.12893 21.2544 6.28917 21.2492 6.45428C21.2438 6.61833 21.2384 6.78238 21.2329 6.9514C21.1981 8.10023 21.1744 9.2489 21.1672 10.3982C21.1655 10.5384 21.1638 10.6786 21.162 10.823C21.161 11.6887 21.2445 12.5076 21.3976 13.3598C21.4551 13.7585 21.4636 14.1368 21.4541 14.539C20.6456 13.0826 20.8848 11.0508 20.888 9.44395C20.8884 8.99894 20.8853 8.55404 20.882 8.10904C20.8775 6.49257 20.9611 4.96553 21.3229 3.38766Z" fill="#EC1E26"/>
<path d="M50.3616 0.869335C50.5638 0.869892 50.5638 0.869892 50.7702 0.87046C51.1951 0.871913 51.6201 0.875204 52.0451 0.87856C52.3356 0.879878 52.626 0.881074 52.9165 0.882147C53.6237 0.885019 54.3308 0.889394 55.0379 0.894959C55.0379 0.938252 55.0379 0.981545 55.0379 1.02615C54.0241 1.18766 53.0479 1.32396 52.0205 1.28853C52.0205 1.20195 52.0205 1.11536 52.0205 1.02615C51.8705 1.05659 51.8705 1.05659 51.7176 1.08765C50.946 1.19869 50.1706 1.20914 49.3923 1.23678C49.2054 1.24413 49.2054 1.24413 49.0148 1.25164C48.9024 1.25561 48.7899 1.25958 48.674 1.26368C48.1978 1.29989 47.7862 1.37897 47.3468 1.56732C47.0352 1.68211 47.0352 1.68211 46.6416 1.55092C47.7726 0.878403 49.0769 0.855682 50.3616 0.869335Z" fill="#EC1E26"/>
<path d="M44.8049 11.6528C45.4751 11.6496 46.1454 11.6472 46.8156 11.6456C47.0437 11.6449 47.2719 11.644 47.5001 11.6429C47.8274 11.6413 48.1546 11.6406 48.4819 11.64C48.5845 11.6393 48.6872 11.6386 48.7929 11.6379C49.0379 11.6379 49.2829 11.6447 49.5278 11.6528C49.7292 11.8541 49.7383 12.0827 49.7984 12.358C49.8216 12.4618 49.8448 12.5656 49.8686 12.6726C49.9214 12.9647 49.9214 12.9647 49.9214 13.3583C49.7246 13.2271 49.7246 13.2271 49.5278 12.9647C49.5278 12.6184 49.5278 12.272 49.5278 11.9152C48.0126 11.9152 46.4973 11.9152 44.9361 11.9152C44.9794 12.8243 45.0227 13.7335 45.0673 14.6702C45.024 14.6702 44.9807 14.6702 44.9361 14.6702C44.7742 14.0443 44.7902 13.4338 44.7967 12.7925C44.7973 12.6829 44.7979 12.5732 44.7985 12.4602C44.8001 12.1911 44.8024 11.9219 44.8049 11.6528Z" fill="#EC1E26"/>
<path d="M65.5326 15.8512C65.6551 16.2461 65.6696 16.3585 65.5326 16.7695C67.1777 16.7695 68.8229 16.7695 70.5179 16.7695C70.5179 16.683 70.5179 16.5964 70.5179 16.5072C70.6045 16.5072 70.691 16.5072 70.7803 16.5072C70.7803 16.4206 70.7803 16.334 70.7803 16.2448C70.8668 16.2881 70.9534 16.3314 71.0426 16.376C70.9236 16.6999 70.9236 16.6999 70.6491 17.0319C70.236 17.1292 69.8275 17.108 69.4053 17.096C69.2227 17.0946 69.2227 17.0946 69.0364 17.0932C68.6473 17.0895 68.2584 17.0813 67.8694 17.0729C67.6058 17.0696 67.3421 17.0666 67.0784 17.064C66.4319 17.0567 65.7855 17.0454 65.139 17.0319C65.0957 16.9453 65.0524 16.8588 65.0078 16.7695C65.1098 16.543 65.1098 16.543 65.262 16.294C65.3513 16.1479 65.4406 16.0017 65.5326 15.8512Z" fill="#EC1E26"/>
<path d="M89.542 16.2445C89.9355 16.7364 89.9355 16.7364 89.9355 17.0316C88.0739 17.0316 86.2123 17.0316 84.2943 17.0316C84.251 16.8585 84.2077 16.6853 84.1631 16.5069C84.2497 16.5069 84.3363 16.5069 84.4255 16.5069C84.4255 16.5934 84.4255 16.68 84.4255 16.7692C86.1139 16.7692 87.8023 16.7692 89.542 16.7692C89.542 16.5961 89.542 16.4229 89.542 16.2445Z" fill="#EC1E26"/>
<path d="M26.0445 6.0116C26.2224 6.36729 26.1233 6.54124 26.0445 6.92994C26.016 7.54118 26.0146 8.15244 26.013 8.76426C26.0117 9.05908 26.0077 9.35379 26.0035 9.64858C25.9964 10.6471 26.0374 11.5079 26.4381 12.44C26.3082 12.44 26.1783 12.44 26.0445 12.44C25.5938 11.5195 25.5989 10.6375 25.6141 9.63135C25.6181 9.35761 25.6194 9.08396 25.6202 8.81019C25.6337 6.42238 25.6337 6.42238 26.0445 6.0116Z" fill="#EC1E26"/>
<path d="M54.9082 7.06122C57.1984 7.02802 59.4514 7.08574 61.7302 7.32361C61.7302 7.3669 61.7302 7.41019 61.7302 7.4548C60.518 7.4548 59.3058 7.4548 58.0568 7.4548C58.0568 7.36821 58.0568 7.28163 58.0568 7.19242C57.0178 7.19242 55.9787 7.19242 54.9082 7.19242C54.9082 7.14912 54.9082 7.10583 54.9082 7.06122Z" fill="#EC1E26"/>
<path d="M73.6672 1.02615C74.6719 1.01704 75.6766 1.01004 76.6813 1.00576C77.1478 1.0037 77.6143 1.00091 78.0807 0.996459C78.6167 0.991374 79.1527 0.989456 79.6887 0.987715C79.8567 0.985684 80.0247 0.983652 80.1977 0.981559C80.3526 0.98153 80.5076 0.9815 80.6672 0.981469C80.8726 0.980158 80.8726 0.980158 81.0822 0.978821C81.1895 0.994439 81.2969 1.01006 81.4076 1.02615C81.4941 1.15603 81.5807 1.28591 81.6699 1.41973C81.5522 1.39894 81.4345 1.37814 81.3132 1.35672C80.5831 1.25303 79.8484 1.25777 79.1122 1.24702C78.9563 1.2443 78.8003 1.24157 78.6397 1.23876C78.1438 1.23022 77.6479 1.22247 77.152 1.21474C76.8149 1.20907 76.4778 1.20335 76.1407 1.19757C75.3162 1.18356 74.4917 1.1702 73.6672 1.15734C73.6672 1.11405 73.6672 1.07076 73.6672 1.02615Z" fill="#EC1E26"/>
<path d="M21.3221 3.3877C21.3654 3.3877 21.4087 3.3877 21.4533 3.3877C21.4568 3.6036 21.4594 3.81953 21.4615 4.03546C21.463 4.1557 21.4646 4.27594 21.4661 4.39982C21.4533 4.69961 21.4533 4.69961 21.3221 4.83081C21.3013 5.10248 21.2892 5.37483 21.2806 5.64717C21.2751 5.81248 21.2696 5.97779 21.264 6.14811C21.2587 6.32397 21.2535 6.49983 21.2483 6.67569C21.2427 6.85207 21.2369 7.02844 21.2312 7.20482C21.2172 7.63792 21.2038 8.07104 21.1909 8.50418C21.1476 8.50418 21.1043 8.50418 21.0597 8.50418C21.0532 7.96529 21.0485 7.42642 21.0453 6.8875C21.044 6.70467 21.0422 6.52185 21.0399 6.33903C21.0275 5.32156 21.0448 4.37371 21.3221 3.3877Z" fill="#EC1E26"/>
<path d="M37.9842 12.0464C38.1318 12.5384 38.1318 12.5384 37.9842 12.8335C36.9804 13.1398 36.0095 13.1226 34.9668 13.0959C34.9668 13.0526 34.9668 13.0093 34.9668 12.9647C35.1187 12.9534 35.2705 12.9421 35.427 12.9304C35.6289 12.9119 35.8308 12.8933 36.0327 12.8745C36.1325 12.8675 36.2323 12.8605 36.3351 12.8533C37.086 12.7788 37.4474 12.5772 37.9842 12.0464Z" fill="#EC1E26"/>
<path d="M61.8757 16.6298C61.9951 16.631 62.1145 16.6322 62.2375 16.6334C62.375 16.6357 62.375 16.6357 62.5152 16.638C61.5771 17.2634 60.2034 17.2074 59.1042 17.1628C59.1042 17.1195 59.1042 17.0762 59.1042 17.0316C59.2986 17.0054 59.2986 17.0054 59.4968 16.9788C59.6649 16.9556 59.833 16.9325 60.0062 16.9086C60.2573 16.8743 60.2573 16.8743 60.5135 16.8394C61.7957 16.6288 61.7957 16.6288 61.8757 16.6298Z" fill="#EC1E26"/>
<path d="M49.9214 0.895102C49.9214 0.938395 49.9214 0.981688 49.9214 1.02629C49.7623 1.05242 49.7623 1.05242 49.6001 1.07908C49.4599 1.10225 49.3197 1.12542 49.1752 1.14929C49.0367 1.17212 48.8982 1.19495 48.7555 1.21847C48.0351 1.33673 48.0351 1.33673 47.3468 1.56746C47.0352 1.68225 47.0352 1.68225 46.6416 1.55106C47.6421 0.956183 48.776 0.851878 49.9214 0.895102Z" fill="#EC1E26"/>
<path d="M40.3439 16.3758C40.6469 16.3758 40.95 16.3758 41.2622 16.3758C40.7394 16.8986 39.8087 17.0032 39.0883 17.0568C38.8507 17.0564 38.6132 17.0454 38.376 17.0317C38.376 16.9884 38.376 16.9451 38.376 16.9005C38.5248 16.8816 38.6736 16.8626 38.8269 16.8431C39.2691 16.8203 39.2691 16.8203 39.4255 16.6381C39.7316 16.6328 40.0378 16.6326 40.3439 16.6381C40.3439 16.5516 40.3439 16.465 40.3439 16.3758Z" fill="#EC1E26"/>
<path d="M26.7012 12.5715C26.8202 12.6121 26.9393 12.6527 27.0619 12.6945C27.7566 12.8965 28.4752 12.9202 29.1938 12.9651C29.1938 13.0084 29.1938 13.0517 29.1938 13.0963C28.9124 13.1217 28.6308 13.1461 28.3493 13.1701C28.1141 13.1906 28.1141 13.1906 27.8742 13.2116C27.7469 13.2168 27.6195 13.2221 27.4883 13.2275C27.445 13.1842 27.4017 13.1409 27.3571 13.0963C27.1385 13.0909 26.9198 13.0907 26.7012 13.0963C26.7012 12.9231 26.7012 12.7499 26.7012 12.5715Z" fill="#EC1E26"/>
<path d="M67.7637 11.7844C67.9222 12.2598 67.835 12.3933 67.6325 12.834C67.546 12.834 67.4594 12.834 67.3702 12.834C67.3702 13.0071 67.3702 13.1803 67.3702 13.3587C67.2836 13.3587 67.197 13.3587 67.1078 13.3587C67.0645 13.5752 67.0212 13.7917 66.9766 14.0147C66.8467 13.9714 66.7168 13.9281 66.583 13.8835C66.9726 13.1908 67.3623 12.4981 67.7637 11.7844Z" fill="#EC1E26"/>
<path d="M72.2243 3.51892C72.389 4.01302 72.273 4.22367 72.0931 4.69965C72.0066 4.69965 71.92 4.69965 71.8308 4.69965C71.778 4.92288 71.778 4.92288 71.7242 5.15062C71.6728 5.30485 71.6213 5.45909 71.5684 5.61799C71.4385 5.66128 71.3086 5.70458 71.1748 5.74918C71.3933 4.94057 71.8148 4.24276 72.2243 3.51892Z" fill="#EC1E26"/>
<path d="M82.7184 3.65024C83.124 3.9821 83.2313 4.33566 83.3744 4.83097C83.2878 4.83097 83.2012 4.83097 83.112 4.83097C83.112 4.70109 83.112 4.57121 83.112 4.43739C82.9821 4.43739 82.8523 4.43739 82.7184 4.43739C82.7184 4.52398 82.7184 4.61056 82.7184 4.69977C82.6319 4.69977 82.5453 4.69977 82.4561 4.69977C82.5246 4.33732 82.6015 4.00103 82.7184 3.65024Z" fill="#EC1E26"/>
<path d="M98.3321 7.32373C98.3672 7.40491 98.4024 7.48608 98.4386 7.56972C98.5886 7.88779 98.5886 7.88779 98.988 8.11088C99.0126 8.45526 99.0126 8.45526 98.988 8.76684C98.5567 8.35881 98.2222 7.97757 97.9385 7.45492C98.0684 7.41163 98.1982 7.36834 98.3321 7.32373Z" fill="#EC1E26"/>
<path d="M23.29 16.5071C23.5662 16.5185 23.8422 16.5327 24.1182 16.5481C24.3488 16.5595 24.3488 16.5595 24.584 16.5711C25.0084 16.6404 25.1381 16.6939 25.3891 17.0318C24.6585 16.9689 23.9892 16.8614 23.29 16.6383C23.29 16.595 23.29 16.5517 23.29 16.5071Z" fill="#EC1E26"/>
<path d="M65.5326 15.8512C65.6638 16.376 65.6638 16.376 65.5326 16.7695C65.8356 16.7695 66.1387 16.7695 66.4509 16.7695C66.4509 16.8128 66.4509 16.8561 66.4509 16.9007C65.9747 16.9007 65.4985 16.9007 65.0078 16.9007C65.181 16.5544 65.3542 16.208 65.5326 15.8512Z" fill="#EC1E26"/>
<path d="M87.3105 12.1777C87.6867 12.5317 87.8943 12.8804 88.0977 13.3584C88.0544 13.445 88.0111 13.5316 87.9665 13.6208C87.7103 13.5275 87.7103 13.5275 87.4417 13.3584C87.3618 13.0745 87.3618 13.0745 87.3433 12.7516C87.3359 12.6444 87.3285 12.5372 87.3208 12.4267C87.3174 12.3445 87.314 12.2624 87.3105 12.1777Z" fill="#EC1E26"/>
<path d="M101.086 3.3877C101.517 3.79572 101.852 4.17697 102.135 4.69961C102.006 4.69961 101.876 4.69961 101.742 4.69961C101.521 4.43723 101.521 4.43723 101.348 4.17485C101.218 4.23979 101.218 4.23979 101.086 4.30604C101.086 4.00299 101.086 3.69993 101.086 3.3877Z" fill="#EC1E26"/>
<path d="M21.7148 15.1954C21.9746 15.3253 21.9746 15.3253 22.2396 15.4578C22.2396 15.5443 22.2396 15.6309 22.2396 15.7201C22.3181 15.758 22.3965 15.7959 22.4774 15.8349C22.7644 15.9825 22.7644 15.9825 23.158 16.2449C23.1147 16.3315 23.0714 16.4181 23.0268 16.5073C22.8563 16.3884 22.6871 16.2678 22.5184 16.1465C22.424 16.0795 22.3297 16.0126 22.2324 15.9436C21.966 15.7103 21.8488 15.5198 21.7148 15.1954Z" fill="#EC1E26"/>
<path d="M42.0495 15.1954C42.1794 15.1954 42.3093 15.1954 42.4431 15.1954C42.2603 15.6371 42.0523 15.8495 41.6559 16.1137C41.5694 16.0271 41.4828 15.9405 41.3936 15.8513C41.5739 15.6545 41.5739 15.6545 41.7871 15.4578C41.8737 15.4578 41.9603 15.4578 42.0495 15.4578C42.0495 15.3712 42.0495 15.2846 42.0495 15.1954Z" fill="#EC1E26"/>
<path d="M83.3762 4.83115C83.7824 5.29146 83.9983 5.68284 84.1634 6.27426C83.9112 6.18099 83.9112 6.18099 83.6386 6.01187C83.53 5.72797 83.53 5.72797 83.4746 5.40511C83.455 5.29789 83.4354 5.19067 83.4152 5.08021C83.4023 4.99802 83.3895 4.91583 83.3762 4.83115Z" fill="#EC1E26"/>
<path d="M21.322 3.38766C21.3652 3.38766 21.4085 3.38766 21.4531 3.38766C21.4638 3.59527 21.4714 3.80304 21.4777 4.01083C21.4846 4.18434 21.4846 4.18434 21.4916 4.36135C21.4465 4.75819 21.3217 4.92994 21.0596 5.22435C21.0782 5.01659 21.0975 4.80888 21.117 4.60119C21.1276 4.48552 21.1383 4.36984 21.1493 4.25066C21.1858 3.95264 21.2417 3.67648 21.322 3.38766Z" fill="#EC1E26"/>
<path d="M23.2904 1.81348C23.2904 1.90006 23.2904 1.98665 23.2904 2.07586C23.0641 2.20398 22.8378 2.33209 22.6114 2.46021C22.3957 2.58676 22.1866 2.7243 21.9785 2.86301C22.2168 2.25638 22.6173 1.81348 23.2904 1.81348Z" fill="#EC1E26"/>
<path d="M73.5358 1.15759C73.667 1.55117 73.667 1.55117 73.503 2.02674C73.2735 2.46951 73.2735 2.46951 72.8799 2.6007C73.0406 2.06901 73.2339 1.62416 73.5358 1.15759Z" fill="#EC1E26"/>
<path d="M61.7285 7.45508C62.3809 7.52032 62.8618 7.65882 63.434 7.97985C63.3041 8.06643 63.1743 8.15302 63.0404 8.24223C62.5934 7.98919 62.156 7.74007 61.7285 7.45508Z" fill="#EC1E26"/>
<path d="M58.0547 4.43767C58.849 4.41205 58.849 4.41205 59.1042 4.43767C59.1908 4.52426 59.2774 4.61085 59.3666 4.70006C59.3174 4.97884 59.3174 4.97884 59.2354 5.22483C59.1624 5.14095 59.0893 5.05706 59.014 4.97064C58.6817 4.67424 58.4898 4.61721 58.0547 4.56887C58.0547 4.52557 58.0547 4.48228 58.0547 4.43767Z" fill="#EC1E26"/>
<path d="M49.6607 4.9624C49.7473 4.9624 49.8339 4.9624 49.9231 4.9624C49.8798 5.35204 49.8365 5.74168 49.7919 6.14313C49.7053 6.09984 49.6187 6.05654 49.5295 6.01194C49.5239 5.70587 49.5241 5.39966 49.5295 5.09359C49.5728 5.0503 49.6161 5.00701 49.6607 4.9624Z" fill="#EC1E26"/>
<path d="M49.5287 11.7844C49.572 11.7844 49.6153 11.7844 49.6599 11.7844C49.7041 11.9729 49.7477 12.1615 49.7911 12.3502C49.8154 12.4552 49.8398 12.5602 49.8648 12.6684C49.9222 12.9652 49.9222 12.9652 49.9222 13.3587C49.6459 13.1346 49.5368 13.0279 49.4902 12.6684C49.4948 12.5634 49.4994 12.4584 49.5041 12.3502C49.5076 12.2442 49.5112 12.1381 49.5148 12.0289C49.5194 11.9482 49.524 11.8675 49.5287 11.7844Z" fill="#EC1E26"/>
<path d="M25.9145 11.2593C26.1143 11.6446 26.282 12.0355 26.4393 12.44C26.3094 12.44 26.1795 12.44 26.0457 12.44C25.8517 12.0521 25.9066 11.6867 25.9145 11.2593Z" fill="#EC1E26" fill-opacity="0.756863"/>
<path d="M61.9924 1.42017C62.5584 1.48305 62.8013 1.6492 63.1732 2.07613C62.4188 1.97773 62.4188 1.97773 62.1236 1.68255C62.0803 1.59596 62.037 1.50938 61.9924 1.42017Z" fill="#EC1E26"/>
</svg>
