<svg width="102" height="60" viewBox="0 0 102 60" fill="none" xmlns="http://www.w3.org/2000/svg">
<path d="M92.9607 13.8675C93.1227 14.0059 93.1227 14.0059 93.288 14.1472C96.4891 16.9456 98.4298 20.4817 98.7819 24.7211C98.8621 27.4604 97.983 30.0045 96.6885 32.3781C96.6448 32.459 96.601 32.5398 96.556 32.6231C95.473 34.5988 93.9958 36.2821 92.4465 37.9056C92.2862 38.0739 92.2862 38.0738 92.1226 38.2455C91.4858 38.8984 90.8207 39.4906 90.107 40.0582C89.8749 40.245 89.6466 40.4366 89.4231 40.6337C87.5488 42.2774 85.3585 43.6212 83.1912 44.8471C83.091 44.9039 82.9908 44.9608 82.8876 45.0194C73.2262 50.471 62.2861 53.3994 41.0361 55.1548C40.8985 55.1548 40.7609 55.1547 40.6191 55.1546C38.3876 55.1512 36.1801 55.0929 33.9581 54.8736C33.7914 54.8578 33.6246 54.8419 33.4529 54.8255C26.8353 54.1835 20.1643 52.802 14.162 49.8603C14.0073 49.7848 14.0073 49.7848 13.8495 49.7078C11.336 48.4673 9.14475 46.8825 7.09199 44.9756C7.00632 44.8984 6.92065 44.8212 6.83238 44.7416C3.61131 41.7108 2.60449 37.8034 2.46433 33.535C2.15971 34.4939 2.01154 35.3656 2.02246 36.3711C2.02343 36.499 2.0244 36.6269 2.02541 36.7587C2.09727 40.0361 3.48657 43.0802 5.67798 45.4898C5.74105 45.5592 5.80412 45.6286 5.86911 45.7001C12.5267 52.9262 23.9946 54.9242 33.2867 55.7996C33.3759 55.8081 33.4651 55.8166 33.557 55.8254C35.2783 55.9829 36.9913 56.0519 38.7188 56.0567C38.9242 56.0576 39.1295 56.0585 39.3349 56.0594C39.9877 56.0619 40.6404 56.0625 41.2932 56.0627C41.4044 56.0627 41.5155 56.0628 41.63 56.0629C44.8194 56.0637 47.9937 56.0546 51.1651 55.6775C51.455 55.6432 51.7449 55.6105 52.035 55.5781C60.9366 54.5703 69.6022 52.3158 77.9042 48.9621C77.9901 48.9275 78.076 48.893 78.1644 48.8573C78.3962 48.7638 78.6276 48.6696 78.859 48.5753C79.2062 48.4463 79.2062 48.4463 79.4633 48.4463C79.4633 48.5312 79.4633 48.616 79.4633 48.7034C70.3761 53.4087 60.5552 56.713 41.2852 59.5013C41.1543 59.5093 41.1543 59.5093 41.0207 59.5174C39.2392 59.6243 37.4619 59.6557 35.6774 59.6539C35.5406 59.6539 35.4038 59.6539 35.2629 59.6538C24.6291 59.6414 12.5432 58.0606 4.51303 50.4147C1.73377 47.5542 0.0690434 43.8759 0.105065 39.8636C0.177403 37.3199 0.808907 34.9291 1.95699 32.6663C2.03041 32.5204 2.03041 32.5204 2.10531 32.3716C2.14969 32.2859 2.19406 32.2001 2.23979 32.1118C2.36674 31.8283 2.36674 31.8283 2.33579 31.3497C2.46305 31.3073 2.59031 31.2649 2.72143 31.2212C2.89438 30.9442 2.89438 30.9442 3.04229 30.596C3.10268 30.4646 3.16307 30.3332 3.22528 30.1978C3.28967 30.0556 3.35406 29.9135 3.42039 29.767C4.51882 27.4193 5.77161 25.3338 7.47762 23.3799C7.58235 23.2586 7.68707 23.1373 7.79497 23.0123C8.88332 21.7784 10.0429 20.6712 11.334 19.652C11.4657 19.5453 11.5975 19.4386 11.7332 19.3287C13.8727 17.6046 16.1453 16.1232 18.5326 14.7673C18.6421 14.7041 18.7516 14.6409 18.8644 14.5757C22.4289 12.5224 26.2249 10.9778 30.1017 9.62547C30.3151 9.55078 30.3151 9.55078 30.5328 9.47458C38.2152 6.82219 50.2733 1.75234 70.9152 5.06209C77.9562 6.19106 87.1763 8.92592 92.9607 13.8675Z" fill="#EB1D25"/>
<path d="M51.8821 12.0035C52.0608 11.9936 52.0608 11.9936 52.2431 11.9834C52.6627 12.0834 52.8605 12.2582 53.1168 12.6029C53.3403 13.0319 53.3275 13.441 53.3122 13.9156C53.3136 14.0053 53.315 14.0949 53.3164 14.1873C53.2949 15.8183 52.6802 17.4422 52.0829 18.937C52.0176 19.103 51.9523 19.2692 51.8871 19.4353C51.0751 21.4944 50.2302 23.5407 49.391 25.5888C48.852 26.9042 48.318 28.2212 47.7927 29.542C47.2796 30.8289 46.7636 32.1146 46.24 33.3972C46.1626 33.5871 46.0855 33.777 46.0087 33.9671C44.0373 38.845 39.9317 41.9775 35.1712 44.0559C34.1253 44.496 32.9749 44.8825 31.857 44.4819C31.2915 44.1686 30.9766 43.7967 30.6921 43.2216C30.4663 42.3259 30.6769 41.5577 30.9632 40.7094C30.9991 40.5988 31.035 40.4881 31.0719 40.3741C31.1863 40.0221 31.3026 39.6708 31.4192 39.3195C32.5154 36.3022 32.5154 36.3022 32.8011 33.1493C32.5667 33.0553 32.5667 33.0553 32.2869 33.0208C30.5767 33.9056 29.256 36.4249 28.201 37.9522C23.4744 44.793 23.4744 44.793 21.2319 45.2326C21.3036 44.8028 21.4057 44.4571 21.6176 44.0757C21.1801 44.148 21.0053 44.2636 20.7373 44.6135C20.6707 44.6999 20.6042 44.7863 20.5356 44.8753C20.4658 44.9694 20.396 45.0634 20.3241 45.1603C20.2151 45.3048 20.2151 45.3048 20.104 45.4521C19.2864 46.5556 18.505 47.7299 17.8897 48.9605C17.3562 48.8959 17.1077 48.7648 16.7489 48.3659C16.6697 48.2821 16.5905 48.1983 16.5089 48.1119C16.2681 47.6528 16.343 47.401 16.4757 46.9037C16.6596 46.5183 16.8802 46.1624 17.1104 45.8031C17.174 45.7018 17.2375 45.6005 17.303 45.4961C18.6731 43.3343 20.2616 41.3459 21.9374 39.4154C22.1942 39.1189 22.4491 38.8208 22.704 38.5226C23.3056 37.8189 23.9107 37.1182 24.5179 36.4192C25.9164 34.8089 25.9164 34.8089 27.2655 33.1574C27.4392 32.9401 27.6133 32.7232 27.7878 32.5066C27.886 32.3841 27.9843 32.2617 28.0855 32.1355C28.9571 31.074 29.9128 30.0969 30.8809 29.1242C30.946 29.0584 31.0111 28.9927 31.0782 28.9249C35.4033 24.565 35.4033 24.565 38.1598 24.4966C39.0552 24.5086 39.7218 24.6781 40.3903 25.2914C41.0976 26.0613 41.3423 26.6974 41.3212 27.7415C41.2565 28.4489 41.0543 29.1072 40.8432 29.783C40.7972 29.934 40.7513 30.0849 40.7039 30.2404C40.2555 31.6764 39.6966 33.0553 39.0998 34.4348C38.2055 36.3531 38.2055 36.3531 37.9429 38.4197C38.5278 38.4197 38.8702 38.3373 39.2926 37.9216C39.7031 37.3874 39.9238 36.8479 40.1465 36.2204C40.1847 36.1147 40.2229 36.009 40.2622 35.9002C40.8082 34.3756 41.3157 32.8375 41.8269 31.301C41.9379 30.9679 42.0491 30.6348 42.1602 30.3017C42.3911 29.6094 42.6217 28.917 42.8521 28.2246C43.1184 27.4243 43.3853 26.6242 43.6524 25.8242C43.8831 25.1334 44.1134 24.4426 44.3435 23.7516C44.4804 23.3405 44.6174 22.9294 44.7547 22.5184C44.9067 22.0629 45.0583 21.6073 45.2097 21.1516C45.2552 21.0157 45.3006 20.8798 45.3475 20.7398C45.3884 20.6165 45.4293 20.4931 45.4714 20.366C45.5072 20.2585 45.543 20.151 45.5799 20.0402C45.6676 19.7845 45.6676 19.7845 45.6556 19.5235C44.6569 20.3225 44.3573 21.6884 43.9845 22.8656C43.8573 22.8656 43.73 22.8656 43.5989 22.8656C43.5148 20.1417 43.5936 17.8247 45.4146 15.6349C46.3134 14.6897 47.3326 14.1827 48.572 13.8192C49.403 13.5646 49.8725 13.2388 50.4334 12.5805C50.8644 12.1127 51.2564 12.0243 51.8821 12.0035Z" fill="#FEFDFD"/>
<path d="M84.8641 10.9111C84.6177 11.5649 84.0524 11.8635 83.5059 12.2594C83.1122 12.6657 83.0762 12.924 83.0645 13.4821C83.2305 13.7933 83.2305 13.7933 83.4501 13.9962C83.3145 14.4189 83.1844 14.5155 82.7923 14.7439C82.6321 14.8203 82.471 14.8951 82.3093 14.9684C81.7987 15.2058 81.3164 15.4345 80.8792 15.7959C80.8997 16.0436 80.8997 16.0436 81.0078 16.3101C81.2696 16.5021 81.2696 16.5021 81.5862 16.6475C82.1528 16.929 82.1528 16.929 82.2932 17.2099C82.4001 17.9583 82.2077 18.3655 81.78 18.9523C78.8913 22.4704 74.1825 24.7558 70.2639 26.9508C69.7699 27.2017 69.7699 27.2017 69.4386 27.6221C69.5516 27.6567 69.6647 27.6914 69.7811 27.727C71.0804 28.188 71.975 28.9996 72.6523 30.193C73.0468 31.2227 72.9818 32.0276 72.5805 33.0386C71.6511 34.8848 69.9008 35.8783 68.1718 36.857C67.0617 37.4898 66.0361 38.2145 65.0349 39.007C62.0101 41.3998 58.5566 42.5395 54.688 42.5656C54.5664 42.5668 54.4447 42.568 54.3194 42.5692C53.3467 42.5648 52.2872 42.5482 51.4342 42.0433C50.9238 41.4671 50.8635 40.8665 50.8803 40.1227C51.0029 39.0505 51.4253 38.0182 51.8153 37.0175C52.3948 35.4972 52.7522 34.0116 53.0089 32.4104C53.0245 32.3126 53.0402 32.2148 53.0564 32.114C53.0876 31.9194 53.1188 31.7247 53.1499 31.53C53.165 31.4359 53.1801 31.3419 53.1957 31.245C53.2105 31.1525 53.2253 31.06 53.2406 30.9646C53.748 27.85 55.0252 25.1942 56.7528 22.5767C56.8053 22.497 56.8578 22.4172 56.9118 22.3351C57.6264 21.2758 57.6264 21.2758 58.2551 21.0663C58.3748 21.0785 58.4944 21.0908 58.6177 21.1034C59.2695 21.1697 59.7347 21.209 60.2752 20.8062C60.8901 20.0921 61.2173 19.3837 61.4758 18.4858C61.7946 17.4992 62.3832 16.6142 63.2684 16.053C63.3533 16.053 63.4381 16.053 63.5255 16.053C63.5462 16.9302 63.4752 17.7574 63.3407 18.6239C63.3189 18.765 63.2971 18.906 63.2746 19.0514C62.9571 20.9983 62.5111 22.9199 62.0742 24.8428C61.9326 25.468 61.7957 26.0939 61.6654 26.7216C61.5895 27.0871 61.5118 27.4522 61.434 27.8172C61.3822 28.0634 61.3329 28.31 61.2836 28.5567C61.1002 29.4055 60.8801 30.0345 60.3363 30.7189C60.1508 31.0165 60.1483 31.1663 60.1914 31.5106C60.2547 31.764 60.3182 32.0173 60.3832 32.2702C60.4643 32.7875 60.4536 33.2957 60.4485 33.8184C60.4477 33.9878 60.4477 33.9878 60.447 34.1606C60.4454 34.5199 60.443 34.8792 60.4404 35.2384C60.437 35.7131 60.4344 36.1878 60.4324 36.6625C60.4313 36.7723 60.4303 36.8821 60.4292 36.9952C60.4281 37.2559 60.4336 37.5166 60.4404 37.7772C60.578 37.9412 60.578 37.9412 60.8984 37.9459C61.8494 37.8595 62.6247 37.2422 63.3648 36.6766C63.4538 36.6091 63.5427 36.5417 63.6343 36.4723C64.4588 35.8385 65.2195 35.1567 65.9679 34.435C66.0786 34.3325 66.1893 34.2299 66.3033 34.1242C67.2024 33.2684 68.6651 31.8602 68.7075 30.5465C68.6948 29.748 68.3536 29.3595 67.7911 28.8127C67.1175 28.2426 66.3198 27.8833 65.5341 27.4936C62.7506 26.1049 62.7506 26.1049 62.4409 25.4047C62.6381 23.7142 64.2983 22.6186 65.5427 21.6332C67.5823 20.0491 69.7654 18.6162 72.0096 17.3384C72.1054 17.2837 72.2012 17.2291 72.2999 17.1727C72.6096 16.9967 72.92 16.8218 73.2307 16.6475C73.3262 16.5938 73.4216 16.5402 73.5199 16.4849C74.9871 15.6714 74.9871 15.6714 75.6892 15.6593C76.135 15.5873 76.135 15.5873 76.2998 15.2636C76.4049 15.039 76.5033 14.8111 76.594 14.5802C76.9543 13.8945 77.616 13.616 78.3043 13.3314C78.3903 13.2949 78.4764 13.2584 78.565 13.2208C78.8432 13.1033 79.122 12.9873 79.4009 12.8715C79.5926 12.7911 79.7843 12.7108 79.976 12.6304C81.0567 12.1787 82.1405 11.7349 83.2332 11.3128C83.3411 11.2708 83.449 11.2287 83.5601 11.1854C83.6585 11.1483 83.757 11.1111 83.8584 11.0728C83.9418 11.0412 84.0252 11.0096 84.1111 10.977C84.35 10.9111 84.35 10.9111 84.8641 10.9111Z" fill="#FEFDFD"/>
<path d="M85.3776 3.19816C85.5127 3.24421 85.6478 3.29025 85.7871 3.33769C91.4068 5.28428 96.9076 8.35948 99.6693 13.8665C101.493 17.7243 101.431 21.9749 100.032 25.9508C99.8314 26.4717 99.6193 26.9849 99.3891 27.4933C99.2618 27.4509 99.1346 27.4085 99.0034 27.3648C99.0452 27.1406 99.0452 27.1406 99.0878 26.9119C99.7835 22.9958 99.174 19.5828 96.9201 16.2797C94.5002 12.9889 91.0884 10.6914 87.4269 8.97218C87.1825 8.85668 86.9404 8.7371 86.6982 8.61718C80.7637 5.75995 74.012 4.6834 67.5097 4.09798C67.424 4.09019 67.3383 4.08241 67.25 4.07438C62.3572 3.63644 57.3628 3.67205 52.4698 4.09798C52.3759 4.1061 52.2819 4.11422 52.1852 4.12259C41.2937 5.07543 30.5075 7.58644 19.5502 13.1098C19.4137 13.1806 19.4137 13.1806 19.2743 13.2529C19.1913 13.2965 19.1082 13.3402 19.0226 13.3852C18.7908 13.4818 18.7908 13.4818 18.4052 13.4818C18.56 13.0173 18.6559 12.9884 19.071 12.7563C19.2435 12.6589 19.2435 12.6589 19.4195 12.5597C19.5461 12.4902 19.6727 12.4206 19.8031 12.349C19.9351 12.2757 20.0672 12.2024 20.2032 12.1268C20.6311 11.8908 21.0603 11.6574 21.4903 11.4251C21.6289 11.3501 21.7675 11.2752 21.9103 11.1979C31.3255 6.14076 41.6957 2.90609 59.2828 0.498697C59.4138 0.488631 59.4138 0.488631 59.5476 0.478361C68.3127 -0.183643 77.014 0.348267 85.3776 3.19816Z" fill="#009849"/>
<path d="M2.33579 31.3499C2.50547 31.3499 2.67515 31.3499 2.84997 31.3499C2.9483 32.318 2.74064 33.034 2.36039 33.9234C1.41056 36.2995 2.17436 39.413 3.1382 41.6773C3.7909 43.0772 4.63898 44.3476 5.67798 45.49C5.74105 45.5594 5.80412 45.6288 5.86911 45.7003C12.5267 52.9264 23.9946 54.9244 33.2867 55.7998C33.3759 55.8083 33.4651 55.8169 33.557 55.8257C35.2783 55.9831 36.9913 56.0522 38.7188 56.0569C38.9242 56.0578 39.1295 56.0587 39.3349 56.0596C39.9877 56.0621 40.6404 56.0627 41.2932 56.0629C41.4044 56.063 41.5155 56.063 41.63 56.0631C44.8194 56.0639 47.9937 56.0549 51.1651 55.6777C51.455 55.6434 51.7449 55.6107 52.035 55.5783C60.9367 54.5705 69.6022 52.316 77.9043 48.9623C77.9901 48.9278 78.076 48.8932 78.1645 48.8575C78.3962 48.764 78.6276 48.6698 78.8591 48.5755C79.2063 48.4466 79.2063 48.4466 79.4633 48.4466C79.4633 48.5314 79.4633 48.6162 79.4633 48.7036C70.3761 53.4089 60.5552 56.7132 41.2852 59.5015C41.1543 59.5095 41.1543 59.5095 41.0207 59.5176C39.2392 59.6245 37.4619 59.6559 35.6774 59.6542C35.5406 59.6541 35.4038 59.6541 35.2629 59.654C24.6291 59.6416 12.5432 58.0609 4.51304 50.4149C1.73377 47.5544 0.0690434 43.8761 0.105065 39.8638C0.177403 37.3201 0.808907 34.9293 1.95699 32.6665C2.03041 32.5206 2.03041 32.5206 2.10531 32.3718C2.14969 32.2861 2.19407 32.2003 2.23979 32.112C2.36674 31.8285 2.36674 31.8285 2.33579 31.3499Z" fill="#009748"/>
</svg>
