<svg width="136" height="222" viewBox="0 0 136 222"  xmlns="http://www.w3.org/2000/svg" >
<path d="M66.9451 0.958008C67.184 0.958008 67.423 0.958008 67.6691 0.958008C69.1171 2.90979 69.1171 2.90979 69.1171 3.84325C69.4755 3.84325 69.8338 3.84325 70.2031 3.84325C70.2031 2.89112 70.2031 1.93899 70.2031 0.958008C73.0507 1.08547 75.8978 1.22053 78.7448 1.36084C79.713 1.40821 80.6814 1.45318 81.6499 1.49609C83.0429 1.5587 84.4355 1.62756 85.8282 1.69763C86.4765 1.72476 86.4765 1.72476 87.1379 1.75243C89.234 1.86393 90.8701 1.96163 92.6467 3.12194C92.6607 3.72446 92.6607 3.72446 92.675 4.33916C92.7886 7.72586 93.1972 10.8092 94.0989 14.074C95.0973 17.7302 95.7645 21.0165 94.246 24.6049C93.5231 25.8409 92.5914 26.6209 91.4547 27.4761C90.7353 28.0028 90.7353 28.0028 90.4747 29.0892C89.8823 29.6456 89.8823 29.6456 89.1399 30.2387C87.808 31.3537 86.8259 32.5266 85.8508 33.9566C85.7043 34.1356 85.5578 34.3146 85.4068 34.499C85.1679 34.499 84.929 34.499 84.6828 34.499C84.5393 34.8198 84.5393 34.8198 84.393 35.147C83.943 35.9706 83.4868 36.4733 82.805 37.1137C81.6501 38.231 80.5822 39.3947 79.5329 40.6104C79.0878 41.1242 78.6367 41.633 78.1811 42.1376C77.9524 42.3914 77.7238 42.6452 77.4882 42.9068C77.2801 43.136 77.072 43.3652 76.8575 43.6013C76.2819 44.2585 76.2819 44.2585 75.995 45.3187C75.6478 45.3968 75.6478 45.3968 75.2936 45.4764C74.4986 45.5998 74.4986 45.5998 74.185 46.2879C74.0656 46.5631 73.9461 46.8384 73.823 47.1219C73.099 48.2941 73.099 48.2941 72.375 49.2859C72.1361 49.2859 71.8972 49.2859 71.6511 49.2859C71.5279 49.5711 71.5279 49.5711 71.4022 49.8621C70.6425 51.2474 69.6133 52.4364 68.6222 53.6623C67.7197 54.8022 67.0397 55.8376 66.5831 57.2203C66.7619 57.4118 66.9406 57.6034 67.1247 57.8007C67.3566 58.0555 67.5885 58.3103 67.8275 58.5728C68.0585 58.8238 68.2895 59.0749 68.5274 59.3335C69.1138 60.1012 69.328 60.6069 69.4791 61.5482C69.718 61.5482 69.9569 61.5482 70.2031 61.5482C70.2031 61.7862 70.2031 62.0242 70.2031 62.2695C70.442 62.2695 70.6809 62.2695 70.9271 62.2695C71.4248 62.8147 71.4248 62.8147 72.013 63.5994C72.237 63.8942 72.461 64.1889 72.6918 64.4926C72.9456 64.8301 73.1995 65.1676 73.461 65.5154C74.062 66.3061 74.6661 67.0944 75.271 67.8822C75.4245 68.0833 75.5779 68.2845 75.736 68.4918C76.8109 69.8893 77.9473 71.1937 79.1879 72.4467C79.7583 73.3048 79.732 73.8843 79.6149 74.8924C79.4357 75.0486 79.2565 75.2048 79.0719 75.3658C78.3314 76.1958 78.2942 76.9557 78.3225 78.0425C78.6728 79.429 79.5769 80.3693 80.5086 81.4265C81.0629 82.1055 81.0629 82.1055 81.0629 82.8269C81.4213 82.8269 81.7796 82.8269 82.1489 82.8269C82.1843 83.0537 82.2198 83.2806 82.2563 83.5144C82.6233 85.6074 83.0676 87.5621 84.3208 89.3187C85.2621 89.9906 85.2621 89.9906 86.1308 90.4006C86.1308 90.6387 86.1308 90.8767 86.1308 91.1219C86.359 91.2112 86.5872 91.3005 86.8223 91.3924C87.7578 91.9499 87.8309 92.2535 88.0992 93.2859C89.1427 96.7201 90.319 98.907 93.3707 100.86C93.6642 101.075 93.9577 101.291 94.2601 101.513C95.6755 102.553 96.9706 103.446 98.6422 104.015C99.0529 104.164 99.4635 104.313 99.8866 104.466C100.006 104.823 100.125 105.18 100.249 105.548C100.498 105.544 100.748 105.54 101.005 105.535C107.122 105.477 107.122 105.477 108.778 106.788C109.66 107.712 109.66 107.712 109.66 108.433C110.019 108.433 110.377 108.433 110.746 108.433C111.105 109.267 111.463 110.1 111.832 110.958C114.211 111.111 115.77 110.809 117.927 109.796C118.71 109.515 118.71 109.515 119.796 109.876C119.806 110.733 119.813 111.589 119.819 112.446C119.822 112.686 119.825 112.925 119.828 113.173C119.833 114.245 119.801 115.261 119.618 116.319C119.36 117.907 119.365 119.472 119.366 121.079C119.366 121.417 119.366 121.755 119.366 122.103C119.38 123.931 119.475 125.676 119.796 127.481C120.542 131.692 120.407 135.191 118.998 139.209C117.976 142.18 118.023 144.806 119.072 147.745C122.12 147.392 122.12 147.392 124.932 146.257C126.46 145.392 127.851 145.438 129.57 145.581C129.57 145.819 129.57 146.057 129.57 146.302C129.94 146.414 129.94 146.414 130.317 146.528C132.569 147.578 134.06 149.037 135 151.351C134.657 151.5 134.313 151.649 133.959 151.802C132.762 152.47 132.565 152.655 132.104 153.876C132.005 154.676 132.005 154.676 132.033 155.516C132.036 155.82 132.038 156.125 132.04 156.439C132.046 156.753 132.053 157.068 132.059 157.392C132.064 157.873 132.064 157.873 132.069 158.363C132.077 159.152 132.089 159.94 132.104 160.728C131.507 160.848 130.909 160.967 130.294 161.089C130.294 161.327 130.294 161.565 130.294 161.81C130.055 161.81 129.816 161.81 129.57 161.81C129.578 162.098 129.587 162.385 129.596 162.681C129.66 166.477 129.66 166.477 128.846 168.302C126.533 168.438 126.533 168.438 125.43 167.761C123.478 166.623 121.001 167.278 118.891 167.716C116.369 168.224 113.856 168.562 111.298 168.833C109.603 169.086 108.203 169.569 106.674 170.331C105.678 170.827 105.678 170.827 104.954 170.827C104.809 171.128 104.809 171.128 104.66 171.435C104.029 172.661 103.298 173.822 102.579 174.997C102.128 175.758 101.719 176.523 101.335 177.319C99.2531 177.003 99.2531 177.003 98.4386 176.597C98.4386 176.359 98.4386 176.121 98.4386 175.876C97.2705 176.458 97.1129 177.595 96.6286 178.761C95.9046 179.843 95.9046 179.843 94.8399 180.148C94.4073 180.226 93.9747 180.304 93.5291 180.384C93.0746 180.476 92.6201 180.567 92.1518 180.662C91.7178 180.749 91.2839 180.836 90.8367 180.925C89.6545 181.165 88.6261 181.402 87.5788 182.007C86.2772 184.631 86.2322 187.278 86.0686 190.158C85.9252 192.245 85.6897 193.863 84.6828 195.712C83.9136 196.343 83.9136 196.343 83.2349 196.794C82.8568 197.924 82.8597 198.611 82.9139 199.789C83.1538 207.133 83.1538 207.133 81.2085 210.471C80.2249 212.622 80.3449 215.02 80.3389 217.351C79.0075 217.794 78.6069 217.656 77.081 217.351C76.842 218.542 76.6031 219.732 76.357 220.958C73.7533 220.791 71.2879 220.507 68.7551 219.876C68.5162 219.043 68.2773 218.21 68.0311 217.351C65.4733 216.557 63.0481 216.184 60.384 216.089C57.695 215.991 55.2672 215.682 52.8274 214.466C52.8274 214.228 52.8274 213.99 52.8274 213.745C52.5885 213.745 52.3495 213.745 52.1034 213.745C51.9466 213.306 51.7898 212.867 51.6283 212.415C50.8643 210.2 50.8643 210.2 49.2074 208.696C49.2074 208.458 49.2074 208.22 49.2074 207.974C48.0128 208.212 46.8183 208.45 45.5875 208.696C45.4409 210.995 45.67 212.464 46.7187 214.521C47.0355 215.188 47.0355 215.188 47.0355 215.909C46.1885 215.838 46.1885 215.838 45.2255 215.548C44.7037 214.762 44.7037 214.762 44.2979 213.79C43.7197 212.423 43.2831 211.607 41.9675 210.86C41.2466 210.717 41.2466 210.717 40.5196 210.769C40.1444 210.783 40.1444 210.783 39.7616 210.798C39.0196 210.864 38.3314 210.985 37.6236 211.22C37.6236 211.458 37.6236 211.696 37.6236 211.942C36.7865 212.347 36.7865 212.347 35.8136 212.663C35.4553 212.425 35.0969 212.187 34.7277 211.942C33.9618 211.747 33.9618 211.747 33.1086 211.632C32.786 211.58 32.4634 211.529 32.131 211.475C31.7858 211.421 31.4407 211.367 31.0851 211.31C28.3907 210.853 25.7852 210.298 23.1891 209.44C22.8062 209.316 22.8062 209.316 22.4155 209.19C21.0706 208.724 19.9637 208.172 18.7858 207.371C17.3814 206.458 16.3305 206.338 14.637 206.419C14.1928 206.435 13.7485 206.452 13.2908 206.468C12.9586 206.489 12.6264 206.51 12.284 206.532C12.2926 206.126 12.2926 206.126 12.3013 205.711C12.324 204.474 12.338 203.238 12.3519 202.001C12.3656 201.362 12.3656 201.362 12.3795 200.71C12.4102 197.513 12.4102 197.513 11.1981 194.63C10.3843 193.796 10.3843 193.796 9.43334 193.142C8.95457 192.78 8.95457 192.78 8.46614 192.41C8.17309 192.19 7.88005 191.971 7.57812 191.745C6.47914 190.873 5.82792 190.299 5.58715 188.86C5.76815 187.778 5.76815 187.778 6.30831 186.921C7.42311 184.987 7.18618 182.88 6.61816 180.77C6.0094 178.803 5.31573 176.867 4.6203 174.929C3.23419 170.973 3.23419 170.973 3.23419 169.024C5.14552 169.024 7.05685 169.024 9.0261 169.024C8.74238 168.153 8.45867 167.283 8.16636 166.386C7.59284 164.605 7.10961 162.877 6.83151 161.022C6.57754 159.471 6.24081 158.575 5.04416 157.483C4.65592 157.252 4.26769 157.021 3.86768 156.784C2.8722 156.04 2.8722 156.04 2.66858 155.003C2.8722 153.876 2.8722 153.876 3.43781 152.794C4.06844 151.483 4.04483 150.919 3.59619 149.548C2.87979 148.744 2.87979 148.744 2.14821 148.106C2.14821 147.868 2.14821 147.629 2.14821 147.384C1.90929 147.384 1.67038 147.384 1.42422 147.384C0.495764 144.609 1.25304 142.129 2.14821 139.45C3.71858 134.492 4.70237 129.439 5.39343 124.29C5.45246 123.858 5.51149 123.426 5.57231 122.981C5.68507 122.139 5.79191 121.296 5.89188 120.452C6.24906 117.774 6.74037 115.148 8.91783 113.329C9.57174 112.91 10.2274 112.558 10.9266 112.22C11.381 111.984 11.8354 111.747 12.2897 111.51C12.8245 111.237 12.8245 111.237 13.37 110.958C13.9283 110.402 13.7933 109.882 13.7999 109.11C13.791 107.986 13.6902 107.208 13.37 106.112C13.0584 105.006 12.8938 104.094 12.827 102.956C12.8084 102.661 12.7897 102.366 12.7705 102.061C13.008 101.22 13.008 101.22 13.8989 100.398C15.5126 99.6168 16.7197 99.6005 18.4832 99.665C18.772 99.6685 19.0609 99.6719 19.3585 99.6755C20.6887 99.701 21.8542 99.8068 23.1439 100.138C23.7769 100.162 24.4108 100.169 25.0443 100.161C25.5287 100.156 25.5287 100.156 26.0228 100.151C26.2674 100.147 26.5119 100.143 26.7638 100.138C26.9764 96.4141 26.5452 92.9875 25.8309 89.3313C25.3464 86.8223 24.9696 84.593 25.8588 82.1281C26.6596 79.6168 26.6251 77.9115 25.6057 75.4278C24.1166 70.8249 24.1364 64.9684 24.7703 60.2081C24.9807 58.593 25.0279 56.992 25.0556 55.3649C25.0623 55.0582 25.069 54.7515 25.0758 54.4355C25.0969 53.4628 25.1161 52.4901 25.1348 51.5174C25.2758 44.2415 25.2758 44.2415 25.602 41.1622C25.7464 39.462 25.7154 37.7593 25.7004 36.0543C25.6988 35.6938 25.6972 35.3332 25.6955 34.9618C25.6913 34.0862 25.6854 33.2106 25.6778 32.3351C28.2413 31.2584 30.6747 30.9105 33.4239 30.598C36.2674 30.2418 38.2779 29.5723 40.1576 27.2859C40.6041 26.1379 40.9392 25.0239 41.2535 23.8378C41.7455 22.1558 42.2503 21.317 43.7775 20.4334C44.7414 20.1667 45.6268 19.9609 46.6056 19.8023C46.8564 19.7572 47.1072 19.7121 47.3656 19.6656C47.9787 19.5561 48.593 19.4531 49.2074 19.3514C49.3269 18.9944 49.4463 18.6374 49.5694 18.2695C49.8083 18.2695 50.0473 18.2695 50.2934 18.2695C50.3027 17.8738 50.3121 17.4782 50.3217 17.0706C50.3421 16.546 50.3628 16.0215 50.3839 15.4969C50.389 15.2368 50.3942 14.9767 50.3995 14.7087C50.4802 12.9466 50.751 11.9478 52.1034 10.6957C53.9226 9.61802 56.1253 9.84645 58.1802 9.83352C60.5068 9.76703 62.5399 9.28885 64.2508 7.62204C65.5899 6.05209 65.9507 4.18769 66.3739 2.21185C66.5831 1.31866 66.5831 1.31866 66.9451 0.958008ZM125.95 144.138C128.118 144.025 129.438 144.253 131.38 145.22C130.663 145.577 130.663 145.577 129.932 145.942C129.813 145.585 129.693 145.228 129.57 144.86C129.212 144.979 128.853 145.098 128.484 145.22C128.484 144.982 128.484 144.744 128.484 144.499C127.648 144.499 126.812 144.499 125.95 144.499C125.95 144.38 125.95 144.261 125.95 144.138Z"  stroke="white" stroke-width="0.5"/>
</svg>

