<svg width="156" height="196" viewBox="0 0 156 196" fill="none" xmlns="http://www.w3.org/2000/svg">
<path d="M131.518 192.83H136.214L134.95 184.694L130.253 180.898L131.518 174.931C130.795 174.811 129.206 173.521 128.628 169.326C127.905 164.083 132.782 139.494 135.672 138.59C137.984 137.867 140.61 134.673 141.633 133.166C139.466 123.583 142.356 124.668 143.801 123.945C144.957 123.366 151.749 123.704 155 123.945C154.458 120.148 153.374 112.012 153.374 109.843C153.374 107.673 154.458 103.997 155 102.43C153.555 100.549 152.712 92.9677 152.471 89.412C153.314 78.0817 154.675 55.2766 153.374 54.6981C152.074 54.1195 147.534 48.5508 145.426 45.8388C144.282 43.3678 141.669 38.0282 140.369 36.4371C139.068 34.8461 134.889 32.5197 132.963 31.5555L132.421 30.8323C121.402 16.1873 111.287 12.2097 108.758 10.4017C106.735 8.95527 85.0346 3.53122 74.4374 1H72.4505L70.8248 2.44641V5.33924C70.1022 12.1374 67.3927 13.1137 63.78 14.1985C60.348 15.8257 57.3977 15.8257 56.0128 15.1025C53.3033 15.8257 49.51 21.973 47.3424 24.5042C45.6083 26.5292 39.8762 28.8434 37.2269 29.7474C34.9148 30.4707 31.9885 31.5555 30.5435 31.9171C25.4857 33.7251 21.0903 34.2072 19.1636 34.0867C10.3486 32.2063 6.57941 35.2317 5.79667 36.9795L7.603 40.0531C8.18103 43.2352 7.12142 49.9369 6.51936 52.89C6.33873 52.9503 5.54394 53.1793 3.80986 53.6132C1.64225 54.1556 -0.344717 58.6757 2.18415 60.3029C4.71302 61.9301 5.97746 65.3653 6.51936 66.2693C6.95288 66.9925 7.42253 79.2269 7.60316 85.2537C8.20527 85.4948 9.84302 85.8323 11.5771 85.2537C13.7447 84.5305 16.6348 86.881 17.1767 87.6042C17.6103 88.1827 19.6454 92.0639 20.6088 93.9322C21.9093 94.0769 25.3655 98.4523 26.931 100.622L27.8341 103.153L27.2922 110.385V114.544L29.6405 116.713C32.0489 116.713 37.2271 116.786 38.6721 117.075C40.4785 117.436 46.62 112.012 47.1619 111.651C47.7038 111.289 50.052 110.385 50.9555 110.385C51.6782 110.385 51.979 111.229 52.039 111.651C52.2197 110.807 52.256 111.687 50.9555 121.956C49.3298 134.793 52.9424 134.793 53.1231 135.155C53.3037 135.516 56.1938 136.963 62.6966 138.409C67.8989 139.566 69.3199 135.155 69.3801 132.804C71.0058 132.804 74.6185 132.913 76.0635 133.347C77.5086 133.781 77.629 138.228 77.5086 140.398C79.0982 145.461 82.1449 146.485 83.4695 146.365C85.9261 146.075 88.3466 147.088 89.2498 147.63C88.9608 150.957 87.8045 151.909 87.2626 151.97C84.8059 153.416 84.3122 155.947 84.3724 157.032C85.384 158.912 85.8777 163.481 85.9981 165.53C87.0097 168.133 90.514 168.965 92.3203 169.326C92.5611 170.773 93.2957 173.702 94.3073 173.846C95.3188 173.991 97.0168 175.112 97.7393 175.655C99.5456 178.367 100.991 179.511 101.713 179.813C103.158 179.813 105.94 178.872 107.674 181.621C109.842 185.056 111.648 185.96 113.816 186.322C115.983 186.683 117.428 187.045 118.512 187.768C119.379 188.347 120.319 189.576 120.68 190.118L126.641 195L130.253 194.638L131.518 192.83Z" stroke="white" stroke-width="0.5"/>
</svg>
