<svg width="176" height="192" viewBox="0 0 176 192" fill="none" xmlns="http://www.w3.org/2000/svg">
<path d="M119.299 1.4451C124.048 4.32168 126.144 8.74922 128.332 13.6128C132.648 23.6677 132.648 23.6677 141.341 29.6945C143.393 30.2589 145.37 30.5203 147.481 30.7303C151.349 31.1168 154.956 31.7462 157.7 34.725C160.245 37.8837 161.776 41.4777 163.396 45.1732C166.301 52.1088 166.301 52.1088 171.353 57.4863C173.899 59.4425 173.899 59.4425 175 60.5479C174.836 63.3429 174.169 65.5552 172.878 68.0023C171.761 68.6408 171.761 68.6408 170.756 69.0672C170.781 69.665 170.805 70.2629 170.831 70.8788C171.088 79.7288 171.088 79.7288 168.634 82.9111C166.383 85.0378 163.741 86.2578 160.975 87.5701C160.533 87.7891 160.091 88.008 159.636 88.2336C157.276 89.3605 155.391 90.2375 152.72 89.8331C152.194 89.4816 151.669 89.1302 151.128 88.7681C148.447 88.7681 147.123 89.8083 145.211 91.5032C143.144 93.5968 141.603 96.1054 139.978 98.5479C136.791 103.177 133.079 105.517 127.952 107.637C127.469 107.84 126.986 108.043 126.488 108.252C118.589 111.513 110.541 113.984 102.234 115.953C100.321 116.347 100.321 116.347 99.1402 116.988C98.3016 117.04 97.4606 117.058 96.6204 117.055C96.1746 117.056 95.7287 117.058 95.2693 117.059C93.6975 116.982 92.2038 116.717 90.6524 116.456C85.8765 116.072 81.221 116.44 76.8598 118.586C76.1128 119.545 76.1128 119.545 75.7988 120.716C76.2488 121.704 76.2488 121.704 77.0421 122.623C78.8352 125.267 78.8181 127.541 78.7165 130.666C78.7082 131.18 78.7 131.694 78.6915 132.223C78.5737 136.437 78.2375 140.846 76.3293 144.676C75.3263 145.036 75.3263 145.036 74.0747 145.375C71.7588 146.12 70.3422 146.885 68.9024 148.936C68.3679 151.472 68.9274 152.942 70.2618 155.059C71.4034 156.673 72.6058 157.972 74.0747 159.285C77.3997 162.486 77.0461 167.841 77.1913 172.198C77.2114 172.717 77.2316 173.237 77.2523 173.772C77.4537 179.514 77.4422 185.256 77.3902 191C75.2026 190.541 73.0594 190.09 70.9456 189.353C68.6988 188.636 66.4823 188.63 64.1405 188.521C62.573 188.342 61.6753 188.212 60.4146 187.273C59.2208 185.131 59.1102 182.85 58.8895 180.451C58.272 174.968 56.227 171.742 53.0333 167.341C50.933 164.41 50.7987 162.321 50.8886 158.78C50.9005 157.984 50.9119 157.188 50.9228 156.391C50.9424 155.146 50.9652 153.901 50.9968 152.655C51.1931 145.989 51.1931 145.989 48.7439 139.884C48.4485 139.379 48.1531 138.874 47.8487 138.353C44.3884 135.162 39.4816 135.39 35.0559 135.344C31.8133 135.259 29.438 134.874 27.0353 132.477C26.5553 131.91 26.5553 131.91 26.0655 131.331C21.1702 126.253 14.0244 123.375 7.6684 120.549C4.83726 119.27 2.73529 118.004 1 115.391C1 113.86 1 113.86 1.53049 112.196C2.57995 111.215 3.57182 110.384 4.71341 109.534C6.74728 107.825 6.74728 107.825 7.73056 105.441C7.25667 103.149 6.19314 101.51 4.931 99.5608C4.18293 98.3524 4.18293 98.3524 3.65244 96.755C5.17021 95.9933 6.5699 96.0986 8.26105 96.0229C12.0621 95.7654 14.3774 95.3724 17.3125 92.8281C19.3978 90.5927 19.3978 90.5927 20.0209 87.7573C19.3969 86.2188 18.4094 85.5363 17.1467 84.4752C15.3219 82.6903 14.4363 81.6079 14.3617 79.0175C14.538 76.8489 15.0931 75.0234 15.8537 72.9941C18.661 65.2428 16.9171 55.6623 13.6613 48.3284C13.2114 47.2605 12.9378 46.2321 12.6707 45.1066C12.9804 44.9621 13.2901 44.8175 13.6092 44.6685C21.0616 41.2598 21.0616 41.2598 28.1398 37.151C29.9589 36.1005 31.6547 35.9816 33.7245 35.9883C34.1423 35.9869 34.5601 35.9855 34.9906 35.9841C36.2751 36.0426 37.514 36.1613 38.789 36.3148C41.3255 36.6089 43.8376 36.7225 46.3899 36.7537C47.0253 36.7769 47.0253 36.7769 47.6736 36.8005C51.1704 36.8377 53.8374 35.9608 56.5449 33.7031C57.4123 32.7995 57.4123 32.7995 57.3975 30.9965C57.5178 30.3815 57.6382 29.7665 57.7622 29.1329C60.6317 27.2355 63.7416 27.0171 67.0685 26.6152C69.0393 26.3361 70.2104 26.1591 71.8098 24.9127C73.68 22.3503 73.8911 19.4217 74.2073 16.3539C75.7633 15.8333 76.797 15.75 78.4181 15.7549C79.0981 15.7528 79.0981 15.7528 79.7919 15.7507C81.1037 15.8215 81.1037 15.8215 82.119 16.0773C87.1211 17.3277 91.3155 16.3331 95.7646 13.9994C97.6903 13.0925 99.6005 12.5739 101.66 12.0942C107.691 10.553 110.581 7.81086 114.075 2.78248C115.705 0.557379 116.73 0.808518 119.299 1.4451Z" stroke="white" stroke-width="0.5"/>
</svg>
