<svg width="164" height="158" viewBox="0 0 164 158" fill="none" xmlns="http://www.w3.org/2000/svg">
<path d="M66.9991 2.90096C69.5598 4.77858 69.5598 4.77858 70.2472 6.15658C70.4747 8.04529 70.4094 9.02897 69.2547 10.5652C68.6049 11.3601 67.9314 12.1031 67.2246 12.8487C66.3882 14.1384 66.3606 15.1811 66.6382 16.6469C67.599 19.6548 68.9896 22.8464 71.4202 24.9442C72.6289 25.4123 73.8222 25.6537 75.0955 25.8838C78.3632 26.4771 78.3632 26.4771 79.6533 27.1824C81.0897 27.8326 82.5141 27.6284 83.9616 27.1146C85.2945 26.6971 86.2181 26.8448 87.5707 27.1372C88.2008 27.7687 88.1272 28.697 88.2474 29.5563C88.755 32.6527 89.8655 34.5376 92.2625 36.5423C93.2254 37.111 93.6478 37.2646 94.7888 37.2884C95.1461 37.1615 95.5034 37.0347 95.8715 36.904C96.0707 36.4845 96.2698 36.065 96.475 35.6328C96.8485 34.9422 96.8485 34.9422 97.3152 34.3719C98.4299 34.1163 99.1774 34.0411 100.291 34.0709C100.728 34.0668 100.728 34.0668 101.174 34.0626C102.106 34.056 103.037 34.0662 103.969 34.078C105.187 34.0809 106.405 34.0769 107.622 34.0709C107.918 34.0705 108.214 34.07 108.519 34.0696C110.625 34.0528 112.63 33.8234 114.706 33.4517C116.207 33.2078 117.678 33.1803 119.195 33.1963C119.614 33.1921 119.614 33.1921 120.042 33.1878C121.437 33.1926 122.115 33.2178 123.3 34.0102C123.457 34.3608 123.613 34.7115 123.774 35.0728C124.535 36.4561 125.114 36.6561 126.549 37.2658C127.354 37.481 128.167 37.6687 128.985 37.831C129.424 37.921 129.864 38.011 130.317 38.1037C131.108 38.256 131.9 38.4032 132.694 38.5417C133.011 38.5982 133.327 38.6546 133.654 38.7127C133.931 38.7575 134.207 38.8022 134.493 38.8484C135.352 39.1192 135.739 39.4544 136.293 40.1597C136.293 40.3984 136.293 40.6371 136.293 40.8831C138.63 41.0743 140.18 40.8696 142.067 39.4362C142.43 39.1064 142.791 38.7748 143.15 38.4414C144.52 37.4116 145.074 37.4023 146.759 37.6275C149.876 38.1227 149.876 38.1227 150.839 39.2765C152.115 42.2046 151.585 45.5317 150.729 48.4796C150.461 51.032 150.461 51.032 151.271 53.3856C153.594 54.7244 156.237 54.7638 158.85 54.8551C159.346 54.8761 159.346 54.8761 159.853 54.8975C160.662 54.9313 161.47 54.9623 162.278 54.9908C162.516 55.5876 162.755 56.1845 163 56.7995C162.102 57.319 161.561 57.5227 160.507 57.5681C159.283 57.7841 159.283 57.7841 158.649 59.0052C158.424 59.4804 158.205 59.9587 157.992 60.4394C156.993 62.5105 155.997 63.9857 154.276 65.5404C152.04 67.7915 151.399 70.3884 151.361 73.4619C151.383 79.3164 154.198 84.6013 156.639 89.8078C158.058 92.8845 158.812 95.7129 158.308 99.1224C158.016 99.777 157.715 100.427 157.407 101.074C156.368 103.532 156.256 105.679 156.287 108.321C156.284 108.768 156.281 109.214 156.278 109.674C156.27 111.085 156.273 112.497 156.278 113.908C156.28 115.328 156.278 116.747 156.271 118.166C156.266 119.045 156.267 119.925 156.274 120.804C156.267 122.912 156.224 124.423 155.06 126.253C154.867 126.971 154.694 127.695 154.541 128.423C154.015 130.621 153.376 132.061 151.612 133.532C150.013 134.404 148.793 134.394 147.007 134.392C143.408 134.434 143.408 134.434 140.263 136.019C139.269 137.357 139.05 138.348 139 139.998C138.95 141.631 138.804 142.702 137.737 143.978C136.668 144.353 136.668 144.353 135.436 144.565C133.601 144.891 131.954 145.186 130.786 146.76C130.683 146.983 130.58 147.207 130.473 147.437C130.298 147.816 130.298 147.816 130.118 148.202C129.67 149.372 129.376 150.569 129.112 151.793C128.543 153.032 127.695 153.778 126.549 154.468C125.252 154.844 125.252 154.844 123.842 155.056C123.333 155.138 122.824 155.221 122.315 155.304C122.059 155.344 121.804 155.385 121.54 155.426C120.336 155.626 119.148 155.883 117.954 156.141C117.55 156.228 117.146 156.314 116.729 156.404C115.7 156.627 115.7 156.627 114.639 157C114.549 156.776 114.46 156.552 114.368 156.322C113.826 155.398 113.414 155.295 112.473 154.83C109.288 152.235 106.968 148.676 105.187 145.018C105.006 144.645 105.006 144.645 104.82 144.266C104.314 143.222 103.815 142.176 103.328 141.123C101.72 138.007 98.8454 136.342 95.9533 134.534C95.4332 134.203 94.9288 133.847 94.4279 133.487C94.4279 133.248 94.4279 133.01 94.4279 132.764C94.1823 132.704 93.9366 132.644 93.6835 132.583C92.4141 131.933 91.8006 131.178 90.8978 130.09C89.8851 128.897 88.82 127.757 87.7512 126.614C86.498 125.272 85.2576 123.928 84.0744 122.522C78.736 116.354 71.5304 112.425 63.7509 110.336C63.0446 110.142 62.3383 109.948 61.632 109.754C59.6315 109.208 57.628 108.673 55.6239 108.14C54.3495 107.799 53.0768 107.453 51.8044 107.105C51.3872 106.991 50.9701 106.877 50.5403 106.76C49.747 106.543 48.9538 106.326 48.161 106.107C46.1908 105.571 44.2274 105.102 42.2224 104.717C40.8903 104.452 39.5773 104.117 38.262 103.78C38.0028 103.714 37.7437 103.648 37.4767 103.581C36.851 103.422 36.2256 103.262 35.6003 103.102C35.7889 102.102 36.0004 101.175 36.3221 100.208C36.4833 98.7531 36.5678 97.9875 35.6454 96.8164C35.0125 96.2541 34.3531 95.7399 33.683 95.2225C31.1302 93.1319 29.9289 90.9266 28.7008 87.9486C28.1294 86.5795 27.5125 85.2322 26.8934 83.8843C26.7241 83.499 26.7241 83.499 26.5514 83.1058C25.8197 81.5034 25.0184 80.422 23.6904 79.227C23.5201 79.0435 23.3497 78.86 23.1742 78.671C21.1407 76.7716 17.8002 76.7336 15.1809 76.4631C12.1448 76.0804 9.88438 74.8072 7.96562 72.4007C6.64532 70.4301 5.70849 68.2389 4.74284 66.0788C3.76617 63.8992 2.78507 61.945 1.31565 60.0551C0.816682 59.0587 0.981202 58.5725 1.31424 57.5229C1.58895 56.9262 1.88313 56.3381 2.19395 55.7595C5.07618 50.0816 4.24723 43.1596 4.22404 36.9493C4.22223 36.101 4.22058 35.2527 4.21911 34.4044C4.21516 32.3437 4.20915 30.2831 4.20148 28.2224C4.55282 28.2043 4.90415 28.1861 5.26614 28.1675C6.57454 28.0991 7.88269 28.0267 9.19081 27.953C9.75608 27.9218 10.3214 27.8916 10.8868 27.8626C11.7013 27.8206 12.5156 27.7746 13.3299 27.7278C13.5811 27.7158 13.8323 27.7037 14.0911 27.6912C15.4975 27.606 16.6535 27.4151 17.9159 26.7755C18.4534 26.174 18.4534 26.174 18.8633 25.419C20.2523 23.1936 21.8842 21.1874 23.5149 19.1384C24.0653 18.4377 24.6036 17.7289 25.1397 17.0171C25.3164 16.7847 25.4931 16.5524 25.6751 16.313C26.0143 15.8663 26.3509 15.4176 26.6843 14.9665C27.8219 13.4805 27.8219 13.4805 28.7854 13.0493C29.4649 13.0295 29.4649 13.0295 30.6153 13.3687C33.3671 14.1373 35.9141 13.9365 38.4875 12.6678C40.82 11.1801 43.0133 9.53336 44.747 7.35624C44.9219 7.13941 45.0968 6.92258 45.2771 6.69918C45.4283 6.50147 45.5795 6.30376 45.7352 6.10005C50.9236 1.10102 60.7692 -0.721208 66.9991 2.90096Z" stroke="white" stroke-width="0.5"/>
</svg>
