<svg width="273" height="140" viewBox="0 0 273 140" fill="none" xmlns="http://www.w3.org/2000/svg">
<path d="M115.933 1C126.985 3.17256 134.393 13.4782 141.339 21.5789C154.016 36.5215 154.016 36.5215 172.114 42.6118C183.898 42.3923 194.178 36.2526 202.776 28.6813C209.044 23.4033 213.467 22.0221 221.566 22.1842C229.159 23.2144 243.474 25.721 249.013 31.2632C251.856 31.548 254.706 31.7642 257.558 31.9441C259.899 32.0962 259.899 32.0962 262.288 32.2514C264.101 32.3615 264.101 32.3615 265.951 32.4737C265.951 33.2726 265.951 34.0716 265.951 34.8947C267.947 35.2942 269.943 35.6937 272 36.1053C272 37.3037 272 38.5021 272 39.7368C267.043 44.6828 260.68 47.978 254.552 51.2368C249.819 53.9922 245.396 57.1778 240.957 60.3811C235.955 63.9474 235.955 63.9474 233.286 63.9474C233.286 64.7463 233.286 65.5453 233.286 66.3684C231.254 68.1937 231.254 68.1937 228.598 70.1513C227.727 70.8036 226.857 71.4558 225.961 72.1279C223.607 73.6316 223.607 73.6316 221.188 73.6316C220.788 74.83 220.389 76.0284 219.978 77.2632C215.379 80.7683 210.629 83.0637 204.931 83.9967C193.78 82.235 183.588 76.208 173.521 71.3149C172.561 70.8513 171.601 70.3878 170.611 69.9102C169.751 69.4909 168.89 69.0716 168.003 68.6396C162.961 66.4723 158.607 66.2333 153.135 66.2928C151.831 66.3037 150.528 66.3146 149.184 66.3259C148.192 66.3399 147.2 66.354 146.179 66.3684C146.486 72.215 146.811 75.7874 150.564 80.3651C153.156 83.6649 153.462 84.0897 153.211 88.5362C152.886 90.0092 152.562 91.4823 152.228 93C151.271 98.9355 151.048 103.275 154.387 108.458C155.272 109.574 156.156 110.689 157.067 111.839C161.09 116.915 163.251 120.165 162.648 126.715C161.315 131.387 158.78 135.166 155.857 139C148.528 135.741 142.78 131.68 136.623 126.54C134.219 124.434 134.219 124.434 131.661 123.263C131.661 122.464 131.661 121.665 131.661 120.842C129.771 120.258 127.881 119.679 125.99 119.102C124.937 118.779 123.884 118.456 122.8 118.123C119.579 117.143 119.579 117.143 116.25 116.709C114.895 116.358 114.895 116.358 113.513 116C112.283 113.589 111.074 111.168 109.884 108.737C104.18 105.262 97.5773 106.005 91.1317 106.089C89.9979 106.09 88.8641 106.09 87.696 106.091C82.3808 106.125 77.5935 106.48 72.3795 107.526C70.5966 107.618 68.8103 107.657 67.0251 107.645C65.5805 107.639 65.5805 107.639 64.1068 107.633C63.1189 107.623 62.1309 107.612 61.113 107.602C60.1016 107.597 59.0903 107.591 58.0483 107.585C55.5664 107.571 53.0845 107.55 50.6027 107.526C50.6027 103.895 50.6027 103.895 52.4174 100.717C55.6309 93.4824 54.5874 86.1078 53.0223 78.4737C52.2238 78.4737 51.4254 78.4737 50.6027 78.4737C50.0958 77.5546 49.589 76.6355 49.0668 75.6885C46.5181 71.7108 44.3237 70.5845 40.0924 68.5625C38.89 67.9711 37.6876 67.3797 36.4487 66.7704C27.8515 63.2989 20.4457 62.3914 11.2835 62.5855C10.2885 62.5965 9.29352 62.6074 8.26838 62.6186C5.84543 62.6468 3.42267 62.6902 1 62.7368C2.22395 55.7322 2.22395 55.7322 5.83929 53.0526C9.21435 52.0077 12.2645 51.6869 15.7872 51.6813C17.213 51.679 17.213 51.679 18.6676 51.6766C19.6494 51.6813 20.6311 51.686 21.6426 51.6908C22.629 51.6861 23.6154 51.6814 24.6317 51.6766C25.5807 51.6782 26.5296 51.6797 27.5074 51.6813C28.3699 51.6827 29.2324 51.6841 30.1211 51.6855C32.4554 51.8421 32.4554 51.8421 36.0848 53.0526C40.0366 53.3588 43.9938 53.3326 47.9562 53.3553C49.0331 53.3802 50.1099 53.4052 51.2194 53.4309C57.534 53.4684 62.2564 53.2561 67.5402 49.4211C69.7636 46.7114 71.5317 43.8249 73.2868 40.7961C78.1752 32.6005 78.1752 32.6005 80.8482 31.2632C85.1302 31.0617 89.4045 30.904 93.6908 30.8494C101.102 30.5724 104.318 28.4684 109.492 23.111C111.84 19.0907 112.716 14.8959 113.74 10.3816C113.955 9.47964 114.169 8.57771 114.39 7.64844C114.915 5.43474 115.425 3.21767 115.933 1Z" stroke="white" stroke-width="0.5"/>
</svg>
