<svg width="211" height="82" viewBox="0 0 211 82" fill="none" xmlns="http://www.w3.org/2000/svg">
<path d="M14.7925 1C17.639 1.41682 19.849 2.39956 22.3784 3.74678C22.3784 4.2 22.3784 4.65322 22.3784 5.12017C22.8718 5.30695 23.3652 5.49372 23.8735 5.68616C28.1927 7.47174 32.2825 9.83767 36.171 12.4163C43.6157 17.0794 52.9042 18.5687 61.5578 19.1974C68.3445 19.7372 74.4446 22.1702 80.6817 24.7423C87.8139 27.6242 94.5271 27.4935 101.944 25.9785C102.543 25.8582 103.142 25.7378 103.759 25.6137C108.357 24.6424 112.75 23.3045 117.18 21.7512C121.084 20.3888 125.005 19.3463 129.027 18.3957C132.228 17.6308 135.177 16.617 138.236 15.4206C139.573 15.0933 140.91 14.7664 142.25 14.4523C143.987 13.9842 145.644 13.3851 147.33 12.7597C161.327 7.61887 174.532 5.36047 189.441 5.63519C190.773 5.64902 192.106 5.66155 193.438 5.67275C196.646 5.70247 199.853 5.74957 203.061 5.80687C203.061 5.35365 203.061 4.90043 203.061 4.43348C204.426 3.75365 205.792 3.07382 207.198 2.37339C208.682 4.58998 208.716 5.3152 208.578 7.86695C207.667 8.09356 206.757 8.32017 205.819 8.55365C205.819 9.00687 205.819 9.46009 205.819 9.92704C205.437 10.0935 205.055 10.2599 204.661 10.4313C204.161 10.6615 203.662 10.8916 203.147 11.1288C202.403 11.4634 202.403 11.4634 201.644 11.8047C200.031 12.8493 199.563 13.6292 198.923 15.4206C198.974 18.2109 199.198 19.7248 200.992 21.9013C202.196 22.9252 203.409 23.9387 204.645 24.9244C209.608 29.0247 209.608 29.0247 210 31.9013C209.986 32.5811 209.972 33.2609 209.957 33.9614C209.317 34.1172 208.677 34.273 208.017 34.4335C205.364 35.5213 204.972 36.2365 203.75 38.7682C203.352 40.9982 203.145 43.2063 202.937 45.4608C201.687 50.3978 197.85 52.7724 193.751 55.3348C192.852 55.9073 191.954 56.4813 191.057 57.0569C190.627 57.3292 190.197 57.6015 189.754 57.882C188.442 58.735 188.442 58.735 186.908 60.206C184.409 61.9256 182.067 62.047 179.096 62.3734C174.529 62.9831 171.224 63.8108 167.566 66.7806C166.51 67.6094 166.51 67.6094 165.131 67.6094C164.904 68.2893 164.676 68.9691 164.442 69.6695C157.384 74.0792 147.826 75.7851 139.658 73.9614C136.699 73.1254 133.818 72.0477 130.938 70.9759C126.385 69.2839 121.756 68.7705 117.043 70.2677C114.064 71.6703 111.682 73.3214 109.271 75.5494C105.739 78.8034 101.858 80.3488 97.1167 81C89.0943 79.8165 82.9997 73.0365 78.2382 66.9227C78.2382 66.4695 78.2382 66.0163 78.2382 65.5494C77.2141 65.2094 77.2141 65.2094 76.1693 64.8627C75.8137 64.367 75.4581 63.8712 75.0918 63.3605C70.2243 57.768 61.3621 54.2217 54.1013 53.1888C51.2058 53.0085 48.3065 52.92 45.4068 52.8334C38.6941 52.5681 33.3143 50.6024 28.5851 45.6352C27.873 43.4939 27.6462 41.5945 27.4752 39.3503C27.0658 36.3786 25.6469 34.8652 23.7577 32.588C23.7577 32.1348 23.7577 31.6815 23.7577 31.2146C23.3879 31.0446 23.0181 30.8747 22.637 30.6996C20.9992 29.8412 20.9992 29.8412 19.1889 28.5107C16.2222 26.7054 13.2961 25.9479 9.96515 25.0343C8.32584 24.5383 6.68799 24.0375 5.05156 23.5322C4.28171 23.2958 3.51186 23.0595 2.71868 22.816C1.86793 22.5544 1.86793 22.5544 1 22.2876C1.93954 20.3358 2.76016 18.8814 4.44813 17.4807C4.90329 17.4807 5.35844 17.4807 5.82739 17.4807C5.99807 17.0983 6.16875 16.7159 6.34461 16.3219C7.3555 14.4597 8.62352 12.938 9.96515 11.3004C10.1927 10.8472 10.4203 10.394 10.6548 9.92704C11.1099 9.92704 11.5651 9.92704 12.034 9.92704C12.1051 9.47382 12.1763 9.0206 12.2495 8.55365C12.8562 5.91783 13.8062 3.51951 14.7925 1Z" stroke="white" stroke-width="0.5"/>
</svg>
