<svg width="197" height="146" viewBox="0 0 197 146" fill="none" xmlns="http://www.w3.org/2000/svg">
<path d="M77.4621 1.08766C77.6932 1.3261 77.9244 1.56454 78.1626 1.81021C80.5565 4.12819 83.7302 3.98728 86.8698 3.97436C88.1037 3.9512 89.0929 3.87065 90.271 3.47955C93.8051 3.07423 96.2095 3.64677 99.3383 5.26724C101.19 6.10209 103.043 6.40036 105.044 6.69522C106.582 7.15742 107.256 7.85171 108.284 9.06064C108.416 9.34842 108.548 9.63619 108.684 9.93269C109.269 10.9897 109.95 11.0855 111.086 11.4525C112.149 11.5691 112.149 11.5691 113.276 11.5494C113.708 11.5506 114.14 11.5518 114.586 11.553C115.286 11.5488 115.286 11.5488 116 11.5444C116.489 11.5444 116.978 11.5444 117.481 11.5444C118.803 11.5432 120.124 11.5384 121.446 11.5313C122.271 11.5273 123.097 11.5246 123.922 11.5224C132.724 11.4985 141.517 11.3797 150.313 11.0539C151.087 11.0258 151.86 10.9977 152.634 10.9696C161.761 10.6352 170.884 10.2389 180.004 9.7553C185.188 9.48326 190.353 9.359 195.545 9.45929C195.87 11.4447 196.004 13.3682 195.998 15.3814C195.999 15.8213 195.999 15.8213 196 16.27C196.001 17.2139 195.998 18.1577 195.995 19.1016C195.994 19.423 195.993 19.7445 195.992 20.0756C195.938 36.6185 195.938 36.6185 192.342 41.3512C191.682 41.2197 191.021 41.0881 190.341 40.9526C190.341 40.6895 190.341 40.4264 190.341 40.1553C187.895 39.6687 187.895 39.6687 185.538 40.1553C185.267 40.6847 185 41.2167 184.737 41.7499C180.903 47.426 176.767 48.465 170.327 49.7229C170.327 49.986 170.327 50.2491 170.327 50.5202C167.738 51.9268 164.814 52.239 161.924 51.5168C160.855 51.2515 159.845 51.2344 158.744 51.2178C158.336 51.2075 157.928 51.1972 157.507 51.1866C156.112 51.34 155.395 51.6205 154.316 52.5134C153.947 53.5253 153.947 53.5253 153.865 54.6561C153.672 56.364 153.506 57.6027 152.314 58.8918C150.956 59.3265 149.573 59.5029 148.161 59.6891C145.205 60.0431 145.205 60.0431 142.653 61.4565C141.816 62.4374 141.816 62.4374 141.732 63.7005C141.507 64.8715 141.507 64.8715 140.381 65.7934C137.113 67.5166 133.188 67.0598 129.62 66.5642C124.879 66.06 121.632 66.3085 117.49 68.858C116.551 69.4123 115.607 69.9577 114.663 70.5024C114.429 70.6395 114.196 70.7765 113.955 70.9177C112.131 71.967 110.301 72.6883 108.288 73.2883C108.023 73.405 107.757 73.5216 107.483 73.6418C107.351 74.0365 107.219 74.4311 107.083 74.8377C107.57 75.4959 108.058 76.1532 108.553 76.8049C109.499 78.2715 109.832 79.8795 110.21 81.565C110.294 81.9313 110.378 82.2976 110.464 82.6751C111.465 87.3678 111.74 91.5973 109.855 96.0954C109.129 98.1843 108.981 100.19 109.484 102.345C110.51 103.886 111.696 105.113 113.087 106.331C112.418 108.108 111.824 109.136 110.285 110.318C108.094 111.023 105.771 111.208 103.483 111.376C102.664 111.469 102.664 111.469 101.973 111.914C98.6986 113.366 92.5756 112.607 89.2221 111.596C87.4323 110.838 85.8838 109.795 84.2668 108.723C82.3696 107.778 80.9327 107.37 78.813 107.402C78.3786 107.404 77.9441 107.405 77.4965 107.407C76.2486 107.528 75.362 107.732 74.2598 108.324C74.1278 108.719 73.9957 109.114 73.8596 109.52C73.4881 109.853 73.4881 109.853 73.109 110.193C71.2016 112.26 70.6204 115.268 70.587 118.007C70.5774 118.416 70.5679 118.824 70.558 119.245C70.541 120.094 70.5284 120.943 70.5205 121.793C70.4125 125.802 69.2656 128.542 67.0548 131.845C65.5625 134.769 65.1992 137.414 65.1535 140.665C65.1416 141.084 65.1298 141.503 65.1175 141.935C65.0896 142.957 65.0683 143.978 65.0534 145C54.8295 138.738 54.8295 138.738 52.6448 133.439C52.4317 132.217 52.4028 131.016 52.3946 129.777C52.4603 127.083 52.4603 127.083 51.4439 124.669C51.1797 124.537 50.9155 124.406 50.6434 124.27C50.5077 121.407 50.3904 118.544 50.2912 115.68C50.2604 114.798 50.2275 113.917 50.1919 113.035C49.8542 104.132 49.8542 104.132 53.1201 100.6C53.3595 100.387 53.5989 100.173 53.8456 99.9526C54.8774 98.4754 54.7022 96.9846 54.5711 95.2685C54.5506 94.9826 54.5301 94.6967 54.509 94.4021C54.3307 92.2944 53.991 90.6747 53.045 88.7905C52.8386 88.3547 52.6322 87.9189 52.4196 87.4699C51.1787 86.1073 50.1535 85.9681 48.4027 85.5405C46.8868 85.0078 46.368 84.0887 45.4397 82.8107C44.0174 81.785 42.3387 81.8093 40.6364 81.6148C40.2361 81.2161 40.2361 81.2161 40.2097 80.3608C40.2194 79.9915 40.2292 79.6221 40.2392 79.2416C40.2493 78.6365 40.2493 78.6365 40.2595 78.0192C40.2771 77.1668 40.2979 76.3144 40.3221 75.4622C40.3278 75.0567 40.3334 74.6513 40.3393 74.2335C40.3481 73.8624 40.357 73.4912 40.3661 73.1088C40.1609 71.4333 39.4515 70.3877 38.1456 69.3408C34.7816 67.88 29.6609 68.7667 26.1997 69.5806C24.6071 70.2226 23.9581 71.0572 23.0866 72.4941C22.4391 73.5421 21.767 74.0007 20.6224 74.4391C19.1452 74.4391 18.6874 74.1018 17.5953 73.0937C17.2733 72.7483 16.9513 72.403 16.6196 72.0472C15.5747 71.021 15.1167 70.8565 13.6191 70.7765C12.5683 70.8263 11.5176 70.8761 10.4669 70.926C8.9268 70.8468 8.20664 70.6083 7.01289 69.6553C7.01289 69.3922 7.01289 69.1291 7.01289 68.858C6.74045 68.7593 6.46801 68.6607 6.18731 68.559C4.78387 67.9642 3.52397 67.2362 2.20954 66.4661C2.20954 66.203 2.20954 65.9399 2.20954 65.6688C1.94535 65.6688 1.68117 65.6688 1.40898 65.6688C1.33124 64.4896 1.25661 63.3103 1.18382 62.1308C1.16137 61.7952 1.13893 61.4597 1.1158 61.1139C1.09645 60.7928 1.0771 60.4716 1.05717 60.1407C1.02887 59.696 1.02887 59.696 1 59.2424C1.0087 58.4931 1.0087 58.4931 1.40898 57.6958C1.67316 57.6958 1.93735 57.6958 2.20954 57.6958C2.20954 57.4327 2.20954 57.1696 2.20954 56.8985C2.61974 56.8836 3.02995 56.8687 3.45259 56.8534C3.99726 56.8272 4.54191 56.8007 5.08655 56.774C5.35615 56.765 5.62575 56.756 5.90352 56.7467C7.65728 56.653 8.7917 56.3307 10.2151 55.3039C10.0362 53.5185 10.0362 53.5185 9.01429 52.1147C9.01429 49.7063 11.0652 47.8596 12.5011 46.0867C13.112 45.3775 13.112 45.3775 12.917 44.5404C12.7223 44.0234 12.5225 43.5083 12.3166 42.9957C12.1611 41.6796 12.7599 40.8721 13.4174 39.7566C14.2179 38.9593 14.2179 38.9593 15.3953 38.9375C15.8736 38.9612 16.3519 38.9848 16.8448 39.0092C19.9525 39.0567 21.8673 38.3275 24.4594 36.7247C26.6558 35.8312 28.8742 35.981 31.2204 35.9586C31.5837 35.9498 31.9469 35.9411 32.3212 35.9321C32.8139 35.9278 32.8139 35.9278 33.3166 35.9235C34.4591 35.7321 34.9945 35.3619 35.833 34.5742C36.2412 33.6474 36.6418 32.7173 37.0339 31.7836C38.768 30.6323 40.494 30.962 42.5033 31.0525C44.3379 31.0988 45.5826 31.0455 47.0408 29.7904C47.2032 28.2811 47.1221 27.2427 46.6406 25.8039C46.579 24.9409 46.5308 24.0769 46.4905 23.2127C46.3789 21.2909 46.1176 19.6737 45.4898 17.8558C44.9425 16.0531 44.9425 16.0531 45.3647 15.1151C45.7221 14.6744 46.0935 14.2447 46.4764 13.8257C47.4404 12.496 47.6386 10.9504 47.9712 9.36741C48.2183 8.35895 48.5348 7.56973 49.0422 6.66875C49.4385 6.66875 49.8348 6.66875 50.2431 6.66875C50.2431 6.40564 50.2431 6.14253 50.2431 5.87145C52.9192 3.50234 56.2442 3.4422 59.67 3.39546C60.2446 3.38427 60.8192 3.37284 61.3938 3.3612C62.2843 3.34482 63.1746 3.33009 64.0651 3.31955C67.7897 3.27183 71.3119 3.18049 74.7028 1.45614C75.7145 0.964253 76.3493 0.921424 77.4621 1.08766Z" stroke="white" stroke-width="0.5"/>
</svg>
