<svg width="137" height="224" viewBox="0 0 137 224" fill="none" xmlns="http://www.w3.org/2000/svg">

<path d="M66.9451 1.95801C67.184 1.95801 67.423 1.95801 67.6691 1.95801C69.1171 3.90979 69.1171 3.90979 69.1171 4.84325C69.4755 4.84325 69.8338 4.84325 70.2031 4.84325C70.2031 3.89112 70.2031 2.93899 70.2031 1.95801C73.0507 2.08547 75.8978 2.22053 78.7448 2.36084C79.713 2.40821 80.6814 2.45318 81.6499 2.49609C83.0429 2.5587 84.4355 2.62756 85.8282 2.69763C86.4765 2.72476 86.4765 2.72476 87.1379 2.75243C89.234 2.86393 90.8701 2.96163 92.6467 4.12194C92.6607 4.72446 92.6607 4.72446 92.675 5.33916C92.7886 8.72586 93.1972 11.8092 94.0989 15.074C95.0973 18.7302 95.7645 22.0165 94.246 25.6049C93.5231 26.8409 92.5914 27.6209 91.4547 28.4761C90.7353 29.0028 90.7353 29.0028 90.4747 30.0892C89.8823 30.6456 89.8823 30.6456 89.1399 31.2387C87.808 32.3537 86.8259 33.5266 85.8508 34.9566C85.7043 35.1356 85.5578 35.3146 85.4068 35.499C85.1679 35.499 84.929 35.499 84.6828 35.499C84.5393 35.8198 84.5393 35.8198 84.393 36.147C83.943 36.9706 83.4868 37.4733 82.805 38.1137C81.6501 39.231 80.5822 40.3947 79.5329 41.6104C79.0878 42.1242 78.6367 42.633 78.1811 43.1376C77.9524 43.3914 77.7238 43.6452 77.4882 43.9068C77.2801 44.136 77.072 44.3652 76.8575 44.6013C76.2819 45.2585 76.2819 45.2585 75.995 46.3187C75.6478 46.3968 75.6478 46.3968 75.2936 46.4764C74.4986 46.5998 74.4986 46.5998 74.185 47.2879C74.0656 47.5631 73.9461 47.8384 73.823 48.1219C73.099 49.2941 73.099 49.2941 72.375 50.2859C72.1361 50.2859 71.8972 50.2859 71.6511 50.2859C71.5279 50.5711 71.5279 50.5711 71.4022 50.8621C70.6425 52.2474 69.6133 53.4364 68.6222 54.6623C67.7197 55.8022 67.0397 56.8376 66.5831 58.2203C66.7619 58.4118 66.9406 58.6034 67.1247 58.8007C67.3566 59.0555 67.5885 59.3103 67.8275 59.5728C68.0585 59.8238 68.2895 60.0749 68.5274 60.3335C69.1138 61.1012 69.328 61.6069 69.4791 62.5482C69.718 62.5482 69.9569 62.5482 70.2031 62.5482C70.2031 62.7862 70.2031 63.0242 70.2031 63.2695C70.442 63.2695 70.6809 63.2695 70.9271 63.2695C71.4248 63.8147 71.4248 63.8147 72.013 64.5994C72.237 64.8941 72.461 65.1889 72.6918 65.4926C72.9456 65.8301 73.1995 66.1676 73.461 66.5154C74.062 67.3061 74.6661 68.0944 75.271 68.8822C75.4245 69.0833 75.5779 69.2845 75.736 69.4918C76.8109 70.8893 77.9473 72.1937 79.1879 73.4467C79.7583 74.3048 79.732 74.8843 79.6149 75.8924C79.4357 76.0486 79.2565 76.2048 79.0719 76.3658C78.3314 77.1958 78.2942 77.9557 78.3225 79.0425C78.6728 80.429 79.5769 81.3693 80.5086 82.4265C81.0629 83.1055 81.0629 83.1055 81.0629 83.8269C81.4213 83.8269 81.7796 83.8269 82.1489 83.8269C82.1843 84.0537 82.2198 84.2806 82.2563 84.5144C82.6233 86.6074 83.0676 88.5621 84.3208 90.3187C85.2621 90.9906 85.2621 90.9906 86.1308 91.4006C86.1308 91.6387 86.1308 91.8767 86.1308 92.1219C86.359 92.2112 86.5872 92.3005 86.8223 92.3924C87.7578 92.9499 87.8309 93.2535 88.0992 94.2859C89.1427 97.7201 90.319 99.907 93.3707 101.86C93.6642 102.075 93.9577 102.291 94.2601 102.513C95.6755 103.553 96.9706 104.446 98.6422 105.015C99.0529 105.164 99.4635 105.313 99.8866 105.466C100.006 105.823 100.125 106.18 100.249 106.548C100.498 106.544 100.748 106.54 101.005 106.535C107.122 106.477 107.122 106.477 108.778 107.788C109.66 108.712 109.66 108.712 109.66 109.433C110.019 109.433 110.377 109.433 110.746 109.433C111.105 110.267 111.463 111.1 111.832 111.958C114.211 112.111 115.77 111.809 117.927 110.796C118.71 110.515 118.71 110.515 119.796 110.876C119.806 111.733 119.813 112.589 119.819 113.446C119.822 113.686 119.825 113.925 119.828 114.173C119.833 115.245 119.801 116.261 119.618 117.319C119.36 118.907 119.365 120.472 119.366 122.079C119.366 122.417 119.366 122.755 119.366 123.103C119.38 124.931 119.475 126.676 119.796 128.481C120.542 132.692 120.407 136.191 118.998 140.209C117.976 143.18 118.023 145.806 119.072 148.745C122.12 148.392 122.12 148.392 124.932 147.257C126.46 146.392 127.851 146.438 129.57 146.581C129.57 146.819 129.57 147.057 129.57 147.302C129.94 147.414 129.94 147.414 130.317 147.528C132.569 148.578 134.06 150.037 135 152.351C134.657 152.5 134.313 152.649 133.959 152.802C132.762 153.47 132.565 153.655 132.104 154.876C132.005 155.676 132.005 155.676 132.033 156.516C132.036 156.82 132.038 157.125 132.04 157.439C132.046 157.753 132.053 158.068 132.059 158.392C132.064 158.873 132.064 158.873 132.069 159.363C132.077 160.152 132.089 160.94 132.104 161.729C131.507 161.848 130.909 161.967 130.294 162.089C130.294 162.327 130.294 162.565 130.294 162.81C130.055 162.81 129.816 162.81 129.57 162.81C129.578 163.098 129.587 163.385 129.596 163.681C129.66 167.477 129.66 167.477 128.846 169.302C126.533 169.438 126.533 169.438 125.43 168.761C123.478 167.623 121.001 168.278 118.891 168.716C116.369 169.224 113.856 169.562 111.298 169.833C109.603 170.086 108.203 170.569 106.674 171.331C105.678 171.827 105.678 171.827 104.954 171.827C104.809 172.128 104.809 172.128 104.66 172.435C104.029 173.661 103.298 174.822 102.579 175.997C102.128 176.758 101.719 177.523 101.335 178.319C99.2531 178.003 99.2531 178.003 98.4386 177.597C98.4386 177.359 98.4386 177.121 98.4386 176.876C97.2705 177.458 97.1129 178.595 96.6286 179.761C95.9046 180.843 95.9046 180.843 94.8399 181.148C94.4073 181.226 93.9747 181.304 93.5291 181.384C93.0746 181.476 92.6201 181.567 92.1518 181.662C91.7178 181.749 91.2839 181.836 90.8367 181.925C89.6545 182.165 88.6261 182.402 87.5788 183.007C86.2772 185.631 86.2322 188.278 86.0686 191.158C85.9252 193.245 85.6897 194.863 84.6828 196.712C83.9136 197.343 83.9136 197.343 83.2349 197.794C82.8568 198.924 82.8597 199.611 82.9139 200.789C83.1538 208.133 83.1538 208.133 81.2085 211.471C80.2249 213.622 80.3449 216.02 80.3389 218.351C79.0075 218.794 78.6069 218.656 77.081 218.351C76.842 219.542 76.6031 220.732 76.357 221.958C73.7533 221.791 71.2879 221.507 68.7551 220.876C68.5162 220.043 68.2773 219.21 68.0311 218.351C65.4734 217.557 63.0481 217.184 60.384 217.089C57.695 216.991 55.2672 216.682 52.8274 215.466C52.8274 215.228 52.8274 214.99 52.8274 214.745C52.5885 214.745 52.3495 214.745 52.1034 214.745C51.9466 214.306 51.7898 213.867 51.6283 213.415C50.8643 211.2 50.8643 211.2 49.2074 209.696C49.2074 209.458 49.2074 209.22 49.2074 208.974C48.0128 209.212 46.8183 209.45 45.5875 209.696C45.4409 211.995 45.67 213.464 46.7187 215.521C47.0355 216.188 47.0355 216.188 47.0355 216.909C46.1885 216.838 46.1885 216.838 45.2255 216.548C44.7037 215.762 44.7037 215.762 44.2979 214.79C43.7197 213.423 43.2831 212.607 41.9675 211.86C41.2466 211.717 41.2466 211.717 40.5196 211.769C40.1444 211.783 40.1444 211.783 39.7616 211.798C39.0196 211.864 38.3314 211.985 37.6236 212.22C37.6236 212.458 37.6236 212.696 37.6236 212.942C36.7865 213.347 36.7865 213.347 35.8136 213.663C35.4553 213.425 35.0969 213.187 34.7277 212.942C33.9618 212.747 33.9618 212.747 33.1086 212.632C32.786 212.58 32.4634 212.529 32.131 212.475C31.7858 212.421 31.4407 212.367 31.0851 212.31C28.3907 211.853 25.7852 211.298 23.1891 210.44C22.8062 210.316 22.8062 210.316 22.4155 210.19C21.0706 209.724 19.9637 209.172 18.7858 208.371C17.3814 207.458 16.3305 207.338 14.637 207.419C14.1928 207.435 13.7485 207.452 13.2908 207.468C12.9586 207.489 12.6264 207.51 12.284 207.532C12.2926 207.126 12.2926 207.126 12.3013 206.711C12.324 205.474 12.338 204.238 12.3519 203.001C12.3656 202.362 12.3656 202.362 12.3795 201.71C12.4102 198.513 12.4102 198.513 11.1981 195.63C10.3843 194.796 10.3843 194.796 9.43334 194.142C8.95457 193.78 8.95457 193.78 8.46614 193.41C8.17309 193.19 7.88005 192.971 7.57812 192.745C6.47914 191.873 5.82792 191.299 5.58715 189.86C5.76815 188.778 5.76815 188.778 6.30831 187.921C7.42311 185.988 7.18618 183.88 6.61816 181.77C6.0094 179.803 5.31573 177.867 4.6203 175.929C3.23419 171.973 3.23419 171.973 3.23419 170.024C5.14552 170.024 7.05685 170.024 9.0261 170.024C8.74238 169.153 8.45867 168.283 8.16636 167.386C7.59284 165.605 7.10961 163.877 6.83151 162.022C6.57754 160.471 6.24081 159.575 5.04416 158.483C4.65592 158.252 4.26769 158.021 3.86768 157.784C2.8722 157.04 2.8722 157.04 2.66858 156.003C2.8722 154.876 2.8722 154.876 3.43781 153.794C4.06844 152.483 4.04483 151.919 3.59619 150.548C2.87979 149.744 2.87979 149.744 2.14821 149.106C2.14821 148.868 2.14821 148.629 2.14821 148.384C1.90929 148.384 1.67038 148.384 1.42422 148.384C0.495764 145.609 1.25304 143.129 2.14821 140.45C3.71858 135.492 4.70237 130.439 5.39343 125.29C5.45246 124.858 5.51149 124.426 5.57231 123.981C5.68507 123.139 5.79191 122.296 5.89188 121.452C6.24906 118.774 6.74037 116.148 8.91783 114.329C9.57174 113.91 10.2274 113.558 10.9266 113.22C11.381 112.984 11.8354 112.747 12.2897 112.51C12.8245 112.237 12.8245 112.237 13.37 111.958C13.9283 111.402 13.7933 110.882 13.7999 110.11C13.791 108.986 13.6902 108.208 13.37 107.112C13.0584 106.006 12.8938 105.094 12.827 103.956C12.8084 103.661 12.7897 103.366 12.7705 103.061C13.008 102.22 13.008 102.22 13.8989 101.398C15.5126 100.617 16.7197 100.6 18.4832 100.665C18.772 100.668 19.0609 100.672 19.3585 100.676C20.6887 100.701 21.8542 100.807 23.1439 101.138C23.7769 101.162 24.4109 101.169 25.0443 101.161C25.5287 101.156 25.5287 101.156 26.0228 101.151C26.2674 101.147 26.5119 101.143 26.7638 101.138C26.9764 97.4141 26.5452 93.9875 25.8309 90.3313C25.3464 87.8223 24.9696 85.593 25.8588 83.1281C26.6596 80.6168 26.6251 78.9115 25.6057 76.4278C24.1166 71.8249 24.1364 65.9684 24.7703 61.2081C24.9807 59.593 25.0279 57.992 25.0556 56.3649C25.0623 56.0582 25.069 55.7515 25.0758 55.4355C25.0969 54.4628 25.1161 53.4901 25.1348 52.5174C25.2758 45.2415 25.2758 45.2415 25.602 42.1622C25.7464 40.462 25.7154 38.7593 25.7004 37.0543C25.6988 36.6938 25.6972 36.3332 25.6955 35.9618C25.6913 35.0862 25.6854 34.2106 25.6778 33.3351C28.2413 32.2584 30.6747 31.9105 33.4239 31.598C36.2674 31.2418 38.2779 30.5723 40.1576 28.2859C40.6041 27.1379 40.9392 26.0239 41.2535 24.8378C41.7455 23.1558 42.2503 22.317 43.7775 21.4334C44.7414 21.1667 45.6268 20.9609 46.6056 20.8023C46.8564 20.7572 47.1072 20.7121 47.3656 20.6656C47.9787 20.5561 48.593 20.4531 49.2074 20.3514C49.3269 19.9944 49.4463 19.6374 49.5694 19.2695C49.8083 19.2695 50.0473 19.2695 50.2934 19.2695C50.3027 18.8738 50.3121 18.4782 50.3217 18.0706C50.3421 17.546 50.3628 17.0215 50.3839 16.4969C50.389 16.2368 50.3942 15.9767 50.3995 15.7087C50.4802 13.9466 50.751 12.9478 52.1034 11.6957C53.9226 10.618 56.1253 10.8464 58.1802 10.8335C60.5068 10.767 62.5399 10.2888 64.2508 8.62204C65.5899 7.05209 65.9507 5.18769 66.3739 3.21185C66.5831 2.31866 66.5831 2.31866 66.9451 1.95801ZM125.95 145.138C128.118 145.025 129.438 145.253 131.38 146.22C130.663 146.577 130.663 146.577 129.932 146.942C129.813 146.585 129.693 146.228 129.57 145.86C129.212 145.979 128.853 146.098 128.484 146.22C128.484 145.982 128.484 145.744 128.484 145.499C127.648 145.499 126.812 145.499 125.95 145.499C125.95 145.38 125.95 145.261 125.95 145.138Z"  stroke="white" stroke-width="2"/>
</svg>
