<svg width="105" height="120" viewBox="0 0 105 120" fill="none" xmlns="http://www.w3.org/2000/svg">
<path d="M15.3399 1C16.5092 4.59703 16.9692 7.96553 17.2564 11.725C17.7696 17.5855 18.4554 23.4126 19.2563 29.2411C19.3558 30.0099 19.4554 30.7787 19.558 31.5708C20.3361 37.0786 21.4943 42.366 24.4248 47.1703C25.3392 48.7034 25.3392 48.7034 25.3392 50.0285C25.6949 50.1976 26.0507 50.3667 26.4172 50.541C28.3579 51.5338 30.2114 52.6482 32.0887 53.7553C41.7677 59.3226 53.1529 65.3497 64.6696 63.942C66.9582 63.0484 68.6294 61.9808 70.6691 60.6293C77.1721 59.5521 82.9054 64.6409 87.9387 68.1735C88.3993 68.5262 88.8599 68.879 89.3344 69.2424C89.7297 69.5447 90.125 69.8471 90.5322 70.1586C91.6943 71.7111 91.3718 72.7742 91.1676 74.667C91.0851 77.6346 91.3726 79.0676 93.3758 81.2925C94.2448 82.1405 95.1199 82.9824 96.0006 83.8184C96.8134 84.7647 97.6191 85.717 98.4171 86.6757C100.1 88.5978 101.662 89.9798 104 91.1065C103.064 99.6851 98.3185 105.701 92.4982 111.72C90.6677 112.971 90.6677 112.971 88.5975 112.849C87.6424 112.581 87.6424 112.581 86.6679 112.308C80.8318 111.728 77.0008 114.266 72.0857 117.111C66.6554 120.134 61.47 118.987 55.7213 117.411C52.3205 116.432 49.13 115.284 46.0043 113.633C45.5403 113.389 45.0762 113.145 44.5981 112.893C39.178 109.794 36.8086 106.217 34.4635 100.506C31.2435 92.7908 25.7524 88.0392 19.3748 82.8008C18.9584 82.4551 18.5421 82.1094 18.1131 81.7531C17.7394 81.4484 17.3656 81.1436 16.9806 80.8295C14.5643 78.3827 14.5342 76.039 14.465 72.7208C14.2062 68.5179 13.5761 65.731 10.6736 62.6169C9.90712 61.9821 9.12898 61.361 8.34042 60.7535C5.0094 58.1021 3.097 54.0683 2.44762 49.8991C2.41532 48.194 2.56988 46.9231 3.34079 45.3907C3.70868 41.7483 3.60807 39.6881 1.34093 36.7776C0.979147 34.6201 0.802103 33.5227 1.34093 31.4772C2.40335 30.0088 3.54362 28.7891 4.8563 27.5381C7.26171 24.6931 7.50519 21.5012 7.47069 17.9001C7.46639 17.1059 7.4621 16.3116 7.45767 15.4932C7.4465 14.6733 7.43533 13.8534 7.42382 13.0087C7.4178 12.1734 7.41179 11.3381 7.40559 10.4775C7.38992 8.42247 7.36802 6.36767 7.34049 4.31274C8.29572 3.75544 9.25471 3.20452 10.2153 2.65637C10.7489 2.34891 11.2825 2.04144 11.8323 1.72466C13.34 1 13.34 1 15.3399 1Z" stroke="white" stroke-width="0.5"/>
</svg>
