<svg width="180" height="120" viewBox="0 0 180 120" fill="none" xmlns="http://www.w3.org/2000/svg">
<path d="M142.419 1C142.48 1.2757 142.541 1.5514 142.604 1.83545C143.215 4.41579 143.215 4.41579 144.98 6.26902C146.145 7.22939 146.145 7.22939 146.377 8.60505C146.152 10.0893 145.744 11.2306 145.184 12.6055C144.702 14.0686 144.747 15.2481 144.903 16.7811C145.293 17.6923 145.293 17.6923 146.145 18.027C147.765 17.9909 148.556 17.6615 149.896 16.7292C151.111 15.9505 151.111 15.9505 152.224 15.8467C153.482 16.5291 153.697 17.3549 154.103 18.6921C155.071 21.7047 155.992 23.2451 158.588 25.061C158.875 25.2634 159.163 25.4657 159.46 25.6742C162.338 27.5063 164.831 27.5133 168.138 27.2024C169.848 27.1607 170.512 27.3164 171.807 28.4093C172.437 30.3059 172.619 32.2998 171.923 34.2104C171.031 35.8561 169.859 37.1161 168.496 38.3763C167.538 39.1628 167.538 39.1628 167.539 40.4788C167.647 41.8514 167.827 42.6771 168.289 43.9309C169.385 46.9974 168.99 49.4206 168.082 52.4963C167.845 55.2062 168.442 56.8169 170.151 58.9074C171.617 60.1638 173.176 61.1496 174.821 62.1535C177.877 64.123 177.877 64.123 178.43 65.7856C178.586 67.4989 178.658 69.2151 178.729 70.9339C178.753 71.4984 178.782 72.0627 178.814 72.6267C178.861 73.4428 178.895 74.2595 178.929 75.0762C178.953 75.5641 178.976 76.052 179 76.5548C178.843 77.8291 178.843 77.8291 178.095 78.7958C176.895 79.7143 175.69 80.1139 174.265 80.6064C171.573 81.5994 169.66 82.9044 167.503 84.8291C166.438 85.7099 165.438 86.2819 164.201 86.8877C159.254 89.4647 155.596 94.0552 152.106 98.3046C151.551 98.9778 150.99 99.6448 150.426 100.31C147.611 103.649 144.999 107.119 142.445 110.66C142.136 111.087 142.136 111.087 141.82 111.523C141.415 112.083 141.012 112.645 140.61 113.207C139.2 115.159 139.2 115.159 138.28 115.621C137.63 115.686 136.978 115.727 136.326 115.756C135.911 115.776 135.495 115.795 135.067 115.815C134.606 115.835 134.145 115.855 133.671 115.875C133.182 115.898 132.693 115.921 132.189 115.944C130.825 116.006 129.462 116.067 128.098 116.127C126.642 116.192 125.186 116.259 123.73 116.325C121.836 116.412 119.942 116.498 118.048 116.583C113.244 116.8 108.441 117.022 103.637 117.247C101.237 117.359 98.8372 117.471 96.4374 117.583C94.4805 117.674 92.5236 117.766 90.5668 117.858C85.6381 118.089 80.7092 118.313 75.7797 118.528C75.4984 118.54 75.2171 118.553 74.9272 118.565C66.8544 118.918 58.7931 119.009 50.7142 118.997C49.0874 118.995 47.4606 118.996 45.8338 118.999C44.5658 119 43.2979 119 42.0299 118.999C41.4287 118.998 40.8275 118.999 40.2263 119C39.3981 119.001 38.5699 118.999 37.7417 118.997C37.2724 118.997 36.8031 118.996 36.3195 118.996C35.2165 118.943 35.2165 118.943 34.3887 118.528C34.235 118.074 34.0813 117.62 33.923 117.152C33.2532 115.549 32.4671 114.989 30.9012 114.303C29.1118 113.726 27.2726 113.402 25.4298 113.041C23.6568 112.623 22.3088 111.949 20.7296 111.053C19.3582 110.594 18.3178 110.582 16.8751 110.585C16.4157 110.584 15.9563 110.583 15.483 110.582C14.1588 110.635 12.9277 110.827 11.6236 111.053C7.93899 111.309 5.18321 111.113 2.10365 108.924C1.14026 107.535 0.925704 106.794 1.02037 105.127C1.86819 101.363 4.0675 98.0505 6.65667 95.2714C7.92225 93.2107 7.91664 90.958 7.48449 88.6267C6.71962 87.3466 5.85302 86.2426 4.91372 85.087C4.17321 84.0585 4.17321 84.0585 3.91451 82.4233C4.17321 81.1515 4.17321 81.1515 4.61299 80.3209C5.25862 78.9389 4.96852 78.0422 4.58712 76.5833C3.98439 75.5463 3.33151 74.5754 2.63236 73.6016C2.10365 72.8456 2.10365 72.8456 2.10365 72.4303C6.81564 71.9668 11.1027 74.574 15.1548 76.7163C17.6016 77.9933 20.0241 78.6885 22.7992 78.2444C25.1858 77.2663 27.0665 75.7543 29.0078 74.0915C29.281 74.0915 29.5542 74.0915 29.8357 74.0915C29.8357 73.8174 29.8357 73.5433 29.8357 73.2609C30.3765 72.7751 30.3765 72.7751 31.1421 72.2357C31.4258 72.0346 31.7094 71.8336 32.0017 71.6265C32.3113 71.4121 32.621 71.1977 32.94 70.9768C33.2552 70.756 33.5705 70.5351 33.8952 70.3076C36.5604 68.4571 39.2868 66.717 42.0509 65.0199C43.3837 64.2011 44.6834 63.3413 45.9782 62.4633C45.7408 60.8556 44.9488 59.9376 43.9086 58.7257C44.224 58.6646 44.5393 58.6036 44.8642 58.5407C47.5765 57.9496 49.6116 57.203 51.8392 55.5299C52.6007 54.988 52.6007 54.988 53.8425 54.5727C53.8425 54.2987 53.8425 54.0246 53.8425 53.7422C55.8697 52.5457 57.503 51.9665 59.8442 51.6657C63.3341 51.1972 65.5636 49.905 68.2954 47.748C69.2062 47.0604 70.1521 46.4756 71.1232 45.8776C72.7836 44.7622 73.9162 43.6382 74.538 41.6987C74.6714 40.8527 74.7912 40.0045 74.9002 39.155C75.1301 37.4797 75.2861 36.4899 76.6076 35.3914C78.3168 34.3553 79.07 34.182 81.0603 34.2088C87.1565 34.2055 91.7634 33.9242 96.8892 30.4858C98.4081 29.7238 100.405 30.255 102.074 30.4274C104.173 30.5964 105.382 30.3579 107.237 29.2399C107.852 29.0343 107.852 29.0343 108.479 28.8246C108.873 28.0094 108.873 28.0094 109.125 27.0337C110.075 23.7765 110.075 23.7765 111.451 22.7567C112.84 22.0701 113.699 22.0642 115.239 22.1313C115.991 22.1513 115.991 22.1513 116.758 22.1718C117.804 22.2116 118.851 22.2549 119.898 22.3016C123.048 22.3787 125.126 22.2481 127.519 20.1035C127.759 19.8892 127.999 19.6749 128.247 19.4542C128.967 18.7691 129.643 18.061 130.312 17.3262C130.547 17.0699 130.781 16.8135 131.022 16.5494C133.744 13.466 134.504 10.5976 135.157 6.59834C135.617 4.50297 136.637 3.38058 138.306 2.1161C139.839 1.23231 140.632 1 142.419 1Z" stroke="white" stroke-width="0.5"/>
</svg>
